<svg width="905" height="905" viewBox="0 0 905 905" fill="none" xmlns="http://www.w3.org/2000/svg">
<path fill-rule="evenodd" clip-rule="evenodd" d="M0 904.602L452.5 0L905 904.602L0 904.602ZM455.233 549.67L457.281 876.035L44.8231 877.314L451.475 64.5535L455.228 340.222C427.739 340.446 401.443 351.536 382.055 371.091C362.607 390.706 351.691 417.242 351.692 444.902C351.658 466.837 358.575 488.216 371.445 505.952C374.341 510.052 376.229 514.781 376.954 519.752C377.679 524.723 377.221 529.796 375.617 534.556L265.101 866.447L429.938 564.611C432.491 560.072 436.203 556.296 440.691 553.67C445.109 551.086 450.122 549.708 455.233 549.67ZM455.481 340.505C458.737 340.504 461.99 340.703 465.221 341.102C483.474 343.144 500.868 349.947 515.655 360.829C530.442 371.71 542.103 386.286 549.465 403.093C556.827 419.899 559.632 438.345 557.598 456.578C555.564 474.81 548.763 492.187 537.877 506.963C535.007 510.992 533.144 515.65 532.446 520.546C531.748 525.442 532.234 530.434 533.865 535.104L642.892 865.973L480.675 564.694C478.165 560.143 474.483 556.343 470.009 553.69C465.608 551.078 460.598 549.67 455.481 549.603V340.505Z" fill="black" fill-opacity="0.02"/>
</svg>
