<svg width="16" height="11" viewBox="0 0 16 11" fill="none" xmlns="http://www.w3.org/2000/svg">
<path d="M3.42468 4.19891C3.23839 4.02826 3.01724 3.89288 2.77384 3.80053C2.53045 3.70817 2.26958 3.66063 2.00613 3.66063C1.74268 3.66063 1.48181 3.70817 1.23842 3.80053C0.995021 3.89288 0.773868 4.02826 0.587581 4.19891C0.401295 4.36957 0.253524 4.57217 0.152706 4.79514C0.0518888 5.01811 0 5.25709 0 5.49844C0 5.73978 0.0518888 5.97876 0.152706 6.20173C0.253524 6.42471 0.401295 6.62731 0.587581 6.79796L4.58349 10.4586C4.76923 10.6301 4.99021 10.7663 5.23368 10.8592C5.47715 10.9522 5.73829 11 6.00204 11C6.2658 11 6.52694 10.9522 6.77041 10.8592C7.01388 10.7663 7.23486 10.6301 7.42059 10.4586L15.4124 3.13733C15.5987 2.96667 15.7465 2.76408 15.8473 2.5411C15.9481 2.31813 16 2.07915 16 1.8378C16 1.59646 15.9481 1.35748 15.8473 1.13451C15.7465 0.911533 15.5987 0.708936 15.4124 0.53828C15.2261 0.367624 15.005 0.232252 14.7616 0.139893C14.5182 0.0475351 14.2573 0 13.9939 0C13.7304 0 13.4696 0.0475351 13.2262 0.139893C12.9828 0.232252 12.7616 0.367624 12.5753 0.53828L6.00204 6.57833L3.42468 4.19891Z" fill="#C6211C"/>
</svg>
