<svg width="51" height="51" viewBox="0 0 51 51" fill="none" xmlns="http://www.w3.org/2000/svg">
<path fill-rule="evenodd" clip-rule="evenodd" d="M19.2327 25.8718L25.529 19.2481C25.9154 18.8416 26.5418 18.8416 26.9282 19.2481L33.2245 25.8718C33.6109 26.2782 33.6109 26.9373 33.2245 27.3437C32.8381 27.7502 32.2117 27.7502 31.8253 27.3437L27.218 22.4968L27.218 32.4738C27.218 33.0487 26.775 33.5146 26.2286 33.5146C25.6822 33.5146 25.2392 33.0487 25.2392 32.4738L25.2392 22.4968L20.6318 27.3437C20.2455 27.7502 19.619 27.7502 19.2327 27.3437C18.8463 26.9373 18.8463 26.2782 19.2327 25.8718Z" fill="#939393"/>
<circle cx="25.5" cy="25.5" r="25.2" stroke="#939393" stroke-width="0.6"/>
</svg>
