<svg width="50" height="50" viewBox="0 0 50 50" fill="none" xmlns="http://www.w3.org/2000/svg">
<path fill-rule="evenodd" clip-rule="evenodd" d="M32.2818 25.6429L25.9854 32.2666C25.599 32.673 24.9726 32.673 24.5862 32.2666L18.2899 25.6429C17.9035 25.2364 17.9035 24.5774 18.2899 24.1709C18.6763 23.7645 19.3027 23.7645 19.6891 24.1709L24.2964 29.0179L24.2964 19.0408C24.2964 18.466 24.7394 18 25.2858 18C25.8322 18 26.2752 18.466 26.2752 19.0408L26.2752 29.0179L30.8826 24.1709C31.2689 23.7645 31.8954 23.7645 32.2818 24.1709C32.6681 24.5774 32.6681 25.2364 32.2818 25.6429Z" fill="white"/>
<circle cx="25" cy="25" r="24.7" transform="rotate(180 25 25)" stroke="white" stroke-width="0.6"/>
</svg>
