<svg width="37" height="37" viewBox="0 0 37 37" fill="none" xmlns="http://www.w3.org/2000/svg">
<path fill-rule="evenodd" clip-rule="evenodd" d="M36.9966 36.9802L18.4983 0L9.53674e-05 36.9802L36.9966 36.9802ZM18.3866 22.4705L18.3029 35.8124L35.1642 35.8647L18.5402 2.63895L18.3868 13.9083C19.5105 13.9175 20.5854 14.3709 21.378 15.1702C22.173 15.9721 22.6192 17.0569 22.6192 18.1876C22.6206 19.0843 22.3378 19.9583 21.8117 20.6833C21.6933 20.851 21.6162 21.0443 21.5865 21.2475C21.5569 21.4507 21.5756 21.6581 21.6412 21.8527L26.159 35.4204L19.4205 23.0814C19.3161 22.8958 19.1644 22.7414 18.9809 22.6341C18.8004 22.5285 18.5955 22.4721 18.3866 22.4705ZM18.3763 13.9199C18.2433 13.9198 18.1103 13.928 17.9783 13.9443C17.2321 14.0278 16.5211 14.3059 15.9166 14.7507C15.312 15.1955 14.8354 15.7914 14.5344 16.4785C14.2334 17.1655 14.1188 17.9196 14.2019 18.6649C14.2851 19.4103 14.5631 20.1206 15.0081 20.7247C15.1255 20.8894 15.2016 21.0798 15.2301 21.28C15.2587 21.4801 15.2388 21.6842 15.1721 21.8751L10.7151 35.401L17.3466 23.0848C17.4492 22.8987 17.5997 22.7434 17.7825 22.6349C17.9624 22.5282 18.1672 22.4706 18.3763 22.4678L18.3763 13.9199Z" fill="white"/>
</svg>
