<svg width="15" height="15" viewBox="0 0 15 15" fill="none" xmlns="http://www.w3.org/2000/svg">
<path fill-rule="evenodd" clip-rule="evenodd" d="M0 15L7.5 0L15 15L0 15ZM7.54529 9.11422L7.57925 14.5263L0.742925 14.5475L7.48302 1.07042L7.54522 5.64118C7.08962 5.64492 6.65382 5.82882 6.33249 6.15305C6.01016 6.4783 5.82924 6.91832 5.82924 7.37697C5.82868 7.7407 5.94333 8.0952 6.15665 8.3893C6.20464 8.45728 6.23593 8.53569 6.24795 8.61813C6.25997 8.70056 6.25238 8.78468 6.2258 8.86361L4.39404 14.367L7.12615 9.36198C7.16846 9.28671 7.22997 9.2241 7.30437 9.18055C7.37756 9.13772 7.46062 9.11487 7.54529 9.11422ZM7.54951 5.6462C7.60344 5.6462 7.65732 5.6495 7.71085 5.65611C8.01338 5.68997 8.30168 5.80278 8.54677 5.98321C8.79186 6.16364 8.98513 6.40534 9.10716 6.68403C9.22919 6.96272 9.27568 7.26859 9.24197 7.57091C9.20825 7.87324 9.09552 8.16138 8.9151 8.40639C8.86751 8.4732 8.83664 8.55044 8.82507 8.63163C8.8135 8.71281 8.82156 8.79559 8.84859 8.87302L10.6557 14.3594L7.96698 9.36369C7.92538 9.28821 7.86435 9.22521 7.79021 9.18121C7.71729 9.13793 7.63428 9.11457 7.54951 9.11344V5.6462Z" fill="#C6211C"/>
</svg>
