<svg xmlns="http://www.w3.org/2000/svg" width="86" height="86" viewBox="0 0 86 86" fill="none">
    <path d="M49.6048 62.1936L49.4166 62.2416L44.9737 63.3749L44.8034 64.0069L49.6048 62.1936ZM49.6048 62.1936V61.9994M49.6048 62.1936V61.9994M49.6048 61.9994V55.904V55.7098L49.4166 55.6618L44.9737 54.5298L44.8033 53.8977C44.3632 52.2637 43.7202 50.7038 42.8879 49.2628L42.5606 48.6946L44.8989 44.754L44.9981 44.587L44.8607 44.4497L40.5504 40.1394L40.4131 40.002L40.2461 40.1011L36.3055 42.4395L35.7373 42.1122L49.6048 61.9994ZM44.9981 73.3178L44.8607 73.4551L40.5504 77.7654L40.4131 77.9028L40.2461 77.8036L36.3055 75.4653L35.7373 75.7925L44.9981 73.3178ZM44.9981 73.3178L44.8989 73.1507M44.9981 73.3178L44.8989 73.1507M44.8989 73.1507L42.5606 69.2101L42.8879 68.642M44.8989 73.1507L42.8879 68.642M29.2903 82.5082H29.096H23.0021H22.8079L22.7599 82.32L21.6265 77.877L20.9946 77.7067L29.2903 82.5082ZM29.2903 82.5082L29.3383 82.3199M29.2903 82.5082L29.3383 82.3199M29.3383 82.3199L30.4703 77.8784L31.1024 77.708M29.3383 82.3199L31.1024 77.708M11.6837 77.9014L11.5464 77.764L7.23605 73.4537L7.09871 73.3164L7.19783 73.1494L9.53614 69.2088L9.20892 68.6406L11.6837 77.9014ZM11.6837 77.9014L11.8507 77.8023M11.6837 77.9014L11.8507 77.8023M11.8507 77.8023L15.7913 75.464L16.3595 75.7912M11.8507 77.8023L16.3595 75.7912M2.49194 62.1937V61.9994V55.9054V55.7112L2.68014 55.6632L7.12308 54.5299L7.29339 53.8979C7.73214 52.2637 8.37652 50.7039 9.20876 49.2631L2.49194 62.1937ZM2.49194 62.1937L2.68021 62.2416M2.49194 62.1937L2.68021 62.2416M2.68021 62.2416L7.1231 63.3736L7.29344 64.0057M2.68021 62.2416L7.29344 64.0057M22.8064 35.3953H23.0007H29.0947H29.2889L29.3369 35.5835L30.4702 40.0264L31.1022 40.1967C31.1022 40.1967 31.1023 40.1968 31.1024 40.1968C32.7365 40.6355 34.2962 41.2799 35.737 42.1121L22.8064 35.3953ZM22.8064 35.3953L22.7585 35.5835M22.8064 35.3953L22.7585 35.5835M22.7585 35.5835L21.6265 40.0264L20.9944 40.1968C20.9944 40.1968 20.9944 40.1968 20.9944 40.1968M22.7585 35.5835L20.9944 40.1968M42.8879 68.642C43.7201 67.2011 44.3645 65.6413 44.8033 64.0071L42.8879 68.642ZM31.1024 77.708C32.7363 77.268 34.2961 76.625 35.737 75.7927L31.1024 77.708ZM16.3595 75.7912C17.8003 76.6235 19.3601 77.2679 20.9944 77.7066L16.3595 75.7912ZM7.29344 64.0057C7.73351 65.6396 8.37645 67.1994 9.20876 68.6404L7.29344 64.0057ZM20.9944 40.1968C19.3604 40.6368 17.8007 41.2798 16.3597 42.1121L20.9944 40.1968ZM45.2244 48.5994L45.4394 48.727L45.2183 48.8437C45.8387 50.0197 46.3497 51.2597 46.7455 52.5434L46.7868 52.6774L46.9227 52.712L51.8468 53.9665V63.9356L46.9241 65.19L46.7882 65.2246L46.7469 65.3586C46.3511 66.6422 45.8388 67.8822 45.2183 69.0583L45.1529 69.1822L45.2244 69.3027L47.8164 73.668L40.7661 80.7184L36.4007 78.1263L36.2803 78.0548L36.1564 78.1202C34.9803 78.7408 33.7403 79.2531 32.4567 79.6489L32.3227 79.6902L32.2881 79.826L31.0336 84.7501H21.0645L19.8101 79.8274L19.7755 79.6915L19.6415 79.6502C18.3579 79.2544 17.1178 78.7421 15.9417 78.1216L15.8179 78.0562L15.6974 78.1277L11.3321 80.7197L4.28173 73.6694L6.87375 69.304L6.94526 69.1836L6.8799 69.0597C6.25933 67.8836 5.74703 66.6436 5.35124 65.36L5.30993 65.226L5.17406 65.1914L0.25 63.9369V53.9678L5.1727 52.7134L5.30856 52.6788L5.34987 52.5448C5.74566 51.2612 6.25796 50.0212 6.87853 48.8451L6.94389 48.7212L6.87238 48.6008L4.28036 44.2354L11.3307 37.185L15.6961 39.7771L15.8165 39.8486L15.9404 39.7832C17.1165 39.1626 18.3565 38.6504 19.6401 38.2546L19.7741 38.2132L19.8087 38.0774L21.0632 33.1533H31.0323L32.2881 38.0761L32.3227 38.2119L32.4567 38.2532C33.7403 38.649 34.9803 39.1613 36.1564 39.7818L36.2803 39.8472L36.4007 39.7757L40.7661 37.1837L47.8164 44.234L45.2244 48.5994ZM9.53614 48.6946L9.20892 49.2628L16.3595 42.1122L15.7913 42.4395L11.8507 40.1011L11.6837 40.002L11.5464 40.1394L7.23605 44.4497L7.09871 44.587L7.19783 44.754L9.53614 48.6946Z"
          fill="transparent" stroke="black" stroke-width="1"/>
    <path d="M9.84681 58.9516C9.84681 50.018 17.1148 42.75 26.0484 42.75C34.982 42.75 42.25 50.018 42.25 58.9516C42.25 67.8852 34.982 75.1532 26.0484 75.1532C17.1148 75.1532 9.84681 67.8852 9.84681 58.9516ZM12.0887 58.9516C12.0887 66.6492 18.3508 72.9113 26.0484 72.9113C33.746 72.9113 40.0081 66.6492 40.0081 58.9516C40.0081 51.254 33.746 44.9919 26.0484 44.9919C18.3508 44.9919 12.0887 51.254 12.0887 58.9516Z"
          fill="black" stroke="white" stroke-width="0.5"/>
    <path d="M18.0725 58.9519C18.0725 54.5534 21.6499 50.9761 26.0484 50.9761C30.4468 50.9761 34.0242 54.5534 34.0242 58.9519C34.0242 63.3503 30.4468 66.9277 26.0484 66.9277C21.6499 66.9277 18.0725 63.3503 18.0725 58.9519ZM20.3145 58.9519C20.3145 62.1143 22.8859 64.6858 26.0484 64.6858C29.2108 64.6858 31.7822 62.1143 31.7822 58.9519C31.7822 55.7895 29.2108 53.218 26.0484 53.218C22.8859 53.218 20.3145 55.7895 20.3145 58.9519Z"
          fill="black" stroke="white" stroke-width="0.5"/>
    <path d="M50.9758 38.3871V38.1371H50.7258H47.9839C45.8544 38.1371 44.121 36.4037 44.121 34.2742V15.0807C44.121 12.9512 45.8544 11.2178 47.9839 11.2178H80.8871C83.0166 11.2178 84.75 12.9512 84.75 15.0807V34.2742C84.75 36.4037 83.0166 38.1371 80.8871 38.1371H63.3881H63.329L63.2763 38.1635L50.9758 44.3138V38.3871ZM47.9839 35.8952H53.2177V40.2818V40.6863L53.5795 40.5054L62.8 35.8952H80.8871C81.7819 35.8952 82.5081 35.1691 82.5081 34.2742V15.0807C82.5081 14.1858 81.7819 13.4597 80.8871 13.4597H47.9839C47.089 13.4597 46.3629 14.1858 46.3629 15.0807V34.2742C46.3629 35.1691 47.089 35.8952 47.9839 35.8952Z"
          fill="black" stroke="white" stroke-width="0.5"/>
    <path d="M17.5715 24.4631L17.5121 24.4274H17.4428H4.1129C1.98339 24.4274 0.25 22.694 0.25 20.5645V4.1129C0.25 1.98339 1.98339 0.25 4.1129 0.25H37.0161C39.1456 0.25 40.879 1.98339 40.879 4.1129V20.5645C40.879 22.694 39.1456 24.4274 37.0161 24.4274H26.0484H25.7984V24.6774V29.4003L17.5715 24.4631ZM23.5565 22.1855H37.0161C37.911 22.1855 38.6371 21.4594 38.6371 20.5645V4.1129C38.6371 3.21806 37.911 2.49194 37.0161 2.49194H4.1129C3.21806 2.49194 2.49194 3.21806 2.49194 4.1129V20.5645C2.49194 21.4594 3.21806 22.1855 4.1129 22.1855H18.1331L23.1779 25.2112L23.5565 25.4383V24.9969V22.1855Z"
          fill="black" stroke="white" stroke-width="0.5"/>
    <path d="M76.7742 30.4113H77.0242V30.1613V16.7017H79.2662V32.6533H52.3468V30.4113H54.8388H55.0888V30.1613V24.9275H57.3307V30.1613V30.4113H57.5807H60.3226H60.5726V30.1613V22.1855H62.8146V30.1613V30.4113H63.0646H65.8065H66.0565V30.1613V16.7017H68.2984V30.1613V30.4113H68.5484H71.2904H71.5404V30.1613V19.4436H73.7823V30.1613V30.4113H74.0323H76.7742Z"
          fill="black" stroke="white" stroke-width="0.5"/>
    <path d="M13.4598 12.339C13.4598 14.4685 11.7264 16.2019 9.59685 16.2019C7.46734 16.2019 5.73394 14.4685 5.73394 12.339C5.73394 10.2095 7.46734 8.47607 9.59685 8.47607C11.7264 8.47607 13.4598 10.2095 13.4598 12.339ZM11.2178 12.339C11.2178 11.4441 10.4917 10.718 9.59685 10.718C8.702 10.718 7.97588 11.4441 7.97588 12.339C7.97588 13.2338 8.702 13.9599 9.59685 13.9599C10.4917 13.9599 11.2178 13.2338 11.2178 12.339Z"
          fill="#C6211C" stroke="white" stroke-width="0.5"/>
    <path d="M24.4274 12.339C24.4274 14.4685 22.694 16.2019 20.5645 16.2019C18.435 16.2019 16.7016 14.4685 16.7016 12.339C16.7016 10.2095 18.435 8.47607 20.5645 8.47607C22.694 8.47607 24.4274 10.2095 24.4274 12.339ZM22.1855 12.339C22.1855 11.4441 21.4593 10.718 20.5645 10.718C19.6696 10.718 18.9435 11.4441 18.9435 12.339C18.9435 13.2338 19.6696 13.9599 20.5645 13.9599C21.4593 13.9599 22.1855 13.2338 22.1855 12.339Z"
          fill="#C6211C" stroke="white" stroke-width="0.5"/>
    <path d="M35.3952 12.339C35.3952 14.4685 33.6618 16.2019 31.5323 16.2019C29.4028 16.2019 27.6694 14.4685 27.6694 12.339C27.6694 10.2095 29.4028 8.47607 31.5323 8.47607C33.6618 8.47607 35.3952 10.2095 35.3952 12.339ZM33.1532 12.339C33.1532 11.4441 32.4271 10.718 31.5323 10.718C30.6374 10.718 29.9113 11.4441 29.9113 12.339C29.9113 13.2338 30.6374 13.9599 31.5323 13.9599C32.4271 13.9599 33.1532 13.2338 33.1532 12.339Z"
          fill="#C6211C" stroke="white" stroke-width="0.5"/>
    <path d="M76.8589 77.0244H76.4548H63.3854H62.9813L63.1617 76.6628C63.4764 76.0318 63.9913 75.5085 64.6486 75.1798C64.6486 75.1798 64.6486 75.1798 64.6487 75.1798L68.2984 73.3542V71.0958L67.9287 70.762C67.9287 70.7619 67.9286 70.7619 67.9286 70.7619C67.2855 70.1827 66.9275 69.3949 66.9275 68.5485V66.0397C66.9275 64.362 68.1766 62.903 69.7561 62.8192C70.5765 62.7715 71.3788 63.0652 71.9797 63.6377C72.5786 64.2082 72.9113 64.9782 72.9113 65.8066V68.5485C72.9113 69.3948 72.5534 70.1826 71.9103 70.7618L76.8589 77.0244ZM76.8589 77.0244L76.6785 76.6628C76.3639 76.032 75.8504 75.5085 75.1913 75.1797L71.5404 73.3542V71.0958L71.9101 70.762L76.8589 77.0244ZM62.2632 57.171L62.3469 57.1809L62.4195 57.1382C64.701 55.7952 67.2827 55.0889 69.9194 55.0889C78.0963 55.0889 84.7501 61.7427 84.7501 69.9195C84.7501 78.0964 78.0963 84.7502 69.9194 84.7502C61.7426 84.7502 55.0888 78.0964 55.0888 69.9195C55.0888 67.3596 55.7546 64.8508 57.0235 62.6179L57.0845 62.5104L57.0362 62.3967L54.4242 56.2402L62.2632 57.171ZM62.1803 79.2663H61.4726L62.0233 79.7108C64.1851 81.456 66.9285 82.5082 69.918 82.5082C72.9075 82.5082 75.6537 81.456 77.8142 79.7108L78.3645 79.2663H77.6572H62.1803ZM79.2354 77.7186L79.2826 78.3435L79.6785 77.8577C81.4447 75.69 82.5081 72.9271 82.5081 69.9195C82.5081 62.9773 76.8616 57.3308 69.9194 57.3308C67.5465 57.3308 65.223 58.0066 63.2009 59.2876L62.8635 59.5005L58.4232 58.9722L57.9952 58.9213L58.1635 59.3181L59.5999 62.7045L59.2861 63.2011C59.286 63.2011 59.286 63.2011 59.286 63.2012C58.0065 65.2233 57.3307 67.5467 57.3307 69.9195C57.3307 72.9271 58.3941 75.69 60.1589 77.8576L60.5548 78.3439L60.6021 77.7186C60.7491 75.7732 61.8784 74.0571 63.6438 73.1744C63.6438 73.1743 63.6439 73.1743 63.6439 73.1743L65.7181 72.1379L65.9918 72.0011L65.8032 71.7602C65.0855 70.8433 64.6855 69.7114 64.6855 68.5485V66.0397C64.6855 63.1143 66.87 60.7252 69.637 60.5794C71.1141 60.5273 72.4727 61.0154 73.523 62.0108C74.559 62.9945 75.1533 64.3781 75.1533 65.8066V68.5485C75.1533 69.7114 74.7534 70.8433 74.0344 71.76L73.8454 72.001L74.1194 72.1379L76.1936 73.1743C76.1936 73.1743 76.1936 73.1743 76.1936 73.1744C77.959 74.0571 79.0883 75.7732 79.2354 77.7186Z"
          fill="#C6211C" stroke="white" stroke-width="0.5"/>
    <path fill-rule="evenodd" clip-rule="evenodd"
          d="M72.1676 55.1575C70.437 54.9047 68.6912 54.9586 67.0061 55.3019C65.8486 55.5376 64.7198 55.9099 63.644 56.4132C63.0749 56.6794 62.5206 56.9823 61.9849 57.321L54.5 56.0001L57.0632 62.408C56.8233 62.8167 56.6037 63.2353 56.4047 63.6621C55.1717 66.3071 54.7297 69.2714 55.161 72.1914C55.7053 75.8776 57.6022 79.2293 60.4822 81.5936C63.3622 83.9579 67.0192 85.1657 70.7408 84.9817C74.4624 84.7976 77.9824 83.235 80.6151 80.5981C83.2478 77.9612 84.8048 74.4387 84.9828 70.7168C85.1609 66.9949 83.9473 63.3399 81.5783 60.4637C79.2094 57.5875 75.8547 55.696 72.1676 55.1575ZM59.5 62.5001C59.4283 62.6072 59.3581 62.7159 59.2896 62.8261C58.9412 63.3861 58.6343 63.9851 58.3715 64.6103C57.4156 66.8842 57.0439 69.5054 57.392 71.862C57.8545 74.994 59.4662 77.8417 61.9132 79.8506C64.3602 81.8594 67.4673 82.8856 70.6294 82.7292C73.7915 82.5729 76.7823 81.2452 79.0191 79.0047C81.256 76.7642 82.5789 73.7714 82.7302 70.609C82.8815 67.4467 81.8504 64.3412 79.8376 61.8974C77.8248 59.4537 74.9745 57.8465 71.8417 57.389C70.3642 57.1732 68.8982 57.2377 67.4857 57.5514C65.9034 57.9028 64.3883 58.567 63 59.5001L58 59.0001L59.5 62.5001Z"
          fill="black"/>
    <path d="M67.0061 55.3019L66.9562 55.0569V55.0569L67.0061 55.3019ZM72.1676 55.1575L72.1315 55.4049V55.4049L72.1676 55.1575ZM63.644 56.4132L63.7499 56.6397L63.644 56.4132ZM61.9849 57.321L61.9414 57.5672L62.0367 57.584L62.1185 57.5323L61.9849 57.321ZM54.5 56.0001L54.5434 55.7539L54.101 55.6759L54.2679 56.093L54.5 56.0001ZM57.0632 62.408L57.2788 62.5346L57.3408 62.4289L57.2953 62.3152L57.0632 62.408ZM56.4047 63.6621L56.6313 63.7677L56.4047 63.6621ZM55.161 72.1914L54.9136 72.228L55.161 72.1914ZM60.4822 81.5936L60.6409 81.4004L60.4822 81.5936ZM70.7408 84.9817L70.7285 84.732L70.7408 84.9817ZM80.6151 80.5981L80.792 80.7747L80.6151 80.5981ZM84.9828 70.7168L85.2325 70.7288L84.9828 70.7168ZM81.5783 60.4637L81.3853 60.6226L81.5783 60.4637ZM59.5 62.5001L59.7077 62.6392L59.7833 62.5264L59.7298 62.4016L59.5 62.5001ZM59.2896 62.8261L59.0773 62.6941L59.0773 62.6941L59.2896 62.8261ZM58.3715 64.6103L58.141 64.5134L58.3715 64.6103ZM57.392 71.862L57.6393 71.8254L57.392 71.862ZM61.9132 79.8506L61.7546 80.0438L61.9132 79.8506ZM70.6294 82.7292L70.6418 82.9789L70.6294 82.7292ZM79.0191 79.0047L78.8422 78.8281L79.0191 79.0047ZM82.7302 70.609L82.9799 70.621V70.621L82.7302 70.609ZM79.8376 61.8974L79.6446 62.0564V62.0564L79.8376 61.8974ZM71.8417 57.389L71.8779 57.1416L71.8417 57.389ZM67.4857 57.5514L67.4315 57.3074L67.4857 57.5514ZM63 59.5001L62.9751 59.7489L63.0647 59.7578L63.1394 59.7076L63 59.5001ZM58 59.0001L58.0249 58.7514L57.6033 58.7092L57.7702 59.0986L58 59.0001ZM67.056 55.5468C68.7131 55.2093 70.4297 55.1563 72.1315 55.4049L72.2037 54.9101C70.4443 54.6532 68.6694 54.7079 66.9562 55.0569L67.056 55.5468ZM63.7499 56.6397C64.8078 56.1448 65.9178 55.7787 67.056 55.5468L66.9562 55.0569C65.7795 55.2966 64.6318 55.6751 63.538 56.1868L63.7499 56.6397ZM62.1185 57.5323C62.6453 57.1993 63.1903 56.9014 63.7499 56.6397L63.538 56.1868C62.9595 56.4574 62.396 56.7653 61.8513 57.1097L62.1185 57.5323ZM54.4566 56.2463L61.9414 57.5672L62.0283 57.0748L54.5434 55.7539L54.4566 56.2463ZM57.2953 62.3152L54.7321 55.9073L54.2679 56.093L56.831 62.5009L57.2953 62.3152ZM56.6313 63.7677C56.827 63.348 57.0429 62.9365 57.2788 62.5346L56.8476 62.2815C56.6037 62.697 56.3804 63.1225 56.1781 63.5565L56.6313 63.7677ZM55.4083 72.1549C54.9842 69.2836 55.4188 66.3687 56.6313 63.7677L56.1781 63.5565C54.9245 66.2456 54.4752 69.2593 54.9136 72.228L55.4083 72.1549ZM60.6409 81.4004C57.8089 79.0755 55.9436 75.7797 55.4083 72.1549L54.9136 72.228C55.4671 75.9756 57.3956 79.3831 60.3236 81.7868L60.6409 81.4004ZM70.7285 84.732C67.0688 84.9129 63.4729 83.7253 60.6409 81.4004L60.3236 81.7868C63.2516 84.1906 66.9695 85.4185 70.7532 85.2314L70.7285 84.732ZM80.4382 80.4215C77.8493 83.0144 74.3881 84.551 70.7285 84.732L70.7532 85.2314C74.5368 85.0443 78.1154 83.4556 80.792 80.7747L80.4382 80.4215ZM84.7331 70.7049C84.558 74.3648 83.027 77.8285 80.4382 80.4215L80.792 80.7747C83.4686 78.0938 85.0515 74.5127 85.2325 70.7288L84.7331 70.7049ZM81.3853 60.6226C83.7148 63.4509 84.9082 67.045 84.7331 70.7049L85.2325 70.7288C85.4136 66.9448 84.1797 63.2289 81.7713 60.3048L81.3853 60.6226ZM72.1315 55.4049C75.7571 55.9344 79.0559 57.7944 81.3853 60.6226L81.7713 60.3048C79.3629 57.3806 75.9523 55.4576 72.2037 54.9101L72.1315 55.4049ZM59.2923 62.361C59.219 62.4705 59.1473 62.5815 59.0773 62.6941L59.5018 62.9582C59.5689 62.8503 59.6376 62.744 59.7077 62.6392L59.2923 62.361ZM59.0773 62.6941C58.7216 63.266 58.4086 63.8768 58.141 64.5134L58.6019 64.7072C58.8599 64.0934 59.1609 63.5063 59.5018 62.9582L59.0773 62.6941ZM58.141 64.5134C57.1688 66.8261 56.7894 69.4933 57.1446 71.8985L57.6393 71.8254C57.2984 69.5175 57.6623 66.9424 58.6019 64.7072L58.141 64.5134ZM57.1446 71.8985C57.6162 75.0919 59.2596 77.9955 61.7546 80.0438L62.0718 79.6573C59.6728 77.6879 58.0927 74.896 57.6393 71.8254L57.1446 71.8985ZM61.7546 80.0438C64.2496 82.0921 67.4176 83.1384 70.6418 82.9789L70.6171 82.4796C67.517 82.6328 64.4708 81.6268 62.0718 79.6573L61.7546 80.0438ZM70.6418 82.9789C73.8659 82.8195 76.9153 81.4658 79.1961 79.1813L78.8422 78.8281C76.6492 81.0246 73.7172 82.3263 70.6171 82.4796L70.6418 82.9789ZM79.1961 79.1813C81.4768 76.8969 82.8257 73.8454 82.9799 70.621L82.4805 70.5971C82.3322 73.6974 81.0352 76.6315 78.8422 78.8281L79.1961 79.1813ZM82.9799 70.621C83.1342 67.3966 82.0828 64.2302 80.0305 61.7385L79.6446 62.0564C81.6179 64.4522 82.6288 67.4968 82.4805 70.5971L82.9799 70.621ZM80.0305 61.7385C77.9783 59.2468 75.072 57.6081 71.8779 57.1416L71.8056 57.6364C74.8769 58.0849 77.6713 59.6605 79.6446 62.0564L80.0305 61.7385ZM71.8779 57.1416C70.3696 56.9214 68.8729 56.9873 67.4315 57.3074L67.5399 57.7955C68.9234 57.4882 70.3589 57.4251 71.8056 57.6364L71.8779 57.1416ZM67.4315 57.3074C65.8169 57.6659 64.2732 58.3431 62.8605 59.2926L63.1394 59.7076C64.5035 58.7908 65.9898 58.1397 67.5399 57.7955L67.4315 57.3074ZM63.0249 59.2514L58.0249 58.7514L57.9751 59.2489L62.9751 59.7489L63.0249 59.2514ZM57.7702 59.0986L59.2702 62.5986L59.7298 62.4016L58.2298 58.9016L57.7702 59.0986Z"
          fill="white"/>
</svg>
