<svg width="85" height="85" viewBox="0 0 85 85" fill="none" xmlns="http://www.w3.org/2000/svg">
<mask id="path-1-inside-1_29_103" fill="white">
<path d="M58.0834 29.0394C58.0834 28.6758 57.9342 28.3271 57.6685 28.07C57.4028 27.8129 57.0425 27.6684 56.6668 27.6684H54.8724C54.6577 27.0254 54.3893 26.4004 54.07 25.7994L55.3407 24.5697C55.4723 24.4424 55.5767 24.2913 55.6479 24.125C55.7191 23.9586 55.7558 23.7804 55.7558 23.6003C55.7558 23.4203 55.7191 23.242 55.6479 23.0757C55.5767 22.9094 55.4723 22.7583 55.3407 22.631L51.698 19.1059C51.5665 18.9785 51.4104 18.8775 51.2385 18.8086C51.0667 18.7397 50.8825 18.7042 50.6964 18.7042C50.5104 18.7042 50.3262 18.7397 50.1543 18.8086C49.9824 18.8775 49.8263 18.9785 49.6948 19.1059L48.424 20.3356C47.803 20.0267 47.1571 19.767 46.4927 19.5591V17.8226C46.4927 17.459 46.3435 17.1103 46.0778 16.8532C45.8121 16.5961 45.4518 16.4517 45.076 16.4517H39.9241C39.5483 16.4517 39.188 16.5961 38.9223 16.8532C38.6566 17.1103 38.5074 17.459 38.5074 17.8226V19.5591C37.843 19.7669 37.1971 20.0266 36.5761 20.3356L35.3053 19.1059C35.1738 18.9785 35.0177 18.8775 34.8458 18.8086C34.6739 18.7397 34.4897 18.7042 34.3037 18.7042C34.1177 18.7042 33.9334 18.7397 33.7616 18.8086C33.5897 18.8775 33.4336 18.9785 33.3021 19.1059L29.6594 22.6311C29.5278 22.7583 29.4234 22.9094 29.3522 23.0758C29.281 23.2421 29.2443 23.4203 29.2443 23.6004C29.2443 23.7804 29.281 23.9587 29.3522 24.125C29.4234 24.2913 29.5278 24.4424 29.6594 24.5697L30.9301 25.7995C30.6109 26.4005 30.3426 27.0255 30.1277 27.6685H28.3334C27.9577 27.6685 27.5973 27.8129 27.3316 28.07C27.066 28.3271 26.9167 28.6758 26.9167 29.0394V34.0253C26.9167 34.3889 27.066 34.7376 27.3316 34.9947C27.5973 35.2518 27.9577 35.3962 28.3334 35.3962H30.1277C30.3425 36.0392 30.6108 36.6643 30.9302 37.2652L29.6594 38.495C29.5278 38.6223 29.4234 38.7734 29.3522 38.9397C29.281 39.106 29.2444 39.2843 29.2444 39.4643C29.2444 39.6444 29.281 39.8226 29.3522 39.9889C29.4234 40.1553 29.5278 40.3064 29.6594 40.4336L33.3021 43.9588C33.4336 44.0861 33.5898 44.1871 33.7616 44.256C33.9335 44.3249 34.1177 44.3604 34.3037 44.3604C34.4898 44.3604 34.674 44.3249 34.8458 44.256C35.0177 44.1871 35.1739 44.0861 35.3054 43.9588L36.5761 42.729C37.1972 43.0379 37.843 43.2976 38.5074 43.5055V45.242C38.5074 45.6056 38.6567 45.9543 38.9224 46.2114C39.188 46.4685 39.5484 46.613 39.9241 46.613H45.0761C45.4519 46.613 45.8122 46.4685 46.0779 46.2114C46.3435 45.9543 46.4928 45.6056 46.4928 45.242V43.5055C47.1572 43.2977 47.8031 43.038 48.4241 42.729L49.6949 43.9587C49.8264 44.0861 49.9825 44.1871 50.1544 44.256C50.3263 44.3249 50.5105 44.3604 50.6965 44.3604C50.8825 44.3604 51.0667 44.3249 51.2386 44.256C51.4105 44.1871 51.5666 44.0861 51.6981 43.9587L55.3408 40.4336C55.4723 40.3063 55.5767 40.1552 55.6479 39.9889C55.7191 39.8225 55.7558 39.6443 55.7558 39.4642C55.7558 39.2842 55.7191 39.1059 55.6479 38.9396C55.5767 38.7733 55.4723 38.6222 55.3408 38.4949L54.07 37.2652C54.3892 36.6642 54.6576 36.0391 54.8724 35.3961H56.6668C57.0425 35.3961 57.4028 35.2517 57.6685 34.9946C57.9342 34.7375 58.0834 34.3888 58.0834 34.0252V29.0394ZM55.2501 32.6542H54.7576C54.1812 32.6584 53.6213 32.8407 53.1595 33.1745C52.6977 33.5084 52.3583 33.9762 52.1906 34.5099C52.0157 35.0413 51.7942 35.5573 51.5286 36.0522C51.2559 36.5446 51.1531 37.1086 51.2354 37.6616C51.3177 38.2146 51.5806 38.7275 51.9858 39.1255L52.3358 39.4642L50.6964 41.0508L50.3464 40.712C49.9354 40.3198 49.4054 40.0652 48.8341 39.9856C48.2627 39.9059 47.68 40.0055 47.1714 40.2696C46.6596 40.5265 46.1262 40.7408 45.5769 40.9102C45.0255 41.0725 44.542 41.401 44.1971 41.8479C43.8521 42.2948 43.6638 42.8366 43.6594 43.3944V43.871H41.3407V43.3944C41.3364 42.8366 41.148 42.2948 40.8031 41.8479C40.4581 41.401 39.9747 41.0725 39.4232 40.9102C38.8741 40.7409 38.3409 40.5266 37.8295 40.2696C37.3206 40.0057 36.7379 39.9063 36.1665 39.9859C35.5951 40.0655 35.065 40.32 34.6538 40.712L34.3037 41.0508L32.6643 39.4642L33.0143 39.1255C33.4195 38.7277 33.6825 38.2148 33.7647 37.6619C33.847 37.109 33.7443 36.5452 33.4716 36.0529C33.2061 35.5577 32.9846 35.0415 32.8096 34.5099C32.6419 33.9762 32.3024 33.5084 31.8406 33.1746C31.3789 32.8408 30.819 32.6585 30.2426 32.6543H29.7501V30.4104H30.2426C30.8189 30.4062 31.3789 30.2239 31.8406 29.8901C32.3024 29.5563 32.6419 29.0884 32.8096 28.5547C32.9845 28.0233 33.2059 27.5073 33.4716 27.0124C33.7443 26.52 33.847 25.956 33.7648 25.403C33.6825 24.8501 33.4195 24.3371 33.0143 23.9391L32.6643 23.6004L34.3037 22.0139L34.6537 22.3526C35.0647 22.7449 35.5947 22.9995 36.1661 23.0792C36.7374 23.1588 37.3201 23.0592 37.8288 22.7951C38.3405 22.5381 38.8739 22.3238 39.4232 22.1544C39.9747 21.9922 40.4581 21.6636 40.8031 21.2167C41.148 20.7699 41.3364 20.228 41.3407 19.6702V19.1936H43.6594V19.6702C43.6637 20.228 43.8521 20.7698 44.1971 21.2167C44.542 21.6636 45.0254 21.9921 45.5769 22.1544C46.126 22.3237 46.6592 22.538 47.1706 22.795C47.6794 23.0591 48.2622 23.1586 48.8337 23.0789C49.4051 22.9993 49.9352 22.7448 50.3464 22.3526L50.6964 22.0138L52.3358 23.6004L51.9858 23.9391C51.5806 24.3369 51.3177 24.8498 51.2354 25.4027C51.1531 25.9556 51.2559 26.5194 51.5286 27.0117C51.7941 27.5069 52.0155 28.0231 52.1905 28.5547C52.3582 29.0884 52.6977 29.5562 53.1595 29.89C53.6213 30.2239 54.1812 30.4062 54.7575 30.4103H55.2501V32.6542Z"/>
</mask>
<path d="M58.0834 29.0394C58.0834 28.6758 57.9342 28.3271 57.6685 28.07C57.4028 27.8129 57.0425 27.6684 56.6668 27.6684H54.8724C54.6577 27.0254 54.3893 26.4004 54.07 25.7994L55.3407 24.5697C55.4723 24.4424 55.5767 24.2913 55.6479 24.125C55.7191 23.9586 55.7558 23.7804 55.7558 23.6003C55.7558 23.4203 55.7191 23.242 55.6479 23.0757C55.5767 22.9094 55.4723 22.7583 55.3407 22.631L51.698 19.1059C51.5665 18.9785 51.4104 18.8775 51.2385 18.8086C51.0667 18.7397 50.8825 18.7042 50.6964 18.7042C50.5104 18.7042 50.3262 18.7397 50.1543 18.8086C49.9824 18.8775 49.8263 18.9785 49.6948 19.1059L48.424 20.3356C47.803 20.0267 47.1571 19.767 46.4927 19.5591V17.8226C46.4927 17.459 46.3435 17.1103 46.0778 16.8532C45.8121 16.5961 45.4518 16.4517 45.076 16.4517H39.9241C39.5483 16.4517 39.188 16.5961 38.9223 16.8532C38.6566 17.1103 38.5074 17.459 38.5074 17.8226V19.5591C37.843 19.7669 37.1971 20.0266 36.5761 20.3356L35.3053 19.1059C35.1738 18.9785 35.0177 18.8775 34.8458 18.8086C34.6739 18.7397 34.4897 18.7042 34.3037 18.7042C34.1177 18.7042 33.9334 18.7397 33.7616 18.8086C33.5897 18.8775 33.4336 18.9785 33.3021 19.1059L29.6594 22.6311C29.5278 22.7583 29.4234 22.9094 29.3522 23.0758C29.281 23.2421 29.2443 23.4203 29.2443 23.6004C29.2443 23.7804 29.281 23.9587 29.3522 24.125C29.4234 24.2913 29.5278 24.4424 29.6594 24.5697L30.9301 25.7995C30.6109 26.4005 30.3426 27.0255 30.1277 27.6685H28.3334C27.9577 27.6685 27.5973 27.8129 27.3316 28.07C27.066 28.3271 26.9167 28.6758 26.9167 29.0394V34.0253C26.9167 34.3889 27.066 34.7376 27.3316 34.9947C27.5973 35.2518 27.9577 35.3962 28.3334 35.3962H30.1277C30.3425 36.0392 30.6108 36.6643 30.9302 37.2652L29.6594 38.495C29.5278 38.6223 29.4234 38.7734 29.3522 38.9397C29.281 39.106 29.2444 39.2843 29.2444 39.4643C29.2444 39.6444 29.281 39.8226 29.3522 39.9889C29.4234 40.1553 29.5278 40.3064 29.6594 40.4336L33.3021 43.9588C33.4336 44.0861 33.5898 44.1871 33.7616 44.256C33.9335 44.3249 34.1177 44.3604 34.3037 44.3604C34.4898 44.3604 34.674 44.3249 34.8458 44.256C35.0177 44.1871 35.1739 44.0861 35.3054 43.9588L36.5761 42.729C37.1972 43.0379 37.843 43.2976 38.5074 43.5055V45.242C38.5074 45.6056 38.6567 45.9543 38.9224 46.2114C39.188 46.4685 39.5484 46.613 39.9241 46.613H45.0761C45.4519 46.613 45.8122 46.4685 46.0779 46.2114C46.3435 45.9543 46.4928 45.6056 46.4928 45.242V43.5055C47.1572 43.2977 47.8031 43.038 48.4241 42.729L49.6949 43.9587C49.8264 44.0861 49.9825 44.1871 50.1544 44.256C50.3263 44.3249 50.5105 44.3604 50.6965 44.3604C50.8825 44.3604 51.0667 44.3249 51.2386 44.256C51.4105 44.1871 51.5666 44.0861 51.6981 43.9587L55.3408 40.4336C55.4723 40.3063 55.5767 40.1552 55.6479 39.9889C55.7191 39.8225 55.7558 39.6443 55.7558 39.4642C55.7558 39.2842 55.7191 39.1059 55.6479 38.9396C55.5767 38.7733 55.4723 38.6222 55.3408 38.4949L54.07 37.2652C54.3892 36.6642 54.6576 36.0391 54.8724 35.3961H56.6668C57.0425 35.3961 57.4028 35.2517 57.6685 34.9946C57.9342 34.7375 58.0834 34.3888 58.0834 34.0252V29.0394ZM55.2501 32.6542H54.7576C54.1812 32.6584 53.6213 32.8407 53.1595 33.1745C52.6977 33.5084 52.3583 33.9762 52.1906 34.5099C52.0157 35.0413 51.7942 35.5573 51.5286 36.0522C51.2559 36.5446 51.1531 37.1086 51.2354 37.6616C51.3177 38.2146 51.5806 38.7275 51.9858 39.1255L52.3358 39.4642L50.6964 41.0508L50.3464 40.712C49.9354 40.3198 49.4054 40.0652 48.8341 39.9856C48.2627 39.9059 47.68 40.0055 47.1714 40.2696C46.6596 40.5265 46.1262 40.7408 45.5769 40.9102C45.0255 41.0725 44.542 41.401 44.1971 41.8479C43.8521 42.2948 43.6638 42.8366 43.6594 43.3944V43.871H41.3407V43.3944C41.3364 42.8366 41.148 42.2948 40.8031 41.8479C40.4581 41.401 39.9747 41.0725 39.4232 40.9102C38.8741 40.7409 38.3409 40.5266 37.8295 40.2696C37.3206 40.0057 36.7379 39.9063 36.1665 39.9859C35.5951 40.0655 35.065 40.32 34.6538 40.712L34.3037 41.0508L32.6643 39.4642L33.0143 39.1255C33.4195 38.7277 33.6825 38.2148 33.7647 37.6619C33.847 37.109 33.7443 36.5452 33.4716 36.0529C33.2061 35.5577 32.9846 35.0415 32.8096 34.5099C32.6419 33.9762 32.3024 33.5084 31.8406 33.1746C31.3789 32.8408 30.819 32.6585 30.2426 32.6543H29.7501V30.4104H30.2426C30.8189 30.4062 31.3789 30.2239 31.8406 29.8901C32.3024 29.5563 32.6419 29.0884 32.8096 28.5547C32.9845 28.0233 33.2059 27.5073 33.4716 27.0124C33.7443 26.52 33.847 25.956 33.7648 25.403C33.6825 24.8501 33.4195 24.3371 33.0143 23.9391L32.6643 23.6004L34.3037 22.0139L34.6537 22.3526C35.0647 22.7449 35.5947 22.9995 36.1661 23.0792C36.7374 23.1588 37.3201 23.0592 37.8288 22.7951C38.3405 22.5381 38.8739 22.3238 39.4232 22.1544C39.9747 21.9922 40.4581 21.6636 40.8031 21.2167C41.148 20.7699 41.3364 20.228 41.3407 19.6702V19.1936H43.6594V19.6702C43.6637 20.228 43.8521 20.7698 44.1971 21.2167C44.542 21.6636 45.0254 21.9921 45.5769 22.1544C46.126 22.3237 46.6592 22.538 47.1706 22.795C47.6794 23.0591 48.2622 23.1586 48.8337 23.0789C49.4051 22.9993 49.9352 22.7448 50.3464 22.3526L50.6964 22.0138L52.3358 23.6004L51.9858 23.9391C51.5806 24.3369 51.3177 24.8498 51.2354 25.4027C51.1531 25.9556 51.2559 26.5194 51.5286 27.0117C51.7941 27.5069 52.0155 28.0231 52.1905 28.5547C52.3582 29.0884 52.6977 29.5562 53.1595 29.89C53.6213 30.2239 54.1812 30.4062 54.7575 30.4103H55.2501V32.6542Z" fill="white" stroke="white" mask="url(#path-1-inside-1_29_103)"/>
<path d="M42.4999 37.2658H42.5002C44.0662 37.2641 45.5691 36.6614 46.6788 35.5875C47.7888 34.5133 48.4148 33.0551 48.4166 31.5323V31.532C48.4166 30.396 48.0685 29.2864 47.4173 28.3432C46.7662 27.4002 45.8417 26.6665 44.7615 26.2335C43.6814 25.8005 42.4933 25.6873 41.3472 25.908C40.201 26.1286 39.1471 26.6734 38.3191 27.4746C37.4911 28.276 36.9262 29.2979 36.6973 30.4118C36.4683 31.5257 36.5859 32.6802 37.0348 33.7289C37.4836 34.7776 38.2431 35.6725 39.2159 36.3016C40.1887 36.9306 41.3315 37.2658 42.4999 37.2658ZM37.9133 24.9024C39.2702 24.025 40.8663 23.5562 42.4998 23.5562C44.6897 23.5585 46.7877 24.4015 48.3338 25.8977C49.8796 27.3937 50.7476 29.4203 50.7499 31.5322C50.7499 33.1077 50.2671 34.6486 49.3617 35.9599C48.4561 37.2715 47.1682 38.2949 45.6597 38.8996C44.1512 39.5042 42.4908 39.6626 40.8889 39.3542C39.287 39.0459 37.8167 38.2849 36.6634 37.1688C35.5102 36.0528 34.7258 34.632 34.4081 33.0864C34.0904 31.5409 34.2534 29.9388 34.8768 28.4825C35.5002 27.026 36.5565 25.7798 37.9133 24.9024Z" fill="white" stroke="white" stroke-width="0.5"/>
<path d="M84.6567 83.19L84.6568 83.1901C84.732 83.3598 84.7623 83.5446 84.7455 83.7278C84.7286 83.9112 84.6649 84.0882 84.5595 84.2429C84.4541 84.3977 84.31 84.5256 84.1395 84.6144C83.9691 84.7032 83.7779 84.75 83.5834 84.7499H1.41661C1.22207 84.75 1.03095 84.7032 0.860473 84.6144C0.690026 84.5256 0.545928 84.3977 0.440482 84.2429C0.335069 84.0882 0.271407 83.9112 0.254534 83.7279C0.237662 83.5445 0.268021 83.3598 0.343247 83.1901L0.343277 83.19L8.84329 63.9965L8.84332 63.9964C8.93216 63.7956 9.08054 63.6232 9.27129 63.5015C9.46213 63.3797 9.68651 63.3144 9.91655 63.3145H9.91662H26.6666V65.5564H10.8505H10.6878L10.6219 65.7052L3.33654 82.1568L3.181 82.508H3.56513H81.4349H81.819L81.6635 82.1568L74.3781 65.7052L74.3122 65.5564H74.1495H58.3334V63.3145H75.0834C75.3135 63.3144 75.5379 63.3797 75.7287 63.5015C75.9195 63.6232 76.0678 63.7956 76.1567 63.9964L76.1567 63.9965L84.6567 83.19Z" fill="white" stroke="white" stroke-width="0.5"/>
<path d="M38.5 50.9761H40.8334V58.7019H38.5V50.9761Z" fill="white" stroke="white" stroke-width="0.5"/>
<path d="M38.5 61.9438H40.8334V64.1858H38.5V61.9438Z" fill="#C6211C" stroke="white" stroke-width="0.5"/>
<path d="M38.5 67.4277H40.8334V73.7826H38.5V67.4277Z" fill="white" stroke="white" stroke-width="0.5"/>
<path d="M44.1667 50.9761H46.5001V60.0728H44.1667V50.9761Z" fill="white" stroke="white" stroke-width="0.5"/>
<path d="M44.1667 63.3145H46.5001V73.7822H44.1667V63.3145Z" fill="white" stroke="white" stroke-width="0.5"/>
<path d="M49.8333 53.7178H52.1667V65.5565H49.8333V53.7178Z" fill="white" stroke="white" stroke-width="0.5"/>
<path d="M32.8333 68.7983H35.1667V71.0403H32.8333V68.7983Z" fill="#C6211C" stroke="white" stroke-width="0.5"/>
<path d="M32.8333 52.3467H35.1667V65.5564H32.8333V52.3467Z" fill="white" stroke="white" stroke-width="0.5"/>
<path d="M49.8333 68.7983H52.1667V71.0403H49.8333V68.7983Z" fill="#C6211C" stroke="white" stroke-width="0.5"/>
<path d="M69.6667 15.0805V14.8305H69.4167H65.1667C64.8547 14.8305 64.557 14.7105 64.3388 14.4993C64.1209 14.2884 64 14.0042 64 13.7096V5.48376C64 5.18916 64.1209 4.90489 64.3388 4.69399C64.557 4.48282 64.8547 4.36279 65.1667 4.36279H73.6667C73.9787 4.36279 74.2764 4.48282 74.4946 4.69399C74.7125 4.90489 74.8334 5.18916 74.8334 5.48376V9.59666V9.84666H75.0834H82.1667C82.4787 9.84666 82.7764 9.96669 82.9946 10.1779C83.2125 10.3888 83.3334 10.673 83.3334 10.9676V21.9354C83.3334 22.23 83.2125 22.5142 82.9946 22.7251C82.7764 22.9363 82.4787 23.0563 82.1667 23.0563H75.0834H74.8334V23.3063V26.0483C74.8334 26.3429 74.7125 26.6271 74.4946 26.838C74.2764 27.0492 73.9787 27.1692 73.6667 27.1692H66.5833C66.2713 27.1692 65.9737 27.0492 65.7555 26.838C65.5375 26.6271 65.4167 26.3429 65.4167 26.0483V19.1934C65.4167 18.8988 65.5375 18.6146 65.7555 18.4037C65.9737 18.1925 66.2713 18.0725 66.5833 18.0725H69.4167H69.6667V17.8225V15.0805ZM66.3333 12.3386V12.5886H66.5833H69.4167H69.6667V12.3386V10.9676C69.6667 10.673 69.7875 10.3888 70.0055 10.1779C70.2237 9.96669 70.5213 9.84666 70.8333 9.84666H72.25H72.5V9.59666V6.85473V6.60473H72.25H66.5833H66.3333V6.85473V12.3386ZM72.25 24.9273H72.5V24.6773V23.3063V23.0563H72.25H70.8333C70.5213 23.0563 70.2237 22.9363 70.0055 22.7251C69.7875 22.5142 69.6667 22.23 69.6667 21.9354V20.5644V20.3144H69.4167H68H67.75V20.5644V24.6773V24.9273H68H72.25ZM81 12.3386V12.0886H80.75H72.25H72V12.3386V20.5644V20.8144H72.25H80.75H81V20.5644V12.3386Z" fill="#C6211C" stroke="white" stroke-width="0.5"/>
<path d="M39.6666 2.49194H39.4166V2.74194V8.22581V8.47581H39.6666H45.3333H45.5833V8.22581V2.74194V2.49194H45.3333H39.6666ZM47.5778 10.3865C47.3596 10.5977 47.062 10.7177 46.75 10.7177H38.25C37.9379 10.7177 37.6403 10.5977 37.4221 10.3865C37.2041 10.1756 37.0833 9.89138 37.0833 9.59677V1.37097C37.0833 1.07636 37.2041 0.792099 37.4221 0.581198C37.6403 0.370027 37.9379 0.25 38.25 0.25H46.75C47.062 0.25 47.3596 0.370027 47.5778 0.581198C47.7958 0.792099 47.9166 1.07636 47.9166 1.37097V9.59677C47.9166 9.89138 47.7958 10.1756 47.5778 10.3865Z" fill="white" stroke="white" stroke-width="0.5"/>
<path d="M12.75 35.3952H12.5V35.6452V39.7581C12.5 40.0527 12.3791 40.337 12.1612 40.5479C11.943 40.7591 11.6453 40.8791 11.3333 40.8791H2.83328C2.52126 40.8791 2.22361 40.7591 2.0054 40.5479C1.78747 40.337 1.66661 40.0527 1.66661 39.7581V31.5323C1.66661 31.2377 1.78747 30.9535 2.0054 30.7426L1.83467 30.5661L2.0054 30.7425C2.22361 30.5314 2.52126 30.4114 2.83328 30.4114H7.08329H7.33329V30.1614V23.3065C7.33329 23.0119 7.45414 22.7276 7.67207 22.5167C7.89028 22.3056 8.18794 22.1855 8.49995 22.1855H19.8333C20.1453 22.1855 20.443 22.3056 20.6612 22.5167C20.8791 22.7276 21 23.0119 21 23.3065V34.2743C21 34.5689 20.8791 34.8531 20.6612 35.064C20.443 35.2752 20.1453 35.3952 19.8333 35.3952H12.75ZM9.91662 24.4275H9.66662V24.6775V32.9033V33.1533H9.91662H18.4166H18.6666V32.9033V24.6775V24.4275H18.4166H9.91662ZM4.24995 32.6533H3.99995V32.9033V38.3872V38.6372H4.24995H9.91662H10.1666V38.3872V35.6452V35.3952H9.91662H8.49995C8.18794 35.3952 7.89028 35.2752 7.67207 35.064C7.45414 34.8531 7.33329 34.5689 7.33329 34.2743V32.9033V32.6533H7.08329H4.24995Z" fill="white" stroke="white" stroke-width="0.5"/>
<path d="M10.5055 17.2412L10.3316 17.4208L10.5055 17.2412C10.2876 17.0303 10.1667 16.746 10.1667 16.4514V9.59655C10.1667 9.30195 10.2876 9.01769 10.5055 8.80678C10.7237 8.59561 11.0214 8.47559 11.3334 8.47559H18.4167C18.7287 8.47559 19.0264 8.59561 19.2446 8.80678L19.4165 8.6292L19.2446 8.80678C19.4625 9.01769 19.5834 9.30195 19.5834 9.59655V16.4514C19.5834 16.746 19.4625 17.0303 19.2446 17.2412C19.0264 17.4523 18.7287 17.5724 18.4167 17.5724H11.3334C11.0214 17.5724 10.7237 17.4523 10.5055 17.2412ZM12.75 10.7175H12.5V10.9675V15.0804V15.3304H12.75H17H17.25V15.0804V10.9675V10.7175H17H12.75Z" fill="#C6211C" stroke="white" stroke-width="0.5"/>
<path d="M68 46.8628H68.25V46.6128V43.8708V43.6208H68H65.1667H64.9167V43.8708V46.6128V46.8628H65.1667H68ZM62.9222 41.7101C63.1404 41.4989 63.438 41.3789 63.75 41.3789H69.4167C69.7287 41.3789 70.0264 41.4989 70.2446 41.7101C70.4625 41.921 70.5834 42.2053 70.5834 42.4999V47.9837C70.5834 48.2784 70.4625 48.5626 70.2446 48.7735C70.0264 48.9847 69.7287 49.1047 69.4167 49.1047H63.75C63.438 49.1047 63.1404 48.9847 62.9222 48.7735C62.7042 48.5626 62.5834 48.2784 62.5834 47.9837V42.4999C62.5834 42.2053 62.7042 41.921 62.9222 41.7101Z" fill="white" stroke="white" stroke-width="0.5"/>
<path d="M13.7316 69.6697H13.5603L13.4985 69.8293L10.311 78.0551L10.1791 78.3955H10.5441H74.456H74.821L74.6891 78.0551L71.5016 69.8293L71.4398 69.6697H71.2685H61.1667V67.4277H72.25C72.4894 67.4278 72.7224 67.4985 72.9179 67.6296C73.1132 67.7606 73.2613 67.9452 73.3437 68.1578L77.5937 79.1254C77.659 79.2941 77.681 79.4753 77.6581 79.6537C77.6352 79.832 77.5678 80.003 77.4613 80.1518C77.3546 80.3006 77.2117 80.4231 77.0443 80.508C76.8768 80.5928 76.69 80.6374 76.5001 80.6374H8.50001C8.50001 80.6374 8.5 80.6374 8.5 80.6374C8.31008 80.6374 8.12333 80.5928 7.95583 80.508C7.78835 80.4231 7.64546 80.3006 7.53884 80.1518C7.43225 80.003 7.36494 79.832 7.342 79.6537C7.31906 79.4753 7.34107 79.2941 7.40639 79.1254L11.6563 68.1578C11.7388 67.9452 11.8869 67.7606 12.0822 67.6296C12.2776 67.4985 12.5106 67.4278 12.75 67.4277C12.75 67.4277 12.75 67.4277 12.75 67.4277H23.8334V69.6697H13.7316Z" fill="white" stroke="white" stroke-width="0.5"/>
</svg>
