<svg width="85" height="85" viewBox="0 0 85 85" fill="none" xmlns="http://www.w3.org/2000/svg">
<path d="M76.5242 45.9685V46.0884L76.6176 46.1634C81.5697 50.1422 84.75 56.2357 84.75 63.0645C84.75 75.0211 75.0211 84.75 63.0645 84.75C51.5666 84.75 42.1533 75.7454 41.4485 64.42L41.4339 64.1855H41.199H0.25V9.84677H65.8064H66.0564V9.59677C66.0564 4.44426 70.2494 0.25 75.4032 0.25C80.5571 0.25 84.75 4.44426 84.75 9.59677C84.75 14.2945 81.2614 18.1848 76.7385 18.8364L76.5242 18.8673V19.0839V45.9685ZM2.74194 12.0887H2.49194V12.3387V61.6936V61.9436H2.74194H41.199H41.4339L41.4485 61.709C41.5056 60.7875 41.6073 59.881 41.775 58.9983L41.8313 58.7016H41.5294H38.6371V42.75H46.3629V48.6049V49.2676L46.8006 48.7701C50.7781 44.2489 56.587 41.379 63.0645 41.379C67.016 41.379 70.7115 42.4589 73.9067 44.3147L74.2823 44.5329V44.0985V19.0852V18.8688L74.068 18.8378C72.4886 18.6095 71.0388 17.9888 69.8171 17.0728L69.6436 16.9428L69.4903 17.096L61.1041 25.4809L60.9788 25.6062L61.0556 25.766C61.299 26.2722 61.4436 26.8276 61.4436 27.4194C61.4436 29.5489 59.7102 31.2823 57.5806 31.2823C55.4511 31.2823 53.7177 29.5489 53.7177 27.4194C53.7177 26.8276 53.8623 26.272 54.1047 25.7639L54.1807 25.6045L54.0558 25.4795L51.2933 22.717L51.168 22.5917L51.0082 22.6685C50.502 22.9119 49.9466 23.0565 49.3548 23.0565C48.7631 23.0565 48.2075 22.9119 47.6994 22.6695L47.5399 22.5934L47.415 22.7184L40.5396 29.5938L40.4142 29.7191L40.4911 29.8789C40.7345 30.3851 40.879 30.9405 40.879 31.5323C40.879 33.6618 39.1456 35.3952 37.0161 35.3952C34.8866 35.3952 33.1532 33.6618 33.1532 31.5323C33.1532 29.4027 34.8866 27.6694 37.0161 27.6694C37.6078 27.6694 38.1635 27.8139 38.6716 28.0563L38.831 28.1324L38.956 28.0074L45.8314 21.132L45.9567 21.0067L45.8799 20.8469C45.6365 20.3407 45.4919 19.7853 45.4919 19.1935C45.4919 17.064 47.2253 15.3306 49.3548 15.3306C51.4843 15.3306 53.2177 17.064 53.2177 19.1935C53.2177 19.7853 53.0732 20.3409 52.8308 20.849L52.7547 21.0084L52.8797 21.1334L55.6422 23.8959L55.7675 24.0212L55.9273 23.9444C56.4335 23.701 56.9889 23.5565 57.5806 23.5565C58.1723 23.5565 58.7278 23.701 59.2356 23.9445L59.3953 24.0211L59.5205 23.8959L67.9053 15.5111L68.0585 15.3579L67.9287 15.1845C67.2764 14.3129 66.7692 13.3315 66.4504 12.267L66.397 12.0887H66.2109H2.74194ZM44.0896 52.5895L44.121 52.533V52.4683V45.2419V44.9919H43.871H41.129H40.879V45.2419V56.2097V56.4597H41.129H42.2409H42.4217L42.4783 56.288C42.9041 54.9971 43.4408 53.7598 44.0896 52.5895ZM61.9436 43.9409V43.6725L61.6758 43.6915C51.6028 44.4081 43.621 52.8114 43.621 63.0645C43.621 66.1084 44.3435 68.9809 45.5958 71.5467L45.7134 71.7875L45.9455 71.6535L50.7014 68.9075L50.8974 68.7943L50.8042 68.588C50.0407 66.8994 49.6048 65.0329 49.6048 63.0645C49.6048 56.0983 54.9268 50.3519 61.7184 49.6735L61.9436 49.651V49.4248V43.9409ZM47.0527 73.6033L46.8199 73.7377L46.9709 73.9602C50.4701 79.1146 56.3781 82.5081 63.0645 82.5081C69.751 82.5081 75.6589 79.1146 79.1581 73.9602L79.3092 73.7377L79.0763 73.6033L74.3012 70.8462L74.1057 70.7333L73.9735 70.9164C71.5256 74.3069 67.5536 76.5242 63.0645 76.5242C58.5755 76.5242 54.6035 74.3069 52.1555 70.9164L52.0233 70.7333L51.8278 70.8462L47.0527 73.6033ZM80.1835 71.6535L80.4156 71.7875L80.5332 71.5467C81.7856 68.9809 82.5081 66.1084 82.5081 63.0645C82.5081 52.8114 74.5263 44.4081 64.4532 43.6915L64.1855 43.6725V43.9409V49.4248V49.6511L64.4107 49.6735C71.2022 50.3505 76.5242 56.0983 76.5242 63.0645C76.5242 65.0329 76.0883 66.8994 75.3249 68.588L75.2316 68.7943L75.4277 68.9075L80.1835 71.6535ZM82.5081 9.59677C82.5081 5.67895 79.3211 2.49194 75.4032 2.49194C71.4854 2.49194 68.2984 5.67894 68.2984 9.59677C68.2984 13.5146 71.4854 16.7016 75.4032 16.7016C79.3211 16.7016 82.5081 13.5146 82.5081 9.59677ZM59.2016 27.4194C59.2016 26.5243 58.474 25.7984 57.5806 25.7984C56.6873 25.7984 55.9597 26.5243 55.9597 27.4194C55.9597 28.3144 56.6873 29.0403 57.5806 29.0403C58.474 29.0403 59.2016 28.3144 59.2016 27.4194ZM49.3548 17.5726C48.4615 17.5726 47.7339 18.2985 47.7339 19.1935C47.7339 20.0886 48.4615 20.8145 49.3548 20.8145C50.2481 20.8145 50.9758 20.0886 50.9758 19.1935C50.9758 18.2985 50.2481 17.5726 49.3548 17.5726ZM37.0161 33.1532C37.9094 33.1532 38.6371 32.4273 38.6371 31.5323C38.6371 30.6373 37.9094 29.9113 37.0161 29.9113C36.1228 29.9113 35.3952 30.6372 35.3952 31.5323C35.3952 32.4273 36.1228 33.1532 37.0161 33.1532ZM51.8468 63.0645C51.8468 69.2499 56.8791 74.2823 63.0645 74.2823C69.2499 74.2823 74.2823 69.2499 74.2823 63.0645C74.2823 56.8791 69.2499 51.8468 63.0645 51.8468C56.8791 51.8468 51.8468 56.8791 51.8468 63.0645Z" fill="white" stroke="white" stroke-width="0.5"/>
<path d="M55.0887 63.0647C55.0887 58.6662 58.6661 55.0889 63.0645 55.0889C67.463 55.0889 71.0403 58.6662 71.0403 63.0647C71.0403 67.4631 67.463 71.0405 63.0645 71.0405C58.6661 71.0405 55.0887 67.4631 55.0887 63.0647ZM57.3307 63.0647C57.3307 66.2271 59.9021 68.7985 63.0645 68.7985C66.227 68.7985 68.7984 66.2271 68.7984 63.0647C68.7984 59.9022 66.227 57.3308 63.0645 57.3308C59.9021 57.3308 57.3307 59.9022 57.3307 63.0647Z" fill="#C6211C" stroke="white" stroke-width="0.5"/>
<path d="M5.73383 15.3306H7.97576V17.5725H5.73383V15.3306Z" fill="#C6211C" stroke="white" stroke-width="0.5"/>
<path d="M11.2178 15.3306H29.9113V17.5725H11.2178V15.3306Z" fill="#C6211C" stroke="white" stroke-width="0.5"/>
<path d="M5.73383 20.8145H7.97576V23.0564H5.73383V20.8145Z" fill="#C6211C" stroke="white" stroke-width="0.5"/>
<path d="M11.2178 20.8145H29.9113V23.0564H11.2178V20.8145Z" fill="#C6211C" stroke="white" stroke-width="0.5"/>
<path d="M5.73383 26.2983H7.97576V28.5403H5.73383V26.2983Z" fill="#C6211C" stroke="white" stroke-width="0.5"/>
<path d="M11.2178 26.2983H29.9113V28.5403H11.2178V26.2983Z" fill="#C6211C" stroke="white" stroke-width="0.5"/>
<path d="M5.73383 31.7822H7.97576V34.0242H5.73383V31.7822Z" fill="#C6211C" stroke="white" stroke-width="0.5"/>
<path d="M11.2178 31.7822H29.9113V34.0242H11.2178V31.7822Z" fill="#C6211C" stroke="white" stroke-width="0.5"/>
<path d="M8.22576 47.7341H7.97576V47.9841V56.2099V56.4599H8.22576H10.9677H11.2177V56.2099V47.9841V47.7341H10.9677H8.22576ZM13.4596 45.4922V58.7019H5.73383V45.4922H13.4596Z" fill="white" stroke="white" stroke-width="0.5"/>
<path d="M19.1935 50.4758H18.9435V50.7258V56.2097V56.4597H19.1935H21.9355H22.1855V56.2097V50.7258V50.4758H21.9355H19.1935ZM24.4274 48.2339V58.7016H16.7016V48.2339H24.4274Z" fill="white" stroke="white" stroke-width="0.5"/>
<path d="M30.1613 39.508H29.9113V39.758V56.2097V56.4597H30.1613H32.9032H33.1532V56.2097V39.758V39.508H32.9032H30.1613ZM35.3952 37.2661V58.7016H27.6694V37.2661H35.3952Z" fill="white" stroke="white" stroke-width="0.5"/>
</svg>
