<svg width="80" height="85" viewBox="0 0 80 85" fill="none" xmlns="http://www.w3.org/2000/svg">
<mask id="path-1-inside-1_29_123" fill="white">
<path d="M50.6103 76.1494L51.0519 83.3151C51.0886 83.9084 50.6561 84.4312 50.0544 84.5199C47.8998 84.8385 45.6945 85 43.5015 85C41.3109 85 39.1063 84.8385 36.9493 84.5199C36.3476 84.4312 35.9145 83.9084 35.9512 83.3154L36.3292 77.1626C31.7221 76.2603 27.4112 74.5145 23.4866 71.961L19.3028 76.5729C18.8994 77.0166 18.2151 77.0885 17.7259 76.7356C14.1865 74.1887 11.0688 71.1425 8.45878 67.6816C8.09752 67.2033 8.1694 66.5351 8.62496 66.1406L13.3439 62.054C10.7306 58.2205 8.9434 54.0084 8.01952 49.5052L1.7237 49.8754C1.12353 49.9116 0.582496 49.4888 0.490568 48.9006C0.165335 46.7968 0 44.6431 0 42.4987C0 40.3546 0.165335 38.2009 0.490568 36.0968C0.581647 35.5086 1.11589 35.0763 1.7237 35.122L8.02105 35.4922C8.94493 30.9905 10.7315 26.778 13.3447 22.9446L8.62496 18.8569C8.17025 18.4625 8.09752 17.7943 8.4581 17.316C11.0652 13.8584 14.1828 10.8125 17.7252 8.26201C18.2151 7.90939 18.8994 7.98078 19.3021 8.4247L23.4875 13.0369C27.4356 10.4745 31.9141 8.67705 36.5542 7.79235L36.0475 1.69344C35.9977 1.09064 36.4341 0.553413 37.0465 0.464428C41.3039 -0.154809 45.699 -0.154809 49.9564 0.464428C50.5688 0.553413 51.005 1.0908 50.9554 1.69344L50.3613 8.83227C50.3093 9.46496 49.7352 9.93611 49.0945 9.88414C48.447 9.83251 47.9647 9.27836 48.0176 8.64617L48.5212 2.59275C45.1946 2.19713 41.8082 2.19713 38.4817 2.59275L38.9846 8.64567C39.0344 9.242 38.6065 9.77607 38.0026 9.87252C32.9875 10.6727 28.1369 12.6171 23.9751 15.4951C23.4853 15.834 22.8132 15.7573 22.4168 15.3198L18.265 10.7441C15.5478 12.8087 13.1097 15.1905 10.9988 17.8431L15.6817 21.899C16.1303 22.2878 16.2076 22.9441 15.8616 23.4224C12.9223 27.4798 10.9996 32.012 10.1468 36.8932C10.045 37.4709 9.50992 37.8818 8.91757 37.8463L2.66932 37.4791C2.45811 39.1371 2.35174 40.8211 2.35174 42.4989C2.35174 44.177 2.45811 45.8609 2.66932 47.5187L8.91536 47.1515C9.50788 47.1126 10.0436 47.5273 10.1446 48.1046C10.9981 52.9872 12.9216 57.5198 15.861 61.5765C16.2069 62.0548 16.1296 62.7109 15.681 63.0999L10.9996 67.1547C13.1123 69.8099 15.5502 72.1914 18.2652 74.2535L22.4169 69.6778C22.8134 69.2395 23.4854 69.1633 23.9753 69.502C28.1294 72.374 32.768 74.2527 37.7639 75.0861C38.3549 75.1848 38.7751 75.7023 38.7391 76.287L38.3641 82.3912C41.7649 82.8051 45.2461 82.8051 48.6393 82.3912L48.2635 76.2873C48.2244 75.654 48.7182 75.1098 49.3664 75.0718C50.0116 75.0377 50.5712 75.5164 50.6103 76.1494ZM80 42.5299C80 44.3707 78.4668 45.8683 76.583 45.8683C75.1139 45.8683 73.869 44.9526 73.3873 43.6782H47.615V63.9843C47.615 68.1448 44.1506 71.53 39.8917 71.53C36.7726 71.53 34.0276 69.7442 32.8122 67.0067C32.7632 67.0079 32.715 67.0082 32.6667 67.0082C28.4078 67.0082 24.9434 63.6232 24.9434 59.4625C24.9434 59.2633 24.9519 59.0639 24.9678 58.8653C23.1339 58.5068 21.3971 57.5847 19.9779 56.1975C18.1561 54.418 17.1534 52.0522 17.1534 49.5358C17.1534 47.0193 18.1561 44.6536 19.9779 42.8744C20.1143 42.7409 20.2676 42.6239 20.413 42.499C20.2676 42.374 20.1143 42.257 19.9779 42.1237C18.1561 40.3442 17.1534 37.9784 17.1534 35.4623C17.1534 32.9459 18.1561 30.5801 19.9779 28.8006C21.3971 27.4134 23.1339 26.4913 24.9678 26.1327C24.9517 25.9342 24.9434 25.735 24.9434 25.5356C24.9434 21.3746 28.4078 17.9895 32.6667 17.9895C32.715 17.9895 32.7632 17.9899 32.8122 17.991C34.0276 15.2539 36.7726 13.4681 39.8917 13.4681C44.1506 13.4681 47.615 16.8531 47.615 21.0138V41.3811H73.3876C73.8695 40.1071 75.1142 39.1919 76.583 39.1919C78.4669 39.1917 80 40.6891 80 42.5299ZM21.6406 40.4992C21.9668 40.818 22.3374 41.0977 22.7301 41.3502H45.2636V21.0135C45.2636 18.1193 42.8539 15.7652 39.8918 15.7652C37.917 15.7652 36.1588 16.7935 35.2203 18.4125C36.1717 18.7379 37.0551 19.2449 37.819 19.9135C37.828 19.9213 37.831 19.9324 37.8397 19.9404C38.2777 19.7405 38.761 19.6206 39.2757 19.6206C41.1595 19.6206 42.6927 21.1182 42.6927 22.9585C42.6927 24.7993 41.1595 26.2969 39.2757 26.2969C37.3919 26.2969 35.8587 24.7993 35.8587 22.9585C35.8587 22.4608 35.9783 21.9926 36.1792 21.568C35.204 20.7426 33.9612 20.2865 32.6667 20.2865C29.7044 20.2865 27.2949 22.6411 27.2949 25.5353C27.2949 25.7009 27.3106 25.8656 27.3264 26.0301C28.7192 26.1708 30.0519 26.6002 31.2526 27.3033C31.7792 26.9789 32.3977 26.7837 33.0648 26.7837C34.9486 26.7837 36.4818 28.2813 36.4818 30.1221C36.4818 31.9625 34.9486 33.46 33.0648 33.46C31.1811 33.46 29.6479 31.9624 29.6479 30.1221C29.6479 29.7844 29.7148 29.4647 29.8106 29.1572C28.7524 28.5876 27.5751 28.2765 26.3469 28.2727C24.6397 28.3642 22.969 29.1263 21.6406 30.4246C20.2635 31.7703 19.505 33.5591 19.505 35.462C19.505 37.3647 20.2637 39.1535 21.6406 40.4992ZM31.9993 30.1223C31.9993 30.6962 32.4769 31.1628 33.0647 31.1628C33.6526 31.1628 34.1301 30.6962 34.1301 30.1223C34.1301 29.5483 33.6524 29.0813 33.0647 29.0813C32.4769 29.0812 31.9993 29.5482 31.9993 30.1223ZM39.2755 23.9996C39.8635 23.9996 40.341 23.5326 40.341 22.9587C40.341 22.3848 39.8633 21.9181 39.2755 21.9181C38.6878 21.9181 38.2101 22.3848 38.2101 22.9587C38.2101 23.5326 38.6878 23.9996 39.2755 23.9996ZM45.2636 63.9843V43.6475H22.7092C22.3226 43.8974 21.9636 44.1829 21.6407 44.4985C20.2637 45.8439 19.5051 47.6327 19.5051 49.5356C19.5051 51.4385 20.2637 53.2273 21.6407 54.573C22.9692 55.8713 24.6399 56.6334 26.3471 56.7249C27.5556 56.7211 28.7165 56.4216 29.7624 55.8689C29.6948 55.6075 29.648 55.3382 29.648 55.0565C29.648 53.2157 31.1812 51.718 33.065 51.718C34.9488 51.718 36.482 53.2157 36.482 55.0565C36.482 56.8972 34.9488 58.3949 33.065 58.3949C32.3321 58.3949 31.6562 58.1634 31.099 57.7779C29.9381 58.4297 28.6608 58.8328 27.3267 58.9676C27.3109 59.1321 27.2953 59.2968 27.2953 59.4625C27.2953 62.3567 29.7049 64.7107 32.667 64.7107C33.9347 64.7107 35.1503 64.2723 36.116 63.4802C35.9525 63.0908 35.8591 62.6661 35.8591 62.2197C35.8591 60.3789 37.3923 58.8813 39.276 58.8813C41.1598 58.8813 42.693 60.3789 42.693 62.2197C42.693 64.0605 41.1598 65.5581 39.276 65.5581C38.7092 65.5581 38.1824 65.4097 37.7112 65.17C36.9719 65.794 36.1289 66.2746 35.2207 66.5849C36.1591 68.2044 37.9173 69.2327 39.8922 69.2327C42.8541 69.2327 45.2636 66.8784 45.2636 63.9843ZM39.2755 63.2608C39.8635 63.2608 40.341 62.7938 40.341 62.2199C40.341 61.6459 39.8633 61.1789 39.2755 61.1789C38.6878 61.1789 38.2101 61.6459 38.2101 62.2199C38.2101 62.7938 38.6878 63.2608 39.2755 63.2608ZM33.0648 56.0975C33.6528 56.0975 34.1303 55.6305 34.1303 55.0566C34.1303 54.4827 33.6526 54.0157 33.0648 54.0157C32.4769 54.0157 31.9994 54.4827 31.9994 55.0566C31.9994 55.2492 32.0569 55.4273 32.1505 55.5822C32.1699 55.6046 32.1921 55.6236 32.21 55.6478C32.229 55.6735 32.2412 55.7018 32.2579 55.7285C32.4533 55.9523 32.7405 56.0975 33.0648 56.0975ZM77.6486 42.5299C77.6486 41.956 77.1709 41.489 76.5832 41.489C75.9954 41.489 75.5178 41.956 75.5178 42.5299C75.5178 43.1038 75.9954 43.5708 76.5832 43.5708C77.1709 43.5708 77.6486 43.1038 77.6486 42.5299Z"/>
<path d="M79.2652 29.7798C79.2652 27.939 77.732 26.4414 75.8483 26.4414C73.9645 26.4414 72.4314 27.9388 72.4311 29.7799C72.4311 30.3562 72.5949 30.8904 72.8591 31.3641L70.0812 34.175H54.2466C53.5975 34.175 53.0709 34.6892 53.0709 35.3237C53.0709 35.9582 53.5975 36.4724 54.2466 36.4724H70.5803C70.8996 36.4724 71.2042 36.3455 71.4262 36.1216L74.6231 32.8869C75.0046 33.031 75.4155 33.1182 75.8483 33.1182C77.732 33.1182 79.2652 31.6206 79.2652 29.7798Z"/>
<path d="M75.565 58.8763C77.4488 58.8763 78.982 57.3787 78.982 55.5379C78.982 53.6969 77.4488 52.1995 75.5648 52.1997C75.2838 52.1997 75.0146 52.2425 74.7533 52.3052L71.4262 48.9391C71.2041 48.7152 70.8994 48.5883 70.5803 48.5883H54.2466C53.5975 48.5883 53.0709 49.1025 53.0709 49.737C53.0709 50.3715 53.5975 50.8856 54.2466 50.8856H70.0812L72.7801 53.6163C72.3852 54.1608 72.148 54.8212 72.148 55.5379C72.148 57.3787 73.6812 58.8763 75.565 58.8763Z"/>
<path d="M69.8595 73.0564C71.7432 73.0564 73.2765 71.5587 73.2765 69.7179C73.2765 67.8772 71.7432 66.3795 69.8595 66.3797C69.7585 66.3797 69.6636 66.4005 69.5648 66.4089L64.6598 59.5165C64.4403 59.2078 64.0797 59.0236 63.6947 59.0236H50.7625C50.1134 59.0236 49.5868 59.5377 49.5868 60.1722C49.5868 60.8067 50.1134 61.3209 50.7625 61.3209H63.0799L67.4077 67.402C66.8128 68.0032 66.4425 68.818 66.4425 69.7179C66.4425 71.5587 67.9757 73.0564 69.8595 73.0564Z"/>
<path d="M67.4381 17.2967L63.08 23.4201L50.7625 23.4204C50.1134 23.4204 49.5868 23.9345 49.5868 24.569C49.5868 25.2036 50.1134 25.7177 50.7625 25.7177H63.6947C64.0797 25.7177 64.4401 25.5333 64.6598 25.2248L69.4177 18.5395C69.6518 18.5892 69.8936 18.6187 70.1427 18.6187C72.0265 18.6187 73.5597 17.1211 73.5597 15.2803C73.5597 13.4395 72.0265 11.9419 70.1427 11.9419C68.259 11.9419 66.7258 13.4395 66.7258 15.2803C66.7258 16.041 66.998 16.7348 67.4381 17.2967Z"/>
</mask>
<path d="M50.6103 76.1494L51.0519 83.3151C51.0886 83.9084 50.6561 84.4312 50.0544 84.5199C47.8998 84.8385 45.6945 85 43.5015 85C41.3109 85 39.1063 84.8385 36.9493 84.5199C36.3476 84.4312 35.9145 83.9084 35.9512 83.3154L36.3292 77.1626C31.7221 76.2603 27.4112 74.5145 23.4866 71.961L19.3028 76.5729C18.8994 77.0166 18.2151 77.0885 17.7259 76.7356C14.1865 74.1887 11.0688 71.1425 8.45878 67.6816C8.09752 67.2033 8.1694 66.5351 8.62496 66.1406L13.3439 62.054C10.7306 58.2205 8.9434 54.0084 8.01952 49.5052L1.7237 49.8754C1.12353 49.9116 0.582496 49.4888 0.490568 48.9006C0.165335 46.7968 0 44.6431 0 42.4987C0 40.3546 0.165335 38.2009 0.490568 36.0968C0.581647 35.5086 1.11589 35.0763 1.7237 35.122L8.02105 35.4922C8.94493 30.9905 10.7315 26.778 13.3447 22.9446L8.62496 18.8569C8.17025 18.4625 8.09752 17.7943 8.4581 17.316C11.0652 13.8584 14.1828 10.8125 17.7252 8.26201C18.2151 7.90939 18.8994 7.98078 19.3021 8.4247L23.4875 13.0369C27.4356 10.4745 31.9141 8.67705 36.5542 7.79235L36.0475 1.69344C35.9977 1.09064 36.4341 0.553413 37.0465 0.464428C41.3039 -0.154809 45.699 -0.154809 49.9564 0.464428C50.5688 0.553413 51.005 1.0908 50.9554 1.69344L50.3613 8.83227C50.3093 9.46496 49.7352 9.93611 49.0945 9.88414C48.447 9.83251 47.9647 9.27836 48.0176 8.64617L48.5212 2.59275C45.1946 2.19713 41.8082 2.19713 38.4817 2.59275L38.9846 8.64567C39.0344 9.242 38.6065 9.77607 38.0026 9.87252C32.9875 10.6727 28.1369 12.6171 23.9751 15.4951C23.4853 15.834 22.8132 15.7573 22.4168 15.3198L18.265 10.7441C15.5478 12.8087 13.1097 15.1905 10.9988 17.8431L15.6817 21.899C16.1303 22.2878 16.2076 22.9441 15.8616 23.4224C12.9223 27.4798 10.9996 32.012 10.1468 36.8932C10.045 37.4709 9.50992 37.8818 8.91757 37.8463L2.66932 37.4791C2.45811 39.1371 2.35174 40.8211 2.35174 42.4989C2.35174 44.177 2.45811 45.8609 2.66932 47.5187L8.91536 47.1515C9.50788 47.1126 10.0436 47.5273 10.1446 48.1046C10.9981 52.9872 12.9216 57.5198 15.861 61.5765C16.2069 62.0548 16.1296 62.7109 15.681 63.0999L10.9996 67.1547C13.1123 69.8099 15.5502 72.1914 18.2652 74.2535L22.4169 69.6778C22.8134 69.2395 23.4854 69.1633 23.9753 69.502C28.1294 72.374 32.768 74.2527 37.7639 75.0861C38.3549 75.1848 38.7751 75.7023 38.7391 76.287L38.3641 82.3912C41.7649 82.8051 45.2461 82.8051 48.6393 82.3912L48.2635 76.2873C48.2244 75.654 48.7182 75.1098 49.3664 75.0718C50.0116 75.0377 50.5712 75.5164 50.6103 76.1494ZM80 42.5299C80 44.3707 78.4668 45.8683 76.583 45.8683C75.1139 45.8683 73.869 44.9526 73.3873 43.6782H47.615V63.9843C47.615 68.1448 44.1506 71.53 39.8917 71.53C36.7726 71.53 34.0276 69.7442 32.8122 67.0067C32.7632 67.0079 32.715 67.0082 32.6667 67.0082C28.4078 67.0082 24.9434 63.6232 24.9434 59.4625C24.9434 59.2633 24.9519 59.0639 24.9678 58.8653C23.1339 58.5068 21.3971 57.5847 19.9779 56.1975C18.1561 54.418 17.1534 52.0522 17.1534 49.5358C17.1534 47.0193 18.1561 44.6536 19.9779 42.8744C20.1143 42.7409 20.2676 42.6239 20.413 42.499C20.2676 42.374 20.1143 42.257 19.9779 42.1237C18.1561 40.3442 17.1534 37.9784 17.1534 35.4623C17.1534 32.9459 18.1561 30.5801 19.9779 28.8006C21.3971 27.4134 23.1339 26.4913 24.9678 26.1327C24.9517 25.9342 24.9434 25.735 24.9434 25.5356C24.9434 21.3746 28.4078 17.9895 32.6667 17.9895C32.715 17.9895 32.7632 17.9899 32.8122 17.991C34.0276 15.2539 36.7726 13.4681 39.8917 13.4681C44.1506 13.4681 47.615 16.8531 47.615 21.0138V41.3811H73.3876C73.8695 40.1071 75.1142 39.1919 76.583 39.1919C78.4669 39.1917 80 40.6891 80 42.5299ZM21.6406 40.4992C21.9668 40.818 22.3374 41.0977 22.7301 41.3502H45.2636V21.0135C45.2636 18.1193 42.8539 15.7652 39.8918 15.7652C37.917 15.7652 36.1588 16.7935 35.2203 18.4125C36.1717 18.7379 37.0551 19.2449 37.819 19.9135C37.828 19.9213 37.831 19.9324 37.8397 19.9404C38.2777 19.7405 38.761 19.6206 39.2757 19.6206C41.1595 19.6206 42.6927 21.1182 42.6927 22.9585C42.6927 24.7993 41.1595 26.2969 39.2757 26.2969C37.3919 26.2969 35.8587 24.7993 35.8587 22.9585C35.8587 22.4608 35.9783 21.9926 36.1792 21.568C35.204 20.7426 33.9612 20.2865 32.6667 20.2865C29.7044 20.2865 27.2949 22.6411 27.2949 25.5353C27.2949 25.7009 27.3106 25.8656 27.3264 26.0301C28.7192 26.1708 30.0519 26.6002 31.2526 27.3033C31.7792 26.9789 32.3977 26.7837 33.0648 26.7837C34.9486 26.7837 36.4818 28.2813 36.4818 30.1221C36.4818 31.9625 34.9486 33.46 33.0648 33.46C31.1811 33.46 29.6479 31.9624 29.6479 30.1221C29.6479 29.7844 29.7148 29.4647 29.8106 29.1572C28.7524 28.5876 27.5751 28.2765 26.3469 28.2727C24.6397 28.3642 22.969 29.1263 21.6406 30.4246C20.2635 31.7703 19.505 33.5591 19.505 35.462C19.505 37.3647 20.2637 39.1535 21.6406 40.4992ZM31.9993 30.1223C31.9993 30.6962 32.4769 31.1628 33.0647 31.1628C33.6526 31.1628 34.1301 30.6962 34.1301 30.1223C34.1301 29.5483 33.6524 29.0813 33.0647 29.0813C32.4769 29.0812 31.9993 29.5482 31.9993 30.1223ZM39.2755 23.9996C39.8635 23.9996 40.341 23.5326 40.341 22.9587C40.341 22.3848 39.8633 21.9181 39.2755 21.9181C38.6878 21.9181 38.2101 22.3848 38.2101 22.9587C38.2101 23.5326 38.6878 23.9996 39.2755 23.9996ZM45.2636 63.9843V43.6475H22.7092C22.3226 43.8974 21.9636 44.1829 21.6407 44.4985C20.2637 45.8439 19.5051 47.6327 19.5051 49.5356C19.5051 51.4385 20.2637 53.2273 21.6407 54.573C22.9692 55.8713 24.6399 56.6334 26.3471 56.7249C27.5556 56.7211 28.7165 56.4216 29.7624 55.8689C29.6948 55.6075 29.648 55.3382 29.648 55.0565C29.648 53.2157 31.1812 51.718 33.065 51.718C34.9488 51.718 36.482 53.2157 36.482 55.0565C36.482 56.8972 34.9488 58.3949 33.065 58.3949C32.3321 58.3949 31.6562 58.1634 31.099 57.7779C29.9381 58.4297 28.6608 58.8328 27.3267 58.9676C27.3109 59.1321 27.2953 59.2968 27.2953 59.4625C27.2953 62.3567 29.7049 64.7107 32.667 64.7107C33.9347 64.7107 35.1503 64.2723 36.116 63.4802C35.9525 63.0908 35.8591 62.6661 35.8591 62.2197C35.8591 60.3789 37.3923 58.8813 39.276 58.8813C41.1598 58.8813 42.693 60.3789 42.693 62.2197C42.693 64.0605 41.1598 65.5581 39.276 65.5581C38.7092 65.5581 38.1824 65.4097 37.7112 65.17C36.9719 65.794 36.1289 66.2746 35.2207 66.5849C36.1591 68.2044 37.9173 69.2327 39.8922 69.2327C42.8541 69.2327 45.2636 66.8784 45.2636 63.9843ZM39.2755 63.2608C39.8635 63.2608 40.341 62.7938 40.341 62.2199C40.341 61.6459 39.8633 61.1789 39.2755 61.1789C38.6878 61.1789 38.2101 61.6459 38.2101 62.2199C38.2101 62.7938 38.6878 63.2608 39.2755 63.2608ZM33.0648 56.0975C33.6528 56.0975 34.1303 55.6305 34.1303 55.0566C34.1303 54.4827 33.6526 54.0157 33.0648 54.0157C32.4769 54.0157 31.9994 54.4827 31.9994 55.0566C31.9994 55.2492 32.0569 55.4273 32.1505 55.5822C32.1699 55.6046 32.1921 55.6236 32.21 55.6478C32.229 55.6735 32.2412 55.7018 32.2579 55.7285C32.4533 55.9523 32.7405 56.0975 33.0648 56.0975ZM77.6486 42.5299C77.6486 41.956 77.1709 41.489 76.5832 41.489C75.9954 41.489 75.5178 41.956 75.5178 42.5299C75.5178 43.1038 75.9954 43.5708 76.5832 43.5708C77.1709 43.5708 77.6486 43.1038 77.6486 42.5299Z" fill="white"/>
<path d="M79.2652 29.7798C79.2652 27.939 77.732 26.4414 75.8483 26.4414C73.9645 26.4414 72.4314 27.9388 72.4311 29.7799C72.4311 30.3562 72.5949 30.8904 72.8591 31.3641L70.0812 34.175H54.2466C53.5975 34.175 53.0709 34.6892 53.0709 35.3237C53.0709 35.9582 53.5975 36.4724 54.2466 36.4724H70.5803C70.8996 36.4724 71.2042 36.3455 71.4262 36.1216L74.6231 32.8869C75.0046 33.031 75.4155 33.1182 75.8483 33.1182C77.732 33.1182 79.2652 31.6206 79.2652 29.7798Z" fill="#C6211C"/>
<path d="M75.565 58.8763C77.4488 58.8763 78.982 57.3787 78.982 55.5379C78.982 53.6969 77.4488 52.1995 75.5648 52.1997C75.2838 52.1997 75.0146 52.2425 74.7533 52.3052L71.4262 48.9391C71.2041 48.7152 70.8994 48.5883 70.5803 48.5883H54.2466C53.5975 48.5883 53.0709 49.1025 53.0709 49.737C53.0709 50.3715 53.5975 50.8856 54.2466 50.8856H70.0812L72.7801 53.6163C72.3852 54.1608 72.148 54.8212 72.148 55.5379C72.148 57.3787 73.6812 58.8763 75.565 58.8763Z" fill="#C6211C"/>
<path d="M69.8595 73.0564C71.7432 73.0564 73.2765 71.5587 73.2765 69.7179C73.2765 67.8772 71.7432 66.3795 69.8595 66.3797C69.7585 66.3797 69.6636 66.4005 69.5648 66.4089L64.6598 59.5165C64.4403 59.2078 64.0797 59.0236 63.6947 59.0236H50.7625C50.1134 59.0236 49.5868 59.5377 49.5868 60.1722C49.5868 60.8067 50.1134 61.3209 50.7625 61.3209H63.0799L67.4077 67.402C66.8128 68.0032 66.4425 68.818 66.4425 69.7179C66.4425 71.5587 67.9757 73.0564 69.8595 73.0564Z" fill="white"/>
<path d="M67.4381 17.2967L63.08 23.4201L50.7625 23.4204C50.1134 23.4204 49.5868 23.9345 49.5868 24.569C49.5868 25.2036 50.1134 25.7177 50.7625 25.7177H63.6947C64.0797 25.7177 64.4401 25.5333 64.6598 25.2248L69.4177 18.5395C69.6518 18.5892 69.8936 18.6187 70.1427 18.6187C72.0265 18.6187 73.5597 17.1211 73.5597 15.2803C73.5597 13.4395 72.0265 11.9419 70.1427 11.9419C68.259 11.9419 66.7258 13.4395 66.7258 15.2803C66.7258 16.041 66.998 16.7348 67.4381 17.2967Z" fill="white"/>
<path d="M50.6103 76.1494L51.0519 83.3151C51.0886 83.9084 50.6561 84.4312 50.0544 84.5199C47.8998 84.8385 45.6945 85 43.5015 85C41.3109 85 39.1063 84.8385 36.9493 84.5199C36.3476 84.4312 35.9145 83.9084 35.9512 83.3154L36.3292 77.1626C31.7221 76.2603 27.4112 74.5145 23.4866 71.961L19.3028 76.5729C18.8994 77.0166 18.2151 77.0885 17.7259 76.7356C14.1865 74.1887 11.0688 71.1425 8.45878 67.6816C8.09752 67.2033 8.1694 66.5351 8.62496 66.1406L13.3439 62.054C10.7306 58.2205 8.9434 54.0084 8.01952 49.5052L1.7237 49.8754C1.12353 49.9116 0.582496 49.4888 0.490568 48.9006C0.165335 46.7968 0 44.6431 0 42.4987C0 40.3546 0.165335 38.2009 0.490568 36.0968C0.581647 35.5086 1.11589 35.0763 1.7237 35.122L8.02105 35.4922C8.94493 30.9905 10.7315 26.778 13.3447 22.9446L8.62496 18.8569C8.17025 18.4625 8.09752 17.7943 8.4581 17.316C11.0652 13.8584 14.1828 10.8125 17.7252 8.26201C18.2151 7.90939 18.8994 7.98078 19.3021 8.4247L23.4875 13.0369C27.4356 10.4745 31.9141 8.67705 36.5542 7.79235L36.0475 1.69344C35.9977 1.09064 36.4341 0.553413 37.0465 0.464428C41.3039 -0.154809 45.699 -0.154809 49.9564 0.464428C50.5688 0.553413 51.005 1.0908 50.9554 1.69344L50.3613 8.83227C50.3093 9.46496 49.7352 9.93611 49.0945 9.88414C48.447 9.83251 47.9647 9.27836 48.0176 8.64617L48.5212 2.59275C45.1946 2.19713 41.8082 2.19713 38.4817 2.59275L38.9846 8.64567C39.0344 9.242 38.6065 9.77607 38.0026 9.87252C32.9875 10.6727 28.1369 12.6171 23.9751 15.4951C23.4853 15.834 22.8132 15.7573 22.4168 15.3198L18.265 10.7441C15.5478 12.8087 13.1097 15.1905 10.9988 17.8431L15.6817 21.899C16.1303 22.2878 16.2076 22.9441 15.8616 23.4224C12.9223 27.4798 10.9996 32.012 10.1468 36.8932C10.045 37.4709 9.50992 37.8818 8.91757 37.8463L2.66932 37.4791C2.45811 39.1371 2.35174 40.8211 2.35174 42.4989C2.35174 44.177 2.45811 45.8609 2.66932 47.5187L8.91536 47.1515C9.50788 47.1126 10.0436 47.5273 10.1446 48.1046C10.9981 52.9872 12.9216 57.5198 15.861 61.5765C16.2069 62.0548 16.1296 62.7109 15.681 63.0999L10.9996 67.1547C13.1123 69.8099 15.5502 72.1914 18.2652 74.2535L22.4169 69.6778C22.8134 69.2395 23.4854 69.1633 23.9753 69.502C28.1294 72.374 32.768 74.2527 37.7639 75.0861C38.3549 75.1848 38.7751 75.7023 38.7391 76.287L38.3641 82.3912C41.7649 82.8051 45.2461 82.8051 48.6393 82.3912L48.2635 76.2873C48.2244 75.654 48.7182 75.1098 49.3664 75.0718C50.0116 75.0377 50.5712 75.5164 50.6103 76.1494ZM80 42.5299C80 44.3707 78.4668 45.8683 76.583 45.8683C75.1139 45.8683 73.869 44.9526 73.3873 43.6782H47.615V63.9843C47.615 68.1448 44.1506 71.53 39.8917 71.53C36.7726 71.53 34.0276 69.7442 32.8122 67.0067C32.7632 67.0079 32.715 67.0082 32.6667 67.0082C28.4078 67.0082 24.9434 63.6232 24.9434 59.4625C24.9434 59.2633 24.9519 59.0639 24.9678 58.8653C23.1339 58.5068 21.3971 57.5847 19.9779 56.1975C18.1561 54.418 17.1534 52.0522 17.1534 49.5358C17.1534 47.0193 18.1561 44.6536 19.9779 42.8744C20.1143 42.7409 20.2676 42.6239 20.413 42.499C20.2676 42.374 20.1143 42.257 19.9779 42.1237C18.1561 40.3442 17.1534 37.9784 17.1534 35.4623C17.1534 32.9459 18.1561 30.5801 19.9779 28.8006C21.3971 27.4134 23.1339 26.4913 24.9678 26.1327C24.9517 25.9342 24.9434 25.735 24.9434 25.5356C24.9434 21.3746 28.4078 17.9895 32.6667 17.9895C32.715 17.9895 32.7632 17.9899 32.8122 17.991C34.0276 15.2539 36.7726 13.4681 39.8917 13.4681C44.1506 13.4681 47.615 16.8531 47.615 21.0138V41.3811H73.3876C73.8695 40.1071 75.1142 39.1919 76.583 39.1919C78.4669 39.1917 80 40.6891 80 42.5299ZM21.6406 40.4992C21.9668 40.818 22.3374 41.0977 22.7301 41.3502H45.2636V21.0135C45.2636 18.1193 42.8539 15.7652 39.8918 15.7652C37.917 15.7652 36.1588 16.7935 35.2203 18.4125C36.1717 18.7379 37.0551 19.2449 37.819 19.9135C37.828 19.9213 37.831 19.9324 37.8397 19.9404C38.2777 19.7405 38.761 19.6206 39.2757 19.6206C41.1595 19.6206 42.6927 21.1182 42.6927 22.9585C42.6927 24.7993 41.1595 26.2969 39.2757 26.2969C37.3919 26.2969 35.8587 24.7993 35.8587 22.9585C35.8587 22.4608 35.9783 21.9926 36.1792 21.568C35.204 20.7426 33.9612 20.2865 32.6667 20.2865C29.7044 20.2865 27.2949 22.6411 27.2949 25.5353C27.2949 25.7009 27.3106 25.8656 27.3264 26.0301C28.7192 26.1708 30.0519 26.6002 31.2526 27.3033C31.7792 26.9789 32.3977 26.7837 33.0648 26.7837C34.9486 26.7837 36.4818 28.2813 36.4818 30.1221C36.4818 31.9625 34.9486 33.46 33.0648 33.46C31.1811 33.46 29.6479 31.9624 29.6479 30.1221C29.6479 29.7844 29.7148 29.4647 29.8106 29.1572C28.7524 28.5876 27.5751 28.2765 26.3469 28.2727C24.6397 28.3642 22.969 29.1263 21.6406 30.4246C20.2635 31.7703 19.505 33.5591 19.505 35.462C19.505 37.3647 20.2637 39.1535 21.6406 40.4992ZM31.9993 30.1223C31.9993 30.6962 32.4769 31.1628 33.0647 31.1628C33.6526 31.1628 34.1301 30.6962 34.1301 30.1223C34.1301 29.5483 33.6524 29.0813 33.0647 29.0813C32.4769 29.0812 31.9993 29.5482 31.9993 30.1223ZM39.2755 23.9996C39.8635 23.9996 40.341 23.5326 40.341 22.9587C40.341 22.3848 39.8633 21.9181 39.2755 21.9181C38.6878 21.9181 38.2101 22.3848 38.2101 22.9587C38.2101 23.5326 38.6878 23.9996 39.2755 23.9996ZM45.2636 63.9843V43.6475H22.7092C22.3226 43.8974 21.9636 44.1829 21.6407 44.4985C20.2637 45.8439 19.5051 47.6327 19.5051 49.5356C19.5051 51.4385 20.2637 53.2273 21.6407 54.573C22.9692 55.8713 24.6399 56.6334 26.3471 56.7249C27.5556 56.7211 28.7165 56.4216 29.7624 55.8689C29.6948 55.6075 29.648 55.3382 29.648 55.0565C29.648 53.2157 31.1812 51.718 33.065 51.718C34.9488 51.718 36.482 53.2157 36.482 55.0565C36.482 56.8972 34.9488 58.3949 33.065 58.3949C32.3321 58.3949 31.6562 58.1634 31.099 57.7779C29.9381 58.4297 28.6608 58.8328 27.3267 58.9676C27.3109 59.1321 27.2953 59.2968 27.2953 59.4625C27.2953 62.3567 29.7049 64.7107 32.667 64.7107C33.9347 64.7107 35.1503 64.2723 36.116 63.4802C35.9525 63.0908 35.8591 62.6661 35.8591 62.2197C35.8591 60.3789 37.3923 58.8813 39.276 58.8813C41.1598 58.8813 42.693 60.3789 42.693 62.2197C42.693 64.0605 41.1598 65.5581 39.276 65.5581C38.7092 65.5581 38.1824 65.4097 37.7112 65.17C36.9719 65.794 36.1289 66.2746 35.2207 66.5849C36.1591 68.2044 37.9173 69.2327 39.8922 69.2327C42.8541 69.2327 45.2636 66.8784 45.2636 63.9843ZM39.2755 63.2608C39.8635 63.2608 40.341 62.7938 40.341 62.2199C40.341 61.6459 39.8633 61.1789 39.2755 61.1789C38.6878 61.1789 38.2101 61.6459 38.2101 62.2199C38.2101 62.7938 38.6878 63.2608 39.2755 63.2608ZM33.0648 56.0975C33.6528 56.0975 34.1303 55.6305 34.1303 55.0566C34.1303 54.4827 33.6526 54.0157 33.0648 54.0157C32.4769 54.0157 31.9994 54.4827 31.9994 55.0566C31.9994 55.2492 32.0569 55.4273 32.1505 55.5822C32.1699 55.6046 32.1921 55.6236 32.21 55.6478C32.229 55.6735 32.2412 55.7018 32.2579 55.7285C32.4533 55.9523 32.7405 56.0975 33.0648 56.0975ZM77.6486 42.5299C77.6486 41.956 77.1709 41.489 76.5832 41.489C75.9954 41.489 75.5178 41.956 75.5178 42.5299C75.5178 43.1038 75.9954 43.5708 76.5832 43.5708C77.1709 43.5708 77.6486 43.1038 77.6486 42.5299Z" stroke="white" mask="url(#path-1-inside-1_29_123)"/>
<path d="M79.2652 29.7798C79.2652 27.939 77.732 26.4414 75.8483 26.4414C73.9645 26.4414 72.4314 27.9388 72.4311 29.7799C72.4311 30.3562 72.5949 30.8904 72.8591 31.3641L70.0812 34.175H54.2466C53.5975 34.175 53.0709 34.6892 53.0709 35.3237C53.0709 35.9582 53.5975 36.4724 54.2466 36.4724H70.5803C70.8996 36.4724 71.2042 36.3455 71.4262 36.1216L74.6231 32.8869C75.0046 33.031 75.4155 33.1182 75.8483 33.1182C77.732 33.1182 79.2652 31.6206 79.2652 29.7798Z" stroke="white" mask="url(#path-1-inside-1_29_123)"/>
<path d="M75.565 58.8763C77.4488 58.8763 78.982 57.3787 78.982 55.5379C78.982 53.6969 77.4488 52.1995 75.5648 52.1997C75.2838 52.1997 75.0146 52.2425 74.7533 52.3052L71.4262 48.9391C71.2041 48.7152 70.8994 48.5883 70.5803 48.5883H54.2466C53.5975 48.5883 53.0709 49.1025 53.0709 49.737C53.0709 50.3715 53.5975 50.8856 54.2466 50.8856H70.0812L72.7801 53.6163C72.3852 54.1608 72.148 54.8212 72.148 55.5379C72.148 57.3787 73.6812 58.8763 75.565 58.8763Z" stroke="white" mask="url(#path-1-inside-1_29_123)"/>
<path d="M69.8595 73.0564C71.7432 73.0564 73.2765 71.5587 73.2765 69.7179C73.2765 67.8772 71.7432 66.3795 69.8595 66.3797C69.7585 66.3797 69.6636 66.4005 69.5648 66.4089L64.6598 59.5165C64.4403 59.2078 64.0797 59.0236 63.6947 59.0236H50.7625C50.1134 59.0236 49.5868 59.5377 49.5868 60.1722C49.5868 60.8067 50.1134 61.3209 50.7625 61.3209H63.0799L67.4077 67.402C66.8128 68.0032 66.4425 68.818 66.4425 69.7179C66.4425 71.5587 67.9757 73.0564 69.8595 73.0564Z" stroke="white" mask="url(#path-1-inside-1_29_123)"/>
<path d="M67.4381 17.2967L63.08 23.4201L50.7625 23.4204C50.1134 23.4204 49.5868 23.9345 49.5868 24.569C49.5868 25.2036 50.1134 25.7177 50.7625 25.7177H63.6947C64.0797 25.7177 64.4401 25.5333 64.6598 25.2248L69.4177 18.5395C69.6518 18.5892 69.8936 18.6187 70.1427 18.6187C72.0265 18.6187 73.5597 17.1211 73.5597 15.2803C73.5597 13.4395 72.0265 11.9419 70.1427 11.9419C68.259 11.9419 66.7258 13.4395 66.7258 15.2803C66.7258 16.041 66.998 16.7348 67.4381 17.2967Z" stroke="white" mask="url(#path-1-inside-1_29_123)"/>
</svg>
