<svg width="85" height="85" viewBox="0 0 85 85" fill="none" xmlns="http://www.w3.org/2000/svg">
<mask id="path-1-inside-1_29_86" fill="white">
<path d="M85 42.5007C85 42.0136 84.7172 41.572 84.2748 41.369L62.4862 31.3549L84.2748 21.3408C85.2186 20.907 85.2192 19.512 84.2748 19.0782L43.0118 0.113496C42.672 -0.0421436 42.2802 -0.037604 41.9449 0.126466L38.2081 1.95264C36.7682 2.65626 37.852 4.89747 39.3024 4.18996L42.5079 2.62319L49.5435 5.8566L42.4443 9.11984L33.2967 4.92795C32.8394 4.71848 32.4256 4.53366 31.9262 4.76193L0.70911 19.0782C-0.235289 19.5114 -0.236586 20.907 0.708462 21.3408L22.4971 31.3556L18.2266 33.3179C16.7697 33.9872 17.8017 36.2543 19.2669 35.5805L25.4107 32.757C25.4328 32.7472 25.4535 32.7349 25.4743 32.7239L41.9715 40.3055C42.2997 40.4566 42.6843 40.4566 43.0118 40.3055L59.5045 32.7258L80.7729 42.5007L42.4916 60.0944L4.20974 42.5007L12.5848 38.6512C14.0416 37.9819 13.011 35.7141 11.5451 36.3886L0.707813 41.369C-0.235289 41.8029 -0.236586 43.1978 0.707813 43.6316L22.4971 53.6457L0.707813 63.6599C-0.235289 64.0937 -0.236586 65.4886 0.707813 65.9225L41.9715 84.8872C42.299 85.0376 42.6843 85.0376 43.0118 84.8872L50.1519 81.6051C51.6081 80.9359 50.5781 78.6681 49.1115 79.3425L42.4916 82.3853L4.20974 64.7915L25.4788 55.016L41.9715 62.5963C42.299 62.7468 42.6843 62.7468 43.0118 62.5963L59.5791 54.9817C59.6731 55.0692 59.7821 55.1438 59.9047 55.2002L80.7729 64.7908L57.2479 75.6033C55.7911 76.2732 56.823 78.5397 58.2883 77.8659L84.2748 65.9225C85.2186 65.4886 85.2192 64.0937 84.2748 63.6599L62.4862 53.6457L84.2748 43.6316C84.7172 43.4287 85 42.987 85 42.5007ZM52.5252 33.1921L45.4734 29.9509L53.2238 26.3887L60.2504 29.6416L52.5252 33.1921ZM24.7407 29.6455L31.7932 26.4043L39.5099 29.9509L32.4574 33.1921L24.7407 29.6455ZM14.2433 24.8213L21.2958 21.5801L28.8115 25.034L21.759 28.2752L14.2433 24.8213ZM22.13 11.994L29.1345 15.2365L21.2958 18.8395L14.257 15.6042L22.13 11.994ZM32.1052 16.6119L39.5936 20.0788L31.7932 23.6637L24.2776 20.2098L32.1052 16.6119ZM70.7393 15.5983L63.6719 18.8467L55.9435 15.3052L63.0226 12.0517L70.7393 15.5983ZM60.6869 20.2182L53.2277 23.6462L45.5389 20.0866L52.9585 16.6768L60.6869 20.2182ZM63.225 28.2745L56.1991 25.0217L63.6732 21.5866L70.7354 24.8226L63.225 28.2745ZM42.5682 18.7111L35.0798 15.2449L42.4456 11.8591L49.9723 15.3085L42.5682 18.7111ZM34.7749 25.034L42.5643 21.4536L50.2531 25.0132L42.4916 28.5806L34.7749 25.034ZM73.7204 23.451L66.6575 20.215L73.721 16.9686L80.7729 20.2098L73.7204 23.451ZM52.5252 7.22688L60.0409 10.6814L52.9572 13.9369L45.4306 10.4875L52.5252 7.22688ZM32.1091 13.8694L25.1078 10.6283L32.4308 7.27033L39.4593 10.4914L32.1091 13.8694ZM11.2726 16.9732L18.3141 20.2098L11.2616 23.451L4.21234 20.2111L11.2726 16.9732ZM42.4916 37.8036L35.4391 34.5624L42.4916 31.3212L49.5435 34.5624L42.4916 37.8036Z"/>
</mask>
<path d="M85 42.5007C85 42.0136 84.7172 41.572 84.2748 41.369L62.4862 31.3549L84.2748 21.3408C85.2186 20.907 85.2192 19.512 84.2748 19.0782L43.0118 0.113496C42.672 -0.0421436 42.2802 -0.037604 41.9449 0.126466L38.2081 1.95264C36.7682 2.65626 37.852 4.89747 39.3024 4.18996L42.5079 2.62319L49.5435 5.8566L42.4443 9.11984L33.2967 4.92795C32.8394 4.71848 32.4256 4.53366 31.9262 4.76193L0.70911 19.0782C-0.235289 19.5114 -0.236586 20.907 0.708462 21.3408L22.4971 31.3556L18.2266 33.3179C16.7697 33.9872 17.8017 36.2543 19.2669 35.5805L25.4107 32.757C25.4328 32.7472 25.4535 32.7349 25.4743 32.7239L41.9715 40.3055C42.2997 40.4566 42.6843 40.4566 43.0118 40.3055L59.5045 32.7258L80.7729 42.5007L42.4916 60.0944L4.20974 42.5007L12.5848 38.6512C14.0416 37.9819 13.011 35.7141 11.5451 36.3886L0.707813 41.369C-0.235289 41.8029 -0.236586 43.1978 0.707813 43.6316L22.4971 53.6457L0.707813 63.6599C-0.235289 64.0937 -0.236586 65.4886 0.707813 65.9225L41.9715 84.8872C42.299 85.0376 42.6843 85.0376 43.0118 84.8872L50.1519 81.6051C51.6081 80.9359 50.5781 78.6681 49.1115 79.3425L42.4916 82.3853L4.20974 64.7915L25.4788 55.016L41.9715 62.5963C42.299 62.7468 42.6843 62.7468 43.0118 62.5963L59.5791 54.9817C59.6731 55.0692 59.7821 55.1438 59.9047 55.2002L80.7729 64.7908L57.2479 75.6033C55.7911 76.2732 56.823 78.5397 58.2883 77.8659L84.2748 65.9225C85.2186 65.4886 85.2192 64.0937 84.2748 63.6599L62.4862 53.6457L84.2748 43.6316C84.7172 43.4287 85 42.987 85 42.5007ZM52.5252 33.1921L45.4734 29.9509L53.2238 26.3887L60.2504 29.6416L52.5252 33.1921ZM24.7407 29.6455L31.7932 26.4043L39.5099 29.9509L32.4574 33.1921L24.7407 29.6455ZM14.2433 24.8213L21.2958 21.5801L28.8115 25.034L21.759 28.2752L14.2433 24.8213ZM22.13 11.994L29.1345 15.2365L21.2958 18.8395L14.257 15.6042L22.13 11.994ZM32.1052 16.6119L39.5936 20.0788L31.7932 23.6637L24.2776 20.2098L32.1052 16.6119ZM70.7393 15.5983L63.6719 18.8467L55.9435 15.3052L63.0226 12.0517L70.7393 15.5983ZM60.6869 20.2182L53.2277 23.6462L45.5389 20.0866L52.9585 16.6768L60.6869 20.2182ZM63.225 28.2745L56.1991 25.0217L63.6732 21.5866L70.7354 24.8226L63.225 28.2745ZM42.5682 18.7111L35.0798 15.2449L42.4456 11.8591L49.9723 15.3085L42.5682 18.7111ZM34.7749 25.034L42.5643 21.4536L50.2531 25.0132L42.4916 28.5806L34.7749 25.034ZM73.7204 23.451L66.6575 20.215L73.721 16.9686L80.7729 20.2098L73.7204 23.451ZM52.5252 7.22688L60.0409 10.6814L52.9572 13.9369L45.4306 10.4875L52.5252 7.22688ZM32.1091 13.8694L25.1078 10.6283L32.4308 7.27033L39.4593 10.4914L32.1091 13.8694ZM11.2726 16.9732L18.3141 20.2098L11.2616 23.451L4.21234 20.2111L11.2726 16.9732ZM42.4916 37.8036L35.4391 34.5624L42.4916 31.3212L49.5435 34.5624L42.4916 37.8036Z" fill="black" stroke="white" mask="url(#path-1-inside-1_29_86)"/>
<path fill-rule="evenodd" clip-rule="evenodd" d="M58.8242 32.4799L81.5736 42.5113L42.5 60.4004L3.40945 42.5035L12.4139 38.4106C12.9166 38.1821 13.139 37.5892 12.9104 37.0864C12.6819 36.5836 12.089 36.3613 11.5862 36.5899L0.785808 41.4992C-0.0726751 41.8894 -0.0743102 43.1082 0.783086 43.5007L42.0421 62.3904C42.3329 62.5235 42.6672 62.5235 42.958 62.3904L84.2153 43.5015C85.0758 43.1076 85.0701 41.8831 84.2061 41.497L61.2569 31.3676L58.8242 32.4799ZM18.081 33.5923L23.3146 31.1767L25.6587 32.253C25.5884 32.3145 25.5082 32.3671 25.4191 32.4082L18.9191 35.4082C18.4177 35.6396 17.8235 35.4207 17.5921 34.9193C17.3607 34.4178 17.5795 33.8237 18.081 33.5923Z" fill="#C6211C"/>
</svg>
