<svg width="218" height="51" viewBox="0 0 218 51" fill="none" xmlns="http://www.w3.org/2000/svg">
<path d="M53.4299 41.7222V40.6914H58.4092V41.7222H53.4299ZM54.6249 36.7822C55.2977 36.7822 55.9173 36.8954 56.4839 37.1216C57.0504 37.3395 57.5417 37.6537 57.9578 38.0643C58.3827 38.4666 58.7102 38.94 58.9403 39.4847C59.1793 40.0294 59.2988 40.6286 59.2988 41.2822C59.2988 41.9359 59.1793 42.535 58.9403 43.0797C58.7102 43.6244 58.3827 44.1021 57.9578 44.5127C57.5417 44.9149 57.0504 45.2292 56.4839 45.4554C55.9173 45.6733 55.2977 45.7822 54.6249 45.7822C53.8814 45.7822 53.1953 45.6649 52.5668 45.4303C51.9472 45.1956 51.4249 44.8521 51 44.3995L51.8365 43.6076C52.2083 43.968 52.6199 44.2319 53.0714 44.3995C53.5317 44.5671 54.0274 44.6509 54.5585 44.6509C55.0454 44.6509 55.4969 44.5671 55.9129 44.3995C56.329 44.2319 56.6875 44.0015 56.9884 43.7082C57.2983 43.4065 57.5373 43.0504 57.7055 42.6398C57.8737 42.2208 57.9578 41.7683 57.9578 41.2822C57.9578 40.7962 57.8737 40.3479 57.7055 39.9373C57.5373 39.5183 57.2983 39.1621 56.9884 38.8688C56.6875 38.5671 56.329 38.3325 55.9129 38.1649C55.4969 37.9973 55.0454 37.9135 54.5585 37.9135C54.0274 37.9135 53.5317 37.9973 53.0714 38.1649C52.6199 38.3325 52.2083 38.5965 51.8365 38.9568L51 38.1649C51.4249 37.7124 51.9472 37.3688 52.5668 37.1342C53.1953 36.8995 53.8814 36.7822 54.6249 36.7822Z" fill="#828282"/>
<path d="M67.7043 45.6817L64.3317 41.3451L65.4072 40.7166L69.2181 45.6817H67.7043ZM61.4503 45.6817V36.8828H62.7516V45.6817H61.4503ZM62.3532 41.8102V40.704H65.3674V41.8102H62.3532ZM65.5267 41.4205L64.3051 41.2445L67.6379 36.8828H69.0587L65.5267 41.4205Z" fill="#828282"/>
<path d="M74.7092 45.7822C74.001 45.7822 73.346 45.6733 72.744 45.4554C72.1509 45.2292 71.6331 44.9149 71.1905 44.5127C70.7567 44.1021 70.4159 43.6244 70.1681 43.0797C69.9202 42.535 69.7963 41.9359 69.7963 41.2822C69.7963 40.6286 69.9202 40.0294 70.1681 39.4847C70.4159 38.94 70.7612 38.4666 71.2038 38.0643C71.6464 37.6537 72.1642 37.3395 72.7573 37.1216C73.3592 36.8954 74.0143 36.7822 74.7225 36.7822C75.4395 36.7822 76.099 36.8995 76.7009 37.1342C77.3117 37.3604 77.8296 37.6998 78.2545 38.1523L77.3914 38.9442C77.0373 38.5923 76.6389 38.3325 76.1963 38.1649C75.7537 37.9889 75.2801 37.9009 74.7756 37.9009C74.2533 37.9009 73.7664 37.9847 73.315 38.1523C72.8724 38.3199 72.4873 38.5546 72.1598 38.8562C71.8323 39.1579 71.5755 39.5183 71.3897 39.9373C71.2126 40.3479 71.1241 40.7962 71.1241 41.2822C71.1241 41.7683 71.2126 42.2208 71.3897 42.6398C71.5755 43.0504 71.8323 43.4065 72.1598 43.7082C72.4873 44.0099 72.8724 44.2445 73.315 44.4121C73.7664 44.5797 74.2533 44.6635 74.7756 44.6635C75.2801 44.6635 75.7537 44.5797 76.1963 44.4121C76.6389 44.2361 77.0373 43.968 77.3914 43.6076L78.2545 44.3995C77.8296 44.8521 77.3117 45.1956 76.7009 45.4303C76.099 45.6649 75.4351 45.7822 74.7092 45.7822Z" fill="#828282"/>
<path d="M80.0838 45.6817V36.8828H88.0906V45.6817H86.7893V37.6495L87.108 37.9764H81.0664L81.3984 37.6495V45.6817H80.0838Z" fill="#828282"/>
<path d="M92.1974 40.6789H96.9775V41.7473H92.1974V40.6789ZM92.3169 44.5881H97.7343V45.6817H90.989V36.8828H97.5485V37.9764H92.3169V44.5881Z" fill="#828282"/>
<path d="M99.8195 45.6817V36.8828H103.444C104.259 36.8828 104.954 37.0043 105.529 37.2473C106.105 37.4903 106.547 37.8423 106.857 38.3032C107.167 38.7641 107.322 39.313 107.322 39.9498C107.322 40.5867 107.167 41.1356 106.857 41.5965C106.547 42.049 106.105 42.4009 105.529 42.6523C104.954 42.8954 104.259 43.0169 103.444 43.0169H100.55L101.147 42.4261V45.6817H99.8195ZM101.147 42.5518L100.55 41.9233H103.405C104.254 41.9233 104.896 41.7515 105.33 41.4079C105.773 41.0643 105.994 40.5783 105.994 39.9498C105.994 39.3213 105.773 38.8353 105.33 38.4917C104.896 38.1481 104.254 37.9764 103.405 37.9764H100.55L101.147 37.3479V42.5518Z" fill="#828282"/>
<path d="M110.769 45.6817V37.6495L111.101 37.9764H107.596V36.8828H115.257V37.9764H111.752L112.071 37.6495V45.6817H110.769Z" fill="#828282"/>
<path d="M115.74 42.7529V41.7096H119.312V42.7529H115.74Z" fill="#828282"/>
<path d="M121.513 45.6817V36.8828H122.602L126.771 43.5322H126.187L130.303 36.8828H131.392L131.405 45.6817H130.131L130.117 38.7808H130.423L126.758 44.6132H126.147L122.456 38.7808H122.788V45.6817H121.513Z" fill="#828282"/>
<path d="M134.299 45.6817V36.8828H138.295C139.305 36.8828 140.097 37.0755 140.672 37.461C141.248 37.8465 141.535 38.4079 141.535 39.1454C141.535 39.866 141.261 40.4191 140.712 40.8046C140.163 41.1817 139.442 41.3702 138.548 41.3702L138.787 40.9931C139.822 40.9931 140.615 41.19 141.163 41.5839C141.721 41.9694 142 42.535 142 43.2808C142 44.035 141.708 44.6258 141.124 45.0532C140.548 45.4722 139.69 45.6817 138.548 45.6817H134.299ZM135.613 44.6887H138.521C139.229 44.6887 139.76 44.5671 140.114 44.3241C140.477 44.0727 140.659 43.6914 140.659 43.1803C140.659 42.6691 140.477 42.2962 140.114 42.0616C139.76 41.8269 139.229 41.7096 138.521 41.7096H135.613V44.6887ZM135.613 40.7543H138.202C138.849 40.7543 139.34 40.6328 139.676 40.3898C140.022 40.1468 140.194 39.7906 140.194 39.3213C140.194 38.8437 140.022 38.4833 139.676 38.2403C139.34 37.9973 138.849 37.8758 138.202 37.8758H135.613V40.7543Z" fill="#828282"/>
<path d="M63.8571 6.78662H51V24.4789H55.1903L55.1642 10.1229H63.8311L63.8571 6.78662Z" fill="#828282"/>
<path d="M66.404 6.78662L66.1438 13.9646C65.9616 18.4888 65.415 21.1174 63.2809 21.1174C63.0206 21.1174 62.7864 21.0921 62.5261 21.0163L62.2658 24.4789C63.0466 24.6559 63.7233 24.757 64.3479 24.757C68.6163 24.757 69.6313 20.7635 69.8656 13.813L69.9957 10.1229H76.2421V24.4789H80.4063V6.78662H66.404Z" fill="#828282"/>
<path d="M98.9067 24.4789H103.331L95.1849 6.78662H91.0207L82.9004 24.4789H87.2208L88.8344 20.6877H97.293L98.9067 24.4789ZM90.1878 17.5789L93.0768 10.8053L95.9657 17.5789H90.1878Z" fill="#828282"/>
<path d="M118.37 15.2537C119.984 14.4954 120.947 13.1559 120.947 11.3613C120.947 8.42948 118.448 6.78662 114.232 6.78662H105.747V24.4789H114.726C119.333 24.4789 121.806 22.5833 121.806 19.4998C121.806 17.3515 120.582 15.8855 118.37 15.2537ZM109.937 9.81959H113.867C115.689 9.81959 116.652 10.5778 116.652 11.9679C116.652 13.3833 115.689 14.1163 113.867 14.1163H109.937V9.81959ZM114.57 21.446H109.937V16.9723H114.57C116.522 16.9723 117.537 17.68 117.537 19.1712C117.537 20.713 116.522 21.446 114.57 21.446Z" fill="#828282"/>
<path d="M133.755 24.7822C136.93 24.7822 139.559 23.6701 141.276 21.6229L138.57 19.1965C137.346 20.5866 135.811 21.2943 133.989 21.2943C130.58 21.2943 128.159 18.969 128.159 15.6328C128.159 12.2965 130.58 9.97124 133.989 9.97124C135.811 9.97124 137.346 10.6789 138.57 12.0438L141.276 9.61739C139.559 7.59541 136.93 6.48333 133.781 6.48333C128.107 6.48333 123.891 10.2998 123.891 15.6328C123.891 20.9657 128.107 24.7822 133.755 24.7822Z" fill="#828282"/>
<path d="M157.771 6.78662H141.973V10.1229H147.777V24.4789H151.941V10.1229H157.771V6.78662Z" fill="#828282"/>
<path d="M168.304 6.78662H160.418V24.4789H164.634V19.6009H168.304C173.171 19.6009 176.216 17.1493 176.216 13.2064C176.216 9.23827 173.171 6.78662 168.304 6.78662ZM168.07 16.2646H164.634V10.1229H168.07C170.647 10.1229 171.948 11.2602 171.948 13.2064C171.948 15.1273 170.647 16.2646 168.07 16.2646Z" fill="#828282"/>
<path d="M187.945 24.7822C193.67 24.7822 197.913 20.9152 197.913 15.6328C197.913 10.3504 193.67 6.48333 187.945 6.48333C182.193 6.48333 177.976 10.3756 177.976 15.6328C177.976 20.8899 182.193 24.7822 187.945 24.7822ZM187.945 21.2943C184.691 21.2943 182.245 18.9943 182.245 15.6328C182.245 12.2712 184.691 9.97124 187.945 9.97124C191.198 9.97124 193.644 12.2712 193.644 15.6328C193.644 18.9943 191.198 21.2943 187.945 21.2943Z" fill="#828282"/>
<path d="M209.567 5.64926C212.977 5.64926 214.591 4.25915 214.617 1.78223H211.728C211.702 2.99541 210.947 3.62728 209.567 3.62728C208.136 3.62728 207.433 2.99541 207.407 1.78223H204.518C204.544 4.25915 206.106 5.64926 209.567 5.64926ZM201.161 24.4789H205.143L213.836 12.9789V24.4789H218V6.78662H214.044L205.351 18.3119V6.78662H201.161V24.4789Z" fill="#828282"/>
<path d="M20.2158 6.31738L0 45.4856H40.4317L20.2158 6.31738ZM20.3379 30.1144L20.4294 44.2487L2.00251 44.304L20.1701 9.11247L20.3379 21.0608C20.4871 21.0604 20.6361 21.069 20.7842 21.0867C21.5996 21.1751 22.3767 21.4697 23.0374 21.9408C23.698 22.412 24.2189 23.0431 24.5478 23.7708C24.8768 24.4985 25.0021 25.2972 24.9112 26.0866C24.8203 26.8761 24.5165 27.6285 24.0302 28.2683C23.9019 28.4427 23.8187 28.6444 23.7875 28.8564C23.7563 29.0684 23.778 29.2845 23.8509 29.4867L28.7218 43.813L21.4746 30.768C21.3624 30.5709 21.1979 30.4064 20.9981 30.2915C20.7983 30.1766 20.5703 30.1155 20.3379 30.1144Z" fill="#828282"/>
<path d="M15.5227 25.5246C15.5211 26.4726 15.8425 27.3965 16.4404 28.1631C16.5749 28.3403 16.6626 28.5446 16.6963 28.7595C16.73 28.9743 16.7087 29.1936 16.6342 29.3993L11.5 43.7432L19.1578 30.6982C19.2764 30.5021 19.4488 30.3389 19.6573 30.2254C19.8659 30.1119 20.103 30.1095 20.3444 30.1097V21.0546C19.0631 21.0615 17.8367 21.4868 16.9333 22.3346C16.0298 23.1823 15.5227 24.3291 15.5227 25.5246Z" fill="#828282"/>
</svg>
