<svg width="93" height="93" viewBox="0 0 93 93" fill="none" xmlns="http://www.w3.org/2000/svg">
<path d="M92.7761 92.5752H0.155762V70.3877H92.7761V92.5752ZM59.6081 87.8638H62.7158V77.9722C64.1982 77.9722 65.5377 78.0234 66.8719 77.956C67.9095 77.9021 68.1791 78.3495 68.1548 79.3037C68.1063 81.3655 68.1413 83.4301 68.1413 85.5028C68.1413 88.2223 68.3192 88.3679 71.0388 87.8638C71.0792 87.8638 71.1142 87.8126 71.214 87.7426V75.1826H59.6081V87.8638ZM56.6622 87.9097V75.1664H45.1668V87.8746H48.1667V78.1016H53.7459V87.9097H56.6622ZM72.8149 87.9717C73.8688 87.9717 74.6343 88.0444 75.3755 87.9393C75.7339 87.8908 76.308 87.5404 76.335 87.2763C76.5533 85.2791 77.8659 85.1821 79.4049 85.3465C79.8952 85.4098 80.3916 85.4098 80.8819 85.3465C81.96 85.1767 82.5152 85.616 82.7928 86.6671C82.9195 87.1469 83.3319 87.8126 83.7254 87.9043C84.5502 88.0956 85.4477 87.9609 86.4854 87.9609C85.2051 84.457 84.03 81.2227 82.8467 77.9884C81.7201 74.9158 81.7174 74.9184 78.4373 75.0694C78.3456 75.0694 78.2351 75.0397 78.1678 75.0694C77.8982 75.2392 77.4859 75.3739 77.3915 75.6219C75.8768 79.646 74.4025 83.6673 72.8149 87.9797V87.9717ZM19.5456 75.1071V87.8719H22.5589V83.5595C24.1329 83.5595 25.5749 83.6781 26.9872 83.5325C29.3671 83.2846 30.6905 81.7159 30.6959 79.3791C30.7013 77.0423 29.2782 75.2958 26.8929 75.1449C24.5076 74.9939 22.0656 75.1071 19.5456 75.1071ZM30.6393 75.0775C30.9466 75.6543 31.1325 76.0424 31.3536 76.4116C32.5907 78.4897 33.8089 80.5785 35.0892 82.6296C35.4989 83.2819 35.5231 83.7967 35.1135 84.4516C34.445 85.5297 33.8682 86.6429 33.1702 87.8935C33.8224 87.9339 34.1809 87.9231 34.5178 87.9824C36.1107 88.2654 36.9975 87.5997 37.7521 86.1443C39.4259 82.883 41.3234 79.7322 43.1238 76.5329C43.3556 76.1205 43.5604 75.6893 43.8812 75.0721C43.1319 75.0721 42.5928 75.1448 42.0834 75.0586C40.7708 74.8376 40.035 75.3955 39.496 76.5707C38.9273 77.8132 38.1672 78.9668 37.391 80.344C36.5042 78.77 35.7468 77.3577 34.914 75.9885C34.6876 75.6192 34.2644 75.1799 33.8871 75.1287C32.8926 74.9993 31.8683 75.0775 30.642 75.0775H30.6393ZM7.79956 75.1206V85.581C7.79956 88.2223 8.04213 88.4029 10.9099 87.7533V77.9695H17.5457V75.1206H7.79956Z" fill="#375D99"/>
<path d="M92.8569 33.3685C92.2855 33.099 91.8381 32.9211 91.4096 32.7055C76.8551 25.3097 62.3006 17.9049 47.7461 10.4911C46.8055 10.0113 46.0966 10.0248 45.1614 10.4911C30.6662 17.9049 16.1548 25.2899 1.6273 32.6462C1.16102 32.8834 0.686651 33.1017 0.0101376 33.4197C0.0101376 30.11 -0.0329867 27.0185 0.0586526 23.9324C0.0586526 23.5416 0.713605 23.0429 1.1718 22.8085C12.6357 16.9525 24.1095 11.1128 35.5931 5.28917C38.8275 3.64236 42.086 2.0225 45.2961 0.337957C46.0885 -0.0771156 46.7058 -0.131022 47.5359 0.294831C62.297 7.82183 77.0617 15.3219 91.83 22.795C92.6682 23.2181 93.0052 23.7006 92.9809 24.6466C92.9189 27.1155 92.9647 29.5871 92.9566 32.0586C92.9566 32.4575 92.9027 32.8322 92.8569 33.3685Z" fill="#375D99"/>
<path d="M60.6457 36.5487V66.38H52.9022V43.3974L52.6165 43.3273C52.4413 43.702 52.2526 44.0739 52.0774 44.4567C49.1261 51.3862 46.1478 58.3131 43.2504 65.2615C42.8623 66.1887 42.396 66.5283 41.3826 66.504C38.3288 66.4312 35.2751 66.4797 32.2186 66.4743C31.7793 66.4743 31.3427 66.4366 30.8333 66.4124V36.6458H38.5929V59.6337L38.8625 59.685C39.9621 57.1047 41.0618 54.5271 42.1615 51.9522C44.1991 47.1654 46.2583 42.3867 48.2447 37.581C48.5789 36.7724 48.9832 36.5218 49.8161 36.5326C53.4116 36.5703 56.9936 36.5487 60.6457 36.5487Z" fill="#375D99"/>
<path d="M26.8659 66.4313H19.1547V43.6697H7.89117V66.4178H0.0964355V36.6296H26.8659V66.4313Z" fill="#375D99"/>
<path d="M92.652 36.5483L80.1325 49.4047L92.9243 66.4766C91.3233 66.4766 89.9595 66.4766 88.6118 66.4766C86.9515 66.4766 85.0433 66.9375 83.7037 66.2717C82.3642 65.606 81.5933 63.8056 80.5934 62.4984C78.7067 59.9917 76.82 57.4717 74.9333 54.9516C74.8436 54.8632 74.7462 54.7829 74.6422 54.7117C73.3296 55.806 72.0655 56.7655 72.2731 58.9029C72.5103 61.3448 72.327 63.8271 72.327 66.3849H64.5916V36.6534H72.3V47.704C72.8202 47.2108 73.1383 46.9439 73.4213 46.6394C76.3052 43.5587 79.1595 40.4402 82.0866 37.4054C82.576 36.9306 83.2176 36.6441 83.8978 36.5968C86.7683 36.4997 89.6414 36.5483 92.652 36.5483Z" fill="#375D99"/>
<path d="M77.9817 82.5275C78.5207 80.9266 79.0221 79.4684 79.6555 77.6006L81.3319 82.5275H77.9817Z" fill="#375D99"/>
<path d="M22.583 80.8107V77.8594C23.8094 77.8594 25.0088 77.7165 26.1704 77.9295C26.6663 78.0211 27.3509 78.8459 27.359 79.3472C27.3671 79.8485 26.6717 80.649 26.1758 80.7433C25.0627 80.9563 23.8821 80.8107 22.583 80.8107Z" fill="#375D99"/>
</svg>
