<svg width="159" height="51" viewBox="0 0 159 51" fill="none" xmlns="http://www.w3.org/2000/svg">
<path fill-rule="evenodd" clip-rule="evenodd" d="M142.104 0.458008H0V35.7312H15.7097V50.4428H159V13.7871H142.104V0.458008ZM142.104 23.3081V35.7312H26.6588V40.9218H148.527V23.3081H142.104ZM78.293 43.9763V44.6583H76.4982V48.1918H75.6317V43.9763H78.293ZM81.6352 48.2538C81.0781 48.2538 80.7068 48.0678 80.3973 47.6958H80.3355C80.3973 48.0678 80.3973 48.2538 80.3973 48.3158V50.0515H79.5309V44.0383H80.2736C80.2736 44.0693 80.289 44.1313 80.3122 44.2243C80.3354 44.3173 80.3664 44.4413 80.3973 44.5963H80.4592C80.7068 44.1623 81.14 43.9763 81.6971 43.9763C82.1922 43.9763 82.6255 44.1623 82.9349 44.5343C83.2444 44.9062 83.3681 45.4641 83.3681 46.146C83.3681 46.828 83.2444 47.3859 82.9349 47.7578C82.5636 48.0678 82.1303 48.2538 81.6352 48.2538ZM81.3876 44.6583C81.0163 44.6583 80.7687 44.7822 80.6449 44.9682C80.4592 45.1542 80.3973 45.5261 80.3973 45.9601V46.0841C80.3973 46.58 80.4592 46.9519 80.6449 47.1999C80.8306 47.4479 81.0782 47.5719 81.4495 47.5719C81.759 47.5719 82.0065 47.4479 82.1303 47.1999C82.316 46.9519 82.3779 46.58 82.3779 46.146C82.3779 45.6501 82.316 45.3402 82.1303 45.0922C81.9446 44.7822 81.6971 44.6583 81.3876 44.6583ZM84.049 43.9763H85.0392L85.9057 46.332C85.9966 46.5596 86.0541 46.8206 86.1028 47.0415L86.1028 47.0415L86.1028 47.0416C86.1204 47.1215 86.1368 47.196 86.1533 47.2619C86.1533 47.1379 86.2152 46.9519 86.2771 46.766L87.2054 43.9763H88.1338L86.339 48.6877C86.0295 49.5556 85.4725 49.9895 84.7298 49.9895C84.5441 49.9895 84.3584 49.9895 84.1727 49.9275V49.2456C84.2346 49.2456 84.312 49.2611 84.3894 49.2766C84.4667 49.2921 84.5441 49.3076 84.606 49.3076C85.0392 49.3076 85.3487 49.0597 85.5344 48.5637L85.72 48.1918L84.049 43.9763ZM92.8995 48.1918H91.9711V44.7202H90.1144V48.1918H89.2479V43.9763H92.8995V48.1918ZM98.2222 48.1918H97.2938V44.7202H95.437V48.1918H94.5706V43.9763H98.2222V48.1918ZM102.493 48.1918L102.307 47.6338H102.245C102.059 47.8818 101.812 48.0678 101.626 48.1298C101.441 48.1918 101.131 48.2538 100.822 48.2538C100.388 48.2538 100.079 48.1298 99.8314 47.9438C99.5838 47.6958 99.46 47.3859 99.46 47.0139C99.46 46.58 99.6457 46.27 99.9551 46.0221C100.265 45.7741 100.76 45.7121 101.441 45.6501H102.183V45.4022C102.183 45.1542 102.121 44.9062 101.998 44.7822C101.874 44.6583 101.688 44.5963 101.441 44.5963C101.255 44.5963 101.007 44.5963 100.822 44.7202C100.636 44.7822 100.45 44.8442 100.265 44.9682L99.9551 44.3483C100.203 44.2243 100.45 44.1623 100.698 44.1003C100.945 44.0383 101.193 44.0383 101.441 44.0383C101.998 44.0383 102.369 44.1623 102.617 44.4103C102.864 44.6583 103.05 45.0302 103.05 45.5261V48.1918H102.493ZM101.131 47.5719C101.441 47.5719 101.688 47.5099 101.936 47.3239C102.121 47.1379 102.245 46.8899 102.245 46.58V46.208H101.688C101.255 46.208 100.945 46.27 100.76 46.394C100.574 46.518 100.45 46.704 100.45 46.9519C100.45 47.1379 100.512 47.2619 100.636 47.3859C100.76 47.5099 100.945 47.5719 101.131 47.5719ZM109.734 43.9763H110.662L108.929 46.0221L110.848 48.1918H109.796L108.001 46.0221L109.734 43.9763ZM108.001 46.0221V48.1918H107.135V43.9763H108.001V46.0221ZM115.614 46.0841C115.614 46.766 115.428 47.3239 115.119 47.6958C114.747 48.0678 114.252 48.2538 113.633 48.2538C113.262 48.2538 112.891 48.1918 112.581 48.0058C112.272 47.8198 112.024 47.5719 111.9 47.2619C111.715 46.9519 111.653 46.518 111.653 46.0841C111.653 45.4021 111.838 44.9062 112.148 44.4723C112.519 44.1003 113.014 43.9144 113.633 43.9144C114.252 43.9144 114.685 44.1003 115.057 44.4723C115.428 44.9062 115.614 45.4021 115.614 46.0841ZM112.581 46.0841C112.581 47.0759 112.952 47.5099 113.633 47.5099C114.314 47.5099 114.685 47.0139 114.685 46.0841C114.685 45.1542 114.314 44.6583 113.633 44.6583C113.262 44.6583 113.014 44.7822 112.829 45.0302C112.643 45.2782 112.581 45.5881 112.581 46.0841ZM119.389 47.3239L119.451 47.1379C119.524 46.92 119.575 46.7234 119.617 46.5605L119.617 46.5604C119.647 46.4453 119.673 46.347 119.699 46.27L120.627 43.9763H121.803V48.1918H120.998V44.8442L120.936 45.0922L120.9 45.2222C120.799 45.5772 120.738 45.7935 120.627 45.9601L119.699 48.1918H119.018L118.089 45.8981C117.966 45.5881 117.842 45.2162 117.718 44.7822V48.1918H116.913V44.0383H118.089L119.018 46.27C119.184 46.3807 119.251 46.6889 119.351 47.1505C119.363 47.2061 119.376 47.2639 119.389 47.3239ZM127.126 48.1918H126.259V44.7202H124.402V48.1918H123.474V43.9763H127.126V48.1918ZM131.396 48.1918L131.211 47.6338C131.025 47.8818 130.777 48.0678 130.592 48.1298C130.406 48.1918 130.096 48.2538 129.787 48.2538C129.354 48.2538 129.044 48.1298 128.797 47.9438C128.549 47.6958 128.425 47.3859 128.425 47.0139C128.425 46.58 128.611 46.27 128.921 46.0221C129.23 45.7741 129.725 45.7121 130.406 45.6501H131.149V45.4022C131.149 45.1542 131.087 44.9062 130.963 44.7822C130.839 44.6583 130.653 44.5963 130.406 44.5963C130.22 44.5963 129.973 44.5963 129.787 44.7202C129.601 44.7822 129.416 44.8442 129.23 44.9682L128.921 44.3483C129.168 44.2243 129.416 44.1623 129.663 44.1003C129.911 44.0383 130.158 44.0383 130.406 44.0383C130.963 44.0383 131.334 44.1623 131.582 44.4103C131.829 44.6583 132.015 45.0302 132.015 45.5261V48.1918H131.396ZM130.096 47.5719C130.406 47.5719 130.653 47.5099 130.901 47.3239C131.087 47.1379 131.211 46.8899 131.211 46.58V46.208H130.653C130.22 46.208 129.911 46.27 129.725 46.394C129.539 46.518 129.416 46.704 129.416 46.9519C129.416 47.1379 129.478 47.2619 129.601 47.3859C129.725 47.5099 129.849 47.5719 130.096 47.5719ZM134.553 43.9763V45.6501H136.533V43.9763H137.4V48.1918H136.533V46.394H134.553V48.1918H133.686V43.9763H134.553ZM139.937 46.146C139.937 46.394 139.937 46.766 139.875 47.2619L141.98 44.0383H143.094V48.1918H142.227V46.0841V45.5261V45.526C142.227 45.2781 142.227 45.0922 142.289 44.9682L140.185 48.1918H139.071V44.0383H139.937V46.146ZM145.569 46.146C145.569 46.394 145.569 46.766 145.508 47.2619L147.612 44.0383H148.726V48.1918H147.859V46.0841V45.5261C147.859 45.2782 147.859 45.0922 147.921 44.9682L145.817 48.1918H144.703V44.0383H145.569V46.146ZM146.622 43.4804C146.065 43.4804 145.693 43.3564 145.446 43.1705C145.198 42.9845 145.074 42.6745 145.012 42.1786H145.817C145.817 42.3646 145.879 42.4886 145.941 42.6125C146.003 42.7365 146.065 42.7985 146.188 42.8605C146.312 42.9225 146.436 42.9225 146.683 42.9225C146.931 42.9225 147.117 42.8605 147.24 42.7365C147.364 42.6125 147.426 42.4266 147.488 42.1786H148.293C148.231 42.6125 148.107 42.9225 147.859 43.1085C147.55 43.3564 147.179 43.4804 146.622 43.4804ZM14.6683 9.02721L8.2934 27.3147H14.3588L15.2253 24.897H21.105L21.9715 27.3147H28.0369L21.6001 9.02721H14.6683ZM16.6616 20.4529L18.2089 16.4854L19.7562 20.4529H16.6616ZM76.4981 9.02729L69.9376 27.2528H76.1887L77.0552 24.8351H82.9349L83.8014 27.2528H89.8668L83.43 9.02729H76.4981ZM78.4168 20.4957L79.9641 16.5283L81.5114 20.4957H78.4168ZM28.8415 14.6065H33.7309V27.2528H39.425V14.6065H44.2525V9.02729H28.8415V14.6065ZM105.278 15.2884H100.079V9.02729H94.323V27.2528H100.079V20.9917H105.278V27.2528H111.034V9.02729H105.278V15.2884ZM115.861 9.02729V14.6065H120.689V27.2528H126.445V14.6065H131.272V9.02729H115.861ZM59.8493 9.02729H50.0085V22.5414L47.7804 23.4093V27.2528H55.5168V14.6065H59.7874V27.2528H65.5433V9.02729H59.8493Z" fill="#375D99"/>
</svg>
