<svg width="98" height="99" viewBox="0 0 98 99" fill="none" xmlns="http://www.w3.org/2000/svg">
<path d="M97.9987 49.3892V97.2503C97.9987 98.8293 97.9987 98.8293 96.3744 98.8293H9.46316C6.76862 98.8293 4.07408 98.867 1.37577 98.867C0.0567608 98.867 0.0266113 98.8143 0.0266113 97.4689C0.0266113 78.0305 0.0266113 58.5908 0.0266113 39.1499V1.82954C0.0266113 0.0922233 0.0266126 0.0771484 1.71494 0.0771484H96.8153C97.9798 0.0771484 97.9949 0.0997599 97.9949 1.42254C97.9999 17.4139 98.0012 33.4028 97.9987 49.3892ZM91.2793 49.2045C91.2793 40.0167 91.2793 30.8301 91.2793 21.6448C91.2793 17.1941 91.3132 12.7434 91.2793 8.29268C91.2504 8.09649 91.1783 7.90916 91.0682 7.74426C90.958 7.57936 90.8126 7.44102 90.6424 7.33923C90.2397 7.17253 89.8025 7.10656 89.3686 7.14703C63.1292 7.14703 36.8885 7.14703 10.6465 7.14703C9.83249 7.14703 9.0147 7.11688 8.20068 7.14703C7.18316 7.17341 6.795 7.58041 6.76862 8.58663C6.74978 9.15192 6.74224 9.71721 6.74224 10.2787C6.74224 35.8599 6.74224 61.4424 6.74224 87.0261C6.74224 88.0285 6.70832 89.031 6.74224 90.041C6.76862 91.1489 7.1191 91.5069 8.21953 91.5484C9.18806 91.5861 10.1604 91.5183 11.1326 91.5183C25.2699 91.5183 39.4071 91.5183 53.5444 91.5183C58.338 91.5183 63.1354 91.5672 67.9291 91.5748C73.729 91.5748 79.525 91.5748 85.3249 91.5748C86.7645 91.5748 88.2041 91.5936 89.6475 91.5748C90.9137 91.5748 91.2454 91.1979 91.2755 89.9354C91.2755 89.3702 91.2755 88.8049 91.2755 88.2396L91.2793 49.2045Z" fill="#375D99"/>
<path d="M28.5474 50.252H46.3163C47.869 50.252 47.9934 50.3612 47.9934 51.8875C47.9934 56.9977 47.9934 62.1079 47.9934 67.2181C47.9934 68.5673 47.9067 68.6615 46.5575 68.6615C41.4473 68.6615 36.3371 68.6615 31.2269 68.6615C30.3488 68.6615 30.0586 68.2847 30.0662 67.4895C30.0863 65.7961 30.0863 64.104 30.0662 62.4132C30.0662 61.1959 29.7232 60.7513 28.8866 60.7513C28.05 60.7513 27.4508 61.3768 27.4508 62.466C27.4508 67.448 27.4508 72.4339 27.4508 77.416C27.4508 78.294 27.6656 78.9573 28.6869 79.0779C29.7082 79.1985 30.0473 78.9309 30.0624 77.9473C30.0888 76.1912 30.0624 74.435 30.0624 72.6713C30.0624 71.1978 30.1453 71.1186 31.5698 71.1149C36.4615 71.1149 41.3518 71.1023 46.241 71.0772C47.9368 71.0772 47.9745 71.13 47.9783 72.8145C47.9783 77.8393 47.9783 82.8553 47.9783 87.8625C47.9783 89.2682 47.9368 89.3436 46.5311 89.4491C45.6568 89.5169 44.7788 89.4943 43.8931 89.4943H11.7621C9.02613 89.4943 9.02612 89.4943 9.02612 86.7244C9.02612 75.1674 9.02612 63.6003 9.02612 52.0232C9.02612 50.3952 9.15425 50.252 10.7861 50.252C16.7103 50.252 22.6345 50.252 28.5587 50.252H28.5474Z" fill="#375D99"/>
<path d="M50.0282 69.9013V52.2228C50.0282 50.282 50.096 50.2519 52.018 50.2632C56.5629 50.2896 61.1078 50.2632 65.6527 50.2632C66.1238 50.2632 66.5911 50.2632 67.0622 50.2632C67.8423 50.2632 68.1928 50.7154 68.2229 51.4465C68.2811 52.1348 68.2634 52.8273 68.1702 53.5117C68.0464 54.0786 67.7879 54.6073 67.4164 55.0531C66.7763 55.8226 66.0756 56.5396 65.3211 57.1974C64.7407 57.7099 64.4506 58.2262 64.9706 58.8782C65.5321 59.5904 66.1954 59.549 66.9303 58.8179C69.3686 56.3796 71.8106 53.9489 74.2301 51.4955C74.59 51.0864 75.0355 50.7616 75.535 50.544C76.0346 50.3265 76.5759 50.2216 77.1206 50.2368C80.599 50.2971 84.0812 50.2368 87.5596 50.2368C88.6901 50.2368 88.9426 50.4591 88.9502 51.6199C88.9502 55.4751 88.9879 59.3304 88.9502 63.1819C88.8865 63.7288 88.6409 64.2384 88.253 64.629C86.9415 66.0385 85.566 67.3952 84.1942 68.7519C83.7081 69.2305 83.7081 69.6074 84.1942 70.0935C85.5471 71.4238 86.9114 72.7504 88.1776 74.1636C88.6225 74.6648 88.8877 75.3 88.9313 75.9687C88.9992 79.9785 88.9539 83.9921 88.9803 88.0056C88.9803 88.9515 88.6035 89.4113 87.6575 89.4038C83.9304 89.3774 80.1995 89.4339 76.4799 89.2568C75.6885 89.2191 74.8293 88.4428 74.1811 87.8172C71.7503 85.4731 69.395 83.0499 67.0207 80.6569C66.3009 79.9371 65.6754 79.9031 65.0083 80.6569C64.4279 81.2938 64.8726 81.8327 65.3098 82.2887C66.0258 83.0424 66.8474 83.6906 67.4993 84.482C67.8583 84.9647 68.0949 85.5272 68.189 86.1213C68.2583 86.7471 68.2684 87.378 68.2191 88.0056C68.2191 88.895 67.8423 89.4339 66.8775 89.4415C65.7809 89.4415 64.6842 89.4791 63.5876 89.4716C59.4798 89.4716 55.3758 89.4075 51.2718 89.4113C50.2694 89.4113 50.0055 88.9704 50.0093 88.0282C50.0508 81.9985 50.0282 75.9499 50.0282 69.9013Z" fill="#375D99"/>
<path d="M28.8337 37.545C26.2484 34.907 23.9873 32.6459 21.7713 30.3357C21.1759 29.7177 20.7877 29.9588 20.2639 30.4111C19.6986 30.9198 19.6609 31.406 20.1885 31.9185C22.3065 34.0252 24.398 36.1657 26.5951 38.2008C26.8463 38.4033 27.05 38.6584 27.1919 38.9482C27.3338 39.2379 27.4106 39.5552 27.4167 39.8778C27.4355 42.2897 27.4167 44.7053 27.4167 47.1172C27.4167 47.8408 27.085 48.1197 26.3803 48.1197C20.9259 48.1197 15.4728 48.1197 10.0209 48.1197C9.12771 48.1197 9.01465 47.6298 9.01465 46.91C9.01465 41.8299 9.01465 36.7524 9.01465 31.6773V10.5318C9.01465 9.31451 9.07872 9.23536 10.2771 9.2316C14.351 9.2316 18.4286 9.19391 22.5024 9.2316C23.1398 9.26713 23.7484 9.50922 24.236 9.92125C25.555 11.0518 26.7949 12.303 28.0046 13.5504C28.4078 13.9612 28.6641 14.1119 29.1352 13.6484C30.4466 12.3595 31.7732 11.0895 33.1412 9.87979C33.5138 9.52766 33.9918 9.30784 34.5016 9.25421C38.6471 9.20145 42.7925 9.2316 46.9154 9.20898C47.6691 9.20898 47.948 9.49917 47.948 10.2642C47.9329 22.5523 47.9329 34.8392 47.948 47.1248C47.948 47.8446 47.6992 48.1385 46.9644 48.1348C41.6657 48.1197 36.3683 48.1197 31.0722 48.1348C30.3185 48.1348 30.0057 47.8785 30.017 47.0909C30.0472 44.7732 29.9643 42.4517 30.0509 40.134C30.106 39.4687 30.3804 38.8404 30.831 38.3477C32.8397 36.2336 34.935 34.2023 36.9851 32.1371C37.72 31.3834 37.7389 30.9085 37.102 30.3018C36.4651 29.695 35.8998 29.9626 35.3533 30.5467C33.2768 32.8569 31.125 35.1181 28.8337 37.545Z" fill="#375D99"/>
<path d="M50.0281 28.6622C50.0281 22.6776 50.0281 16.6919 50.0281 10.7048C50.0281 9.25769 50.0733 9.22754 51.4979 9.22754C56.5779 9.22754 61.6555 9.22754 66.7305 9.22754C68.1927 9.22754 68.238 9.2803 68.1362 10.6898C68.1306 10.7209 68.1306 10.7528 68.1362 10.784C68.7769 13.4823 66.7946 14.8239 65.2344 16.3803C62.6567 18.9543 60.0601 21.5131 57.4749 24.0833C56.9473 24.6072 56.8832 25.4513 57.3806 25.8395C57.5017 25.9526 57.6449 26.0395 57.8011 26.0946C57.9574 26.1498 58.1234 26.172 58.2886 26.16C58.4539 26.148 58.6149 26.1019 58.7615 26.0247C58.9081 25.9475 59.0372 25.8408 59.1406 25.7114C62.6579 22.194 66.1753 18.6767 69.6926 15.1593C71.4978 13.3541 73.2728 11.5151 75.1081 9.74007C75.4563 9.43907 75.8991 9.26971 76.3593 9.26146C80.1806 9.22754 84.0057 9.26146 87.8271 9.23884C88.6939 9.23884 88.984 9.6157 88.9577 10.4297C88.9313 12.5929 88.9577 14.7561 88.9577 16.9192V46.5366C88.9577 48.1345 88.9577 48.142 87.3183 48.142C82.5448 48.142 77.7813 48.142 73.0278 48.142C71.1021 48.142 70.6084 47.5579 71.0606 45.6962C71.2192 45.0953 71.5294 44.5451 71.9613 44.0983C75.4397 40.5483 78.9558 37.036 82.4493 33.501C83.1088 32.834 83.0787 32.4194 82.3363 31.7411C81.7597 31.2173 81.1642 31.3642 80.6668 31.8768C78.6694 33.8553 76.6947 35.8526 74.7086 37.8387C71.4601 41.0834 68.2191 44.3395 64.9442 47.5579C64.5893 47.8883 64.1285 48.082 63.644 48.1043C59.476 48.1496 55.3079 48.1043 51.1399 48.1533C50.2882 48.1533 50.0093 47.8669 50.0093 47.0227C50.0545 40.8837 50.0281 34.7748 50.0281 28.6622Z" fill="#375D99"/>
</svg>
