<svg width="108" height="85" viewBox="0 0 108 85" fill="none" xmlns="http://www.w3.org/2000/svg">
<path d="M107.985 49.4116C107.263 51.6794 106.826 54.0664 105.819 56.1897C102.374 63.4121 96.585 67.6335 88.6549 68.8902C88.1891 68.9624 87.734 69.0744 87.1635 69.1899V78.6078H62.3187V84.2774H45.3462V78.7378H20.2739V68.0091C19.2158 67.8032 18.2877 67.648 17.3849 67.4457C6.32392 65.0479 -0.768408 54.9908 0.412443 43.3773C1.47413 32.8833 11.0293 24.4873 21.9242 24.4693C25.2248 24.4693 28.5254 24.5198 31.8224 24.4187C32.1716 24.3802 32.5081 24.2651 32.8077 24.0816C33.1073 23.8981 33.3628 23.6507 33.5557 23.357C35.8707 18.8385 39.5604 15.1716 44.0931 12.8846C44.406 12.6737 44.6685 12.3964 44.8619 12.0724C45.0554 11.7485 45.1752 11.3859 45.2126 11.0104C45.3317 7.95901 45.2595 4.90035 45.2667 1.84169C45.2667 1.26029 45.3173 0.675288 45.3498 0H62.2573C62.2573 2.64698 62.3945 5.26508 62.2175 7.85789C62.0262 10.671 62.4451 12.5994 65.5109 13.9535C69.4832 15.7086 72.2422 19.1175 74.1561 23.0356C74.7339 24.2201 75.438 24.4801 76.6442 24.5018C80.9559 24.5451 85.3326 24.2598 89.5649 24.9062C99.0117 26.3507 106.1 33.7788 107.668 43.1895C107.757 43.5935 107.868 43.9925 108 44.3848L107.985 49.4116ZM50.7702 15.7736C43.6995 17.5792 39.0447 21.6959 37.0477 28.5968C36.7372 29.6802 36.0655 29.5971 35.2746 29.5971C30.8943 29.5971 26.5139 29.5682 22.1372 29.5971C19.5338 29.6054 16.9691 30.2282 14.6518 31.415C12.3346 32.6018 10.3303 34.319 8.80221 36.4268C7.27407 38.5346 6.26522 40.9734 5.85779 43.5448C5.45035 46.1162 5.65584 48.7474 6.45753 51.2244C8.53034 57.7245 15.1243 62.7982 21.3355 62.4804C21.2844 61.3637 21.2928 60.245 21.3608 59.1292C21.5197 57.6848 20.9997 57.1322 19.5552 56.7459C18.1916 56.3789 16.9148 55.7435 15.7997 54.8769C14.6846 54.0104 13.7536 52.9301 13.0612 51.6993C12.3688 50.4685 11.9289 49.1119 11.7672 47.709C11.6056 46.3061 11.7255 44.885 12.1198 43.529C12.9666 40.7122 14.8973 38.3469 17.4875 36.9533C20.0777 35.5597 23.1154 35.2517 25.9326 36.0972V73.4078H31.6707V35.8517H36.5097V73.4439H42.2261V46.7213C44.6312 47.8516 46.8809 49.0974 49.2679 49.9713C50.474 50.4083 50.8027 50.8705 50.7954 52.0802C50.7449 60.292 50.7702 68.5002 50.7702 76.712V78.5754H56.6419V76.4412C56.6419 68.3521 56.6419 60.2595 56.6708 52.1705C56.6708 51.5638 56.9236 50.6069 57.3389 50.4155C60.1159 49.1335 62.9651 48.0104 65.8721 46.8043V73.2272H71.5849V35.4472H85.0618C86.564 35.4314 88.0544 35.7145 89.4461 36.2801C90.8379 36.8457 92.1032 37.6825 93.1685 38.7418C94.2338 39.801 95.0778 41.0616 95.6513 42.4501C96.2248 43.8386 96.5164 45.3273 96.5092 46.8296C96.4442 53.1672 91.3452 58.0892 84.9029 58.0495C82.1656 58.0314 79.4284 58.0495 76.6767 58.0495V73.1261H82.2631V64.0549C83.3248 64.0549 84.2132 64.0549 85.1015 64.0549C89.6846 64.056 94.0826 62.2465 97.3379 59.0203C100.593 55.7941 102.442 51.4125 102.482 46.8296C102.551 37.2744 94.8011 29.5574 85.0618 29.496C80.9812 29.4743 76.9042 29.4418 72.8235 29.5213C71.5885 29.5466 71.101 29.1602 70.7182 27.9649C68.7682 21.945 64.7381 17.9403 58.6208 16.2466C57.0464 15.8097 56.5047 15.2463 56.5986 13.6177C56.7539 11.0177 56.6419 8.40679 56.6419 5.80314H50.7702V15.7736Z" fill="#375D99"/>
<path d="M56.8225 21.3271C61.8781 22.1758 66.0454 27.1808 66.2404 32.4604C66.3885 35.3192 65.5261 38.1391 63.8043 40.4261C62.0824 42.713 59.6109 44.3214 56.8225 44.9695V21.3271Z" fill="#375D99"/>
<path d="M50.6692 21.4609V44.688C46.7547 44.4027 42.1215 39.004 42.266 35.8009L44.9491 35.6131V29.7161L42.5441 29.4849C42.9449 26.0146 46.7402 22.2446 50.6692 21.4609Z" fill="#375D99"/>
</svg>
