<svg width="98" height="99" viewBox="0 0 98 99" fill="none" xmlns="http://www.w3.org/2000/svg">
<path d="M97.9721 49.3892V97.2503C97.9721 98.8293 97.9721 98.8293 96.3478 98.8293H9.43655C6.74201 98.8293 4.04747 98.867 1.34916 98.867C0.0301494 98.867 0 98.8143 0 97.4689C0 78.0305 0 58.5908 0 39.1499V1.82954C0 0.0922233 1.2579e-06 0.0771484 1.68833 0.0771484H96.7887C97.9532 0.0771484 97.9683 0.0997599 97.9683 1.42254C97.9733 17.4139 97.9746 33.4028 97.9721 49.3892ZM91.2527 49.2045C91.2527 40.0167 91.2527 30.8301 91.2527 21.6448C91.2527 17.1941 91.2866 12.7434 91.2527 8.29268C91.2238 8.09649 91.1517 7.90916 91.0415 7.74426C90.9314 7.57936 90.786 7.44102 90.6158 7.33923C90.2131 7.17253 89.7759 7.10656 89.342 7.14703C63.1026 7.14703 36.8618 7.14703 10.6199 7.14703C9.80588 7.14703 8.98809 7.11688 8.17407 7.14703C7.15655 7.17341 6.76839 7.58041 6.74201 8.58663C6.72317 9.15192 6.71563 9.71721 6.71563 10.2787C6.71563 35.8599 6.71563 61.4424 6.71563 87.0261C6.71563 88.0285 6.68171 89.031 6.71563 90.041C6.74201 91.1489 7.09249 91.5069 8.19292 91.5484C9.16145 91.5861 10.1337 91.5183 11.106 91.5183C25.2433 91.5183 39.3805 91.5183 53.5178 91.5183C58.3114 91.5183 63.1088 91.5672 67.9025 91.5748C73.7023 91.5748 79.4984 91.5748 85.2983 91.5748C86.7379 91.5748 88.1775 91.5936 89.6209 91.5748C90.8871 91.5748 91.2188 91.1979 91.2489 89.9354C91.2489 89.3702 91.2489 88.8049 91.2489 88.2396L91.2527 49.2045Z" fill="#375D99"/>
<path d="M28.5208 50.252H46.2897C47.8424 50.252 47.9668 50.3612 47.9668 51.8875C47.9668 56.9977 47.9668 62.1079 47.9668 67.2181C47.9668 68.5673 47.8801 68.6615 46.5309 68.6615C41.4207 68.6615 36.3105 68.6615 31.2003 68.6615C30.3222 68.6615 30.032 68.2847 30.0396 67.4895C30.0597 65.7961 30.0597 64.104 30.0396 62.4132C30.0396 61.1959 29.6966 60.7513 28.86 60.7513C28.0234 60.7513 27.4242 61.3768 27.4242 62.466C27.4242 67.448 27.4242 72.4339 27.4242 77.416C27.4242 78.294 27.639 78.9573 28.6603 79.0779C29.6815 79.1985 30.0207 78.9309 30.0358 77.9473C30.0622 76.1912 30.0358 74.435 30.0358 72.6713C30.0358 71.1978 30.1187 71.1186 31.5432 71.1149C36.4349 71.1149 41.3252 71.1023 46.2144 71.0772C47.9102 71.0772 47.9479 71.13 47.9517 72.8145C47.9517 77.8393 47.9517 82.8553 47.9517 87.8625C47.9517 89.2682 47.9102 89.3436 46.5045 89.4491C45.6302 89.5169 44.7521 89.4943 43.8665 89.4943H11.7355C8.99952 89.4943 8.99951 89.4943 8.99951 86.7244C8.99951 75.1674 8.99951 63.6003 8.99951 52.0232C8.99951 50.3952 9.12764 50.252 10.7594 50.252C16.6837 50.252 22.6079 50.252 28.5321 50.252H28.5208Z" fill="#375D99"/>
<path d="M50.0015 69.9013V52.2228C50.0015 50.282 50.0694 50.2519 51.9914 50.2632C56.5363 50.2896 61.0812 50.2632 65.6261 50.2632C66.0972 50.2632 66.5645 50.2632 67.0356 50.2632C67.8157 50.2632 68.1662 50.7154 68.1963 51.4465C68.2545 52.1348 68.2368 52.8273 68.1436 53.5117C68.0198 54.0786 67.7613 54.6073 67.3898 55.0531C66.7497 55.8226 66.049 56.5396 65.2945 57.1974C64.7141 57.7099 64.4239 58.2262 64.944 58.8782C65.5055 59.5904 66.1688 59.549 66.9037 58.8179C69.342 56.3796 71.784 53.9489 74.2034 51.4955C74.5633 51.0864 75.0089 50.7616 75.5084 50.544C76.008 50.3265 76.5493 50.2216 77.094 50.2368C80.5724 50.2971 84.0545 50.2368 87.5329 50.2368C88.6635 50.2368 88.916 50.4591 88.9236 51.6199C88.9236 55.4751 88.9612 59.3304 88.9236 63.1819C88.8599 63.7288 88.6143 64.2384 88.2264 64.629C86.9149 66.0385 85.5394 67.3952 84.1676 68.7519C83.6815 69.2305 83.6815 69.6074 84.1676 70.0935C85.5205 71.4238 86.8848 72.7504 88.151 74.1636C88.5959 74.6648 88.8611 75.3 88.9047 75.9687C88.9726 79.9785 88.9273 83.9921 88.9537 88.0056C88.9537 88.9515 88.5769 89.4113 87.6309 89.4038C83.9038 89.3774 80.1729 89.4339 76.4533 89.2568C75.6619 89.2191 74.8026 88.4428 74.1545 87.8172C71.7237 85.4731 69.3683 83.0499 66.9941 80.6569C66.2743 79.9371 65.6487 79.9031 64.9817 80.6569C64.4013 81.2938 64.846 81.8327 65.2832 82.2887C65.9992 83.0424 66.8208 83.6906 67.4727 84.482C67.8317 84.9647 68.0683 85.5272 68.1624 86.1213C68.2317 86.7471 68.2418 87.378 68.1925 88.0056C68.1925 88.895 67.8157 89.4339 66.8509 89.4415C65.7543 89.4415 64.6576 89.4791 63.5609 89.4716C59.4532 89.4716 55.3492 89.4075 51.2452 89.4113C50.2427 89.4113 49.9789 88.9704 49.9827 88.0282C50.0242 81.9985 50.0015 75.9499 50.0015 69.9013Z" fill="#375D99"/>
<path d="M28.8071 37.545C26.2218 34.907 23.9607 32.6459 21.7447 30.3357C21.1493 29.7177 20.7611 29.9588 20.2373 30.4111C19.672 30.9198 19.6343 31.406 20.1619 31.9185C22.2799 34.0252 24.3714 36.1657 26.5685 38.2008C26.8196 38.4033 27.0233 38.6584 27.1653 38.9482C27.3072 39.2379 27.3839 39.5552 27.3901 39.8778C27.4089 42.2897 27.3901 44.7053 27.3901 47.1172C27.3901 47.8408 27.0584 48.1197 26.3537 48.1197C20.8993 48.1197 15.4461 48.1197 9.99425 48.1197C9.10109 48.1197 8.98804 47.6298 8.98804 46.91C8.98804 41.8299 8.98804 36.7524 8.98804 31.6773V10.5318C8.98804 9.31451 9.05211 9.23536 10.2505 9.2316C14.3244 9.2316 18.402 9.19391 22.4758 9.2316C23.1132 9.26713 23.7217 9.50922 24.2094 9.92125C25.5284 11.0518 26.7683 12.303 27.978 13.5504C28.3812 13.9612 28.6375 14.1119 29.1085 13.6484C30.42 12.3595 31.7466 11.0895 33.1146 9.87979C33.4871 9.52766 33.9652 9.30784 34.475 9.25421C38.6205 9.20145 42.7659 9.2316 46.8888 9.20898C47.6425 9.20898 47.9214 9.49917 47.9214 10.2642C47.9063 22.5523 47.9063 34.8392 47.9214 47.1248C47.9214 47.8446 47.6726 48.1385 46.9378 48.1348C41.6391 48.1197 36.3417 48.1197 31.0456 48.1348C30.2919 48.1348 29.9791 47.8785 29.9904 47.0909C30.0205 44.7732 29.9376 42.4517 30.0243 40.134C30.0794 39.4687 30.3538 38.8404 30.8044 38.3477C32.8131 36.2336 34.9084 34.2023 36.9585 32.1371C37.6934 31.3834 37.7122 30.9085 37.0753 30.3018C36.4385 29.695 35.8732 29.9626 35.3267 30.5467C33.2502 32.8569 31.0984 35.1181 28.8071 37.545Z" fill="#375D99"/>
<path d="M50.0015 28.6622C50.0015 22.6776 50.0015 16.6919 50.0015 10.7048C50.0015 9.25769 50.0467 9.22754 51.4713 9.22754C56.5513 9.22754 61.6289 9.22754 66.7039 9.22754C68.1661 9.22754 68.2113 9.2803 68.1096 10.6898C68.104 10.7209 68.104 10.7528 68.1096 10.784C68.7502 13.4823 66.768 14.8239 65.2078 16.3803C62.6301 18.9543 60.0335 21.5131 57.4483 24.0833C56.9206 24.6072 56.8566 25.4513 57.354 25.8395C57.4751 25.9526 57.6183 26.0395 57.7745 26.0946C57.9308 26.1498 58.0967 26.172 58.262 26.16C58.4273 26.148 58.5882 26.1019 58.7349 26.0247C58.8815 25.9475 59.0105 25.8408 59.114 25.7114C62.6313 22.194 66.1487 18.6767 69.666 15.1593C71.4712 13.3541 73.2462 11.5151 75.0815 9.74007C75.4297 9.43907 75.8725 9.26971 76.3327 9.26146C80.154 9.22754 83.9791 9.26146 87.8005 9.23884C88.6673 9.23884 88.9574 9.6157 88.9311 10.4297C88.9047 12.5929 88.9311 14.7561 88.9311 16.9192V46.5366C88.9311 48.1345 88.9311 48.142 87.2917 48.142C82.5182 48.142 77.7547 48.142 73.0012 48.142C71.0755 48.142 70.5818 47.5579 71.034 45.6962C71.1926 45.0953 71.5028 44.5451 71.9347 44.0983C75.4131 40.5483 78.9292 37.036 82.4227 33.501C83.0822 32.834 83.0521 32.4194 82.3096 31.7411C81.7331 31.2173 81.1376 31.3642 80.6402 31.8768C78.6428 33.8553 76.6681 35.8526 74.682 37.8387C71.4335 41.0834 68.1925 44.3395 64.9176 47.5579C64.5626 47.8883 64.1019 48.082 63.6174 48.1043C59.4494 48.1496 55.2813 48.1043 51.1132 48.1533C50.2615 48.1533 49.9827 47.8669 49.9827 47.0227C50.0279 40.8837 50.0015 34.7748 50.0015 28.6622Z" fill="#375D99"/>
</svg>
