<svg width="147" height="38" viewBox="0 0 147 38" fill="none" xmlns="http://www.w3.org/2000/svg">
<path d="M7.31948 14.2503V16.1137C7.31948 22.2638 7.31313 28.4108 7.30044 34.5545C7.30044 36.7449 7.10362 36.9259 4.88145 36.9449C3.72593 36.9449 2.5704 36.9449 1.41805 36.9449C0.402203 36.9449 0.0117372 36.4846 0.0149118 35.4688C0.0339589 24.4638 0.0339589 13.4693 0.0149118 2.48551C0.0149118 1.45379 0.414901 1.03475 1.43075 1.04427C3.84021 1.06332 6.24967 1.04427 8.65913 1.04427C11.0686 1.04427 11.1575 1.07284 11.8083 3.33945C13.6685 9.80912 15.5172 16.282 17.3541 22.758C17.5224 23.3389 17.751 23.904 17.9541 24.4786H18.37C18.5668 23.9516 18.8017 23.4373 18.9573 22.8913C20.881 16.2248 22.8302 9.55834 24.6714 2.89185C25.0428 1.5522 25.6619 0.987131 27.0714 1.03475C29.5792 1.11411 32.0903 1.08554 34.6013 1.03475C35.76 1.0157 36.3124 1.31728 36.306 2.64423C36.2595 13.5879 36.2595 24.5315 36.306 35.4751C36.306 36.4973 35.9505 36.964 34.9315 36.9576C33.5252 36.9576 32.122 36.9354 30.7157 36.9576C29.6205 36.9798 29.2459 36.5005 29.2459 35.4085C29.2459 28.9642 29.1888 22.5167 29.138 16.0693C29.138 15.3995 29.03 14.7296 28.9761 14.0598L28.5285 13.9836C28.3539 14.4408 28.1443 14.8915 28.0078 15.3614C26.338 21.0596 24.6397 26.7738 23.0651 32.4879C22.6588 33.9672 21.8778 34.5672 20.4303 34.5482C18.9255 34.5291 17.4176 34.5196 15.9129 34.5482C14.4082 34.5767 13.6717 33.9133 13.2717 32.4784C11.7194 26.8404 10.0686 21.2374 8.42739 15.628C8.24459 15.1086 8.03262 14.5998 7.79249 14.1042L7.31948 14.2503Z" fill="#375D99"/>
<path d="M88.476 19.9647C88.8316 19.1076 89.0379 18.6759 89.1903 18.2283C91.0633 12.7491 92.9743 7.28253 94.7616 1.77791C95.2346 0.32398 96.0631 0.0541471 97.3583 0.346203C98.5805 0.619212 99.8091 0.876348 101.031 1.16523C102.66 1.54617 102.85 1.88585 102.269 3.46358C99.7064 10.4475 97.1361 17.4315 94.5584 24.4154C93.7457 26.6185 92.9362 28.8216 92.0759 31.0057C89.9522 36.4024 84.8571 37.7452 80.6477 37.5516C80.2667 37.5357 79.762 37.0119 79.5842 36.5992C79.3334 36.0278 79.3334 35.3294 79.2223 34.6945C78.7207 31.7771 78.7207 31.7771 81.6191 31.2025C83.8031 30.7645 85.0317 29.5645 85.2856 27.4693C83.0635 27.4471 82.746 25.6344 82.1556 24.0599C79.6159 17.1775 77.0763 10.2909 74.5367 3.40009C73.9653 1.83823 74.1462 1.52078 75.8065 1.14618C77.1271 0.847779 78.4541 0.574769 79.7778 0.30176C80.9873 0.0509728 81.6826 0.412868 82.1048 1.7049C83.9619 7.39999 85.9301 13.0602 87.8634 18.7299C87.984 19.006 88.1364 19.2568 88.476 19.9647Z" fill="#375D99"/>
<path d="M61.8261 0L70.1592 1.06029C71.2544 1.19679 71.5909 1.78725 71.3591 2.84119C71.0607 4.20624 70.8639 5.59668 70.5655 6.96807C70.3687 7.86964 69.9306 8.15217 68.8386 7.99344C65.7285 7.50099 62.5918 7.19463 59.4452 7.076C55.6357 6.98712 54.0834 8.34581 53.5818 12.06C52.8742 16.9143 52.947 21.8505 53.7977 26.6818C54.2707 29.2215 55.4103 30.1897 58.0198 30.6278C61.6134 31.2278 65.1307 30.7357 68.5973 29.8913C69.9687 29.5548 70.4544 29.996 70.6607 31.2024C70.883 32.5325 71.1052 33.8658 71.375 35.1864C71.5591 36.0879 71.3115 36.6403 70.3528 36.8181C64.9212 37.8276 59.4769 38.1419 54.0643 36.8181C50.1311 35.8657 47.6232 33.2531 46.5026 29.4024C44.563 22.7359 44.5789 15.9393 46.1693 9.2442C47.5375 3.47927 51.0168 0.933306 58.1754 0.323798C59.3753 0.222213 60.588 0.323798 61.7911 0.323798L61.8261 0Z" fill="#375D99"/>
<path d="M139.687 8.50202L133.338 12.0829C132.9 12.3273 132.465 12.7178 132.011 12.7495C131.558 12.7813 130.999 12.4987 130.516 12.2924C130.373 12.2321 130.307 11.9749 130.221 11.7845C127.932 6.90841 127.764 8.04806 132.126 5.43543C134.348 4.09896 136.646 2.84185 138.967 1.66728C141.287 0.492703 143.881 1.09268 146.354 1.22284C146.598 1.22284 146.97 2.26726 146.973 2.82597C147.009 10.7178 147.009 18.6086 146.973 26.4984C146.973 29.4443 146.878 32.3935 146.919 35.3362C146.919 36.4791 146.602 37.0092 145.395 36.9648C144.091 36.914 142.786 36.9267 141.481 36.9648C140.246 36.9965 139.846 36.4346 139.849 35.2283C139.872 27.0857 139.849 18.9462 139.821 10.8067C139.83 10.1813 139.757 9.55913 139.687 8.50202Z" fill="#375D99"/>
<path d="M113.615 25.863C111.659 25.863 109.704 25.828 107.748 25.863C106.583 25.8884 106.094 25.3804 106.117 24.2535C106.139 23.1265 106.117 22.0599 106.117 20.9615C106.117 19.9806 106.634 19.4758 107.602 19.4727C111.713 19.4727 115.828 19.4727 119.939 19.4727C120.891 19.4727 121.224 19.9869 121.307 20.879C121.764 25.8503 121.761 25.8661 116.774 25.8947C115.72 25.8947 114.666 25.8947 113.599 25.8947L113.615 25.863Z" fill="#375D99"/>
</svg>
