<svg width="193" height="49" viewBox="0 0 193 49" fill="none" xmlns="http://www.w3.org/2000/svg">
<path d="M29.7088 48.4405C30.7669 47.3051 31.7526 46.1745 32.8155 45.1261C38.391 39.6327 43.6284 33.8639 47.7062 27.1384C49.6726 23.8964 51.3492 20.5144 51.8855 16.7168C52.3155 13.6633 52.0401 10.7209 49.4117 8.55641C47.9169 7.374 46.0751 6.71536 44.1695 6.68178C39.1882 6.41121 34.6949 8.06842 30.3562 10.2619C25.2923 12.8958 20.6271 16.2337 16.4995 20.1762C16.2645 20.4253 15.9768 20.6187 15.6575 20.7424C15.3382 20.8661 14.9953 20.917 14.6538 20.8913C13.777 20.8919 12.9014 20.8241 12.0352 20.6883C13.7165 19.1954 15.3737 17.6735 17.0889 16.2192C22.6596 11.5036 28.5396 7.24707 35.2602 4.27569C39.0578 2.59915 42.9906 1.44443 47.1989 1.5169C52.5425 1.6087 56.3063 5.0584 56.8088 10.3489C57.2919 15.1804 55.8183 19.5964 53.8567 23.8771C50.9095 30.3127 46.7544 35.9559 42.0823 41.2319C40.1014 43.4689 38.0094 45.6093 35.9077 47.7351C35.4494 48.1344 34.8717 48.3706 34.2649 48.4067C32.7382 48.4985 31.2066 48.4405 29.7088 48.4405Z" fill="#375D99"/>
<path d="M150.395 33.3465C150.357 30.0466 150.748 26.8336 152.328 23.8574C153.777 21.0841 155.85 19.0259 159.092 18.5428C165.373 17.5765 168.799 21.2484 170.354 25.3987C171.454 28.5456 171.866 31.8918 171.562 35.2115C171.478 37.6601 170.928 40.0704 169.944 42.3138C168.62 45.1064 166.668 47.3096 163.542 47.9908C158.831 49.0151 154.869 47.5077 152.4 43.0192C151.212 40.8692 150.289 37.6321 150.395 33.3465ZM154.816 33.3465C154.685 35.4427 155.015 37.5421 155.782 39.497C156.831 42.0771 158.778 43.4975 161.208 43.4299C163.494 43.3671 164.89 41.9804 165.885 40.1203C166.774 38.4438 167.016 36.6078 167.146 34.7573C167.344 32.0372 167.146 29.3557 166.083 26.8095C165.436 25.2876 164.407 24.0169 162.764 23.5289C159.793 22.6399 157.246 23.7511 155.821 26.9593C155 28.9812 154.656 31.1652 154.816 33.3417V33.3465Z" fill="#375D99"/>
<path d="M175.34 33.3613C175.34 28.955 175.34 24.5502 175.34 20.1471C175.34 18.8813 175.34 18.8813 176.65 18.8813C177.312 18.8813 177.978 18.9199 178.636 18.8813C179.365 18.8233 179.602 19.0649 179.602 19.8476C179.558 22.9929 179.602 26.1285 179.563 29.2835C179.563 30.1822 179.858 30.4092 180.694 30.3948C182.902 30.3513 185.115 30.3416 187.318 30.3948C188.26 30.3948 188.477 30.0807 188.463 29.1965C188.415 26.085 188.463 22.9687 188.429 19.8572C188.429 19.1132 188.632 18.8378 189.395 18.8909C190.245 18.9465 191.097 18.9465 191.946 18.8909C192.666 18.8474 192.855 19.1277 192.85 19.8186C192.826 24.9786 192.85 30.1338 192.85 35.2794C192.85 39.1446 192.85 43.0098 192.85 46.875C192.85 47.6287 192.632 47.8848 191.884 47.8413C191.033 47.7834 190.179 47.7834 189.328 47.8413C188.598 47.8848 188.424 47.5901 188.434 46.9089C188.458 43.3239 188.434 39.7341 188.468 36.1491C188.468 35.2649 188.192 35.0137 187.342 35.0282C185.107 35.0733 182.868 35.0733 180.626 35.0282C179.79 35.0282 179.558 35.2987 179.568 36.1201C179.607 39.7051 179.568 43.29 179.602 46.875C179.602 47.6239 179.394 47.8945 178.636 47.8413C177.849 47.7785 177.059 47.7785 176.273 47.8413C175.485 47.9041 175.307 47.5659 175.307 46.875C175.331 42.5991 175.307 38.3233 175.307 34.0425L175.34 33.3613Z" fill="#375D99"/>
<path d="M81.696 35.7433H77.1737C74.7145 35.7433 74.7145 35.7433 74.7145 33.2841C74.7145 30.9795 74.7145 30.9843 77.0433 30.9795C78.4927 30.9795 79.9422 30.9795 81.3916 30.9505C81.4496 30.9505 81.5076 30.9022 81.5607 30.878C81.9231 28.7715 80.3046 25.0802 78.5362 23.9351C77.6156 23.33 76.4936 23.1124 75.4135 23.3295C74.3335 23.5466 73.3827 24.1809 72.7674 25.0947C72.1946 26.0276 71.6814 26.9958 71.231 27.9936L67.2836 26.8099C67.4817 23.5534 70.1052 18.92 74.758 18.4948C79.4107 18.0697 82.6913 20.0458 84.6094 24.5584C85.529 26.8287 86.0582 29.2381 86.1748 31.6849C86.4282 34.7812 86.0854 37.8975 85.1651 40.8647C84.5029 43.0088 83.2823 44.9381 81.6284 46.4548C78.7005 49.1218 71.7866 49.2716 69.0665 44.4449C68.2354 42.9616 67.7909 41.2609 67.2208 39.6424C67.2103 39.506 67.2356 39.3692 67.294 39.2455C67.3525 39.1218 67.4421 39.0155 67.5542 38.937C68.7524 38.4007 69.97 37.9272 71.3035 37.3909C71.4581 38.0576 71.5788 38.6326 71.7286 39.1979C72.0236 40.5624 72.7815 41.7829 73.8738 42.6524C74.6576 43.2506 75.6296 43.5488 76.614 43.493C77.5985 43.4371 78.5305 43.031 79.2416 42.348C80.6911 40.9904 81.1211 39.1979 81.4834 37.3667C81.5946 36.8787 81.6187 36.3859 81.696 35.7433Z" fill="#375D99"/>
<path d="M146.487 33.3572C146.487 37.8264 146.487 42.2907 146.487 46.755C146.487 47.5522 146.322 47.9242 145.448 47.8373C144.726 47.7648 144 47.7648 143.278 47.8373C142.414 47.9194 142.225 47.5715 142.225 46.7647C142.254 39.5174 142.225 32.2363 142.225 24.9697C142.225 23.6556 142.225 23.6556 140.872 23.6556H136.524C135.306 23.6556 135.306 23.6556 135.306 24.9166C135.306 30.0428 135.306 35.169 135.273 40.2953C135.268 41.6105 135.152 42.923 134.925 44.2185C134.379 47.2526 132.712 48.1561 129.803 47.9822C127.842 47.8663 127.847 47.8034 127.847 45.8177C127.847 45.6921 127.847 45.5665 127.847 45.4408C127.847 44.8466 127.692 44.1218 127.977 43.7015C128.18 43.3923 128.992 43.4937 129.528 43.4019C130.552 43.228 130.977 42.7594 131.069 41.6916C131.161 40.6238 131.209 39.6237 131.209 38.5898C131.209 32.4247 131.209 26.2597 131.209 20.0947C131.209 19.1816 131.407 18.8434 132.407 18.8579C136.756 18.9158 141.104 18.8965 145.453 18.8579C146.221 18.8579 146.487 19.056 146.477 19.858C146.467 24.3658 146.487 28.8639 146.487 33.3572Z" fill="#375D99"/>
<path d="M104.723 47.8227C105.177 46.238 105.578 44.832 105.989 43.4309C108.308 35.5797 110.642 27.7381 112.936 19.8773C113.164 19.1042 113.502 18.8047 114.309 18.8675C115.222 18.9279 116.139 18.9279 117.053 18.8675C117.686 18.8288 117.927 19.109 118.097 19.6695C120.847 28.7334 123.603 37.7957 126.363 46.8564C126.441 47.1173 126.494 47.3927 126.595 47.8227C125.146 47.8227 123.754 47.8517 122.387 47.7889C122.174 47.7889 121.904 47.3734 121.797 47.098C121.272 45.4263 120.776 43.7433 120.309 42.0491C120.295 41.9199 120.255 41.795 120.191 41.6817C120.128 41.5684 120.042 41.4691 119.939 41.3897C119.836 41.3104 119.719 41.2525 119.593 41.2197C119.467 41.1869 119.336 41.1797 119.208 41.1987C116.749 41.2422 114.284 41.2277 111.825 41.1987C111.712 41.1811 111.597 41.1867 111.486 41.2153C111.375 41.2438 111.271 41.2947 111.181 41.3649C111.09 41.435 111.015 41.5228 110.96 41.623C110.904 41.7232 110.87 41.8337 110.859 41.9476C110.414 43.6773 109.893 45.3876 109.443 47.1173C109.434 47.2253 109.403 47.3301 109.351 47.4255C109.3 47.5208 109.229 47.6046 109.144 47.6716C109.059 47.7386 108.961 47.7874 108.856 47.8151C108.751 47.8428 108.642 47.8486 108.535 47.8324C107.308 47.8034 106.095 47.8227 104.723 47.8227ZM118.638 36.372C117.618 32.7677 116.633 29.2745 115.647 25.7765H115.347L112.448 36.3624L118.638 36.372Z" fill="#375D99"/>
<path d="M18.1618 20.7995C24.1239 16.3206 29.9796 12.1027 37.2317 10.5567C38.9233 10.2162 40.661 10.1721 42.3676 10.4262C45.3583 10.8562 47.1992 13.1947 47.3344 16.224C47.4794 19.3258 46.5855 22.1813 45.3052 24.9207C42.8025 30.3175 39.1982 34.9799 35.0431 39.2075C32.062 42.2272 28.8346 45.0053 25.6748 47.8463C25.2196 48.2108 24.6584 48.4177 24.0755 48.4357C21.9497 48.5033 19.8238 48.4647 17.6931 48.4647C19.8721 47.2665 22.0898 46.2084 24.1432 44.899C31.0184 40.5507 36.6181 34.922 40.4544 27.6892C41.7583 25.4234 42.5376 22.8941 42.7348 20.2873C42.9474 15.8375 39.6958 14.4509 36.2799 14.9147C31.8205 15.5186 27.8441 17.4319 24.0707 19.7124C22.2347 20.8043 20.4133 21.0217 18.1618 20.7995Z" fill="#375D99"/>
<path d="M94.9827 35.7002C94.9827 32.0186 94.9827 28.337 94.9827 24.6554C94.9827 23.8872 94.7894 23.6069 93.9825 23.6408C92.4413 23.6987 90.8904 23.6408 89.3491 23.6698C88.6775 23.6698 88.4505 23.4475 88.4746 22.8001C88.5084 21.7613 88.4746 20.7225 88.4746 19.6838C88.4746 19.1571 88.6051 18.8721 89.2138 18.8721C94.5124 18.8914 99.811 18.8914 105.11 18.8721C105.665 18.8721 105.815 19.1136 105.805 19.6161C105.781 20.7177 105.776 21.8193 105.805 22.9209C105.805 23.52 105.559 23.6698 105.013 23.6601C103.467 23.6359 101.916 23.7036 100.375 23.6311C99.4422 23.5876 99.2054 23.921 99.2102 24.81C99.2392 31.98 99.2102 39.1548 99.2102 46.3247C99.2514 46.6042 99.2432 46.8887 99.1861 47.1654C99.0798 47.4166 98.8141 47.7693 98.6015 47.7838C97.5965 47.8515 96.5819 47.7838 95.5721 47.8225C94.8715 47.8225 94.9488 47.3683 94.9488 46.9238L94.9827 35.7002Z" fill="#375D99"/>
<path d="M3.66724 27.0609C4.58039 25.7758 5.56602 25.1718 7.1266 25.2201C11.2189 25.3409 15.3402 25.2829 19.418 25.2201C19.7891 25.2007 20.1599 25.2659 20.5022 25.4107C20.8445 25.5555 21.1495 25.7761 21.394 26.056C22.5826 27.3074 23.8388 28.5007 24.979 29.6313L21.6743 32.9264L20.9399 32.2983C21.394 31.8152 21.7661 31.3707 22.2057 30.9841C22.8242 30.4478 22.9401 30.0178 22.2057 29.4091C21.6197 28.9079 21.0752 28.3602 20.5775 27.7712C20.3652 27.5231 20.0977 27.3284 19.7965 27.2025C19.4952 27.0766 19.1687 27.0232 18.843 27.0465C14.084 27.0754 9.32977 27.0465 4.57073 27.0465L3.66724 27.0609Z" fill="#375D99"/>
<path d="M27.2595 27.6899L25.81 29.0283C24.4524 27.6996 23.0078 26.3564 21.6501 24.9263C21.3724 24.6151 21.0276 24.3712 20.6417 24.213C20.2558 24.0548 19.839 23.9864 19.4228 24.0132C15.2339 24.0566 11.0498 24.0132 6.70142 24.0132C7.70154 22.9406 8.41177 21.9694 10.0835 22.0419C13.7023 22.2013 17.3307 22.0806 20.9544 22.1047C21.352 22.0857 21.7447 22.1996 22.0704 22.4284C23.7615 24.0277 25.4042 25.68 27.0566 27.3227C27.1358 27.4384 27.2037 27.5613 27.2595 27.6899V27.6899Z" fill="#375D99"/>
<path d="M7.98649 40.4492C7.11682 44.4062 7.78356 46.9428 11.0545 48.4067H0L7.98649 40.4492Z" fill="#375D99"/>
<path d="M13.939 39.328C14.9053 37.9945 15.8716 37.1635 17.5819 37.3616C19.0314 37.5355 20.5436 37.3616 22.0221 37.4148C22.3319 37.4349 22.6423 37.384 22.9295 37.2659C23.2167 37.1479 23.4732 36.9658 23.6793 36.7335C25.4814 34.8831 27.3271 33.0809 29.1437 31.2449C29.4307 30.9189 29.697 30.5752 29.9409 30.2158L31.3469 31.8295L26.3318 36.864C26.2074 36.9589 26.0925 37.0657 25.9888 37.1829C24.6794 39.1155 22.8338 39.5455 20.5968 39.3667C18.3598 39.1879 16.2291 39.328 13.939 39.328Z" fill="#375D99"/>
<path d="M144.153 6.75992C144.517 5.44252 144.876 4.12352 145.231 2.80291C145.443 2.04436 146.733 1.53222 147.381 1.99605C147.459 2.08553 147.519 2.18965 147.557 2.30241C147.595 2.41517 147.611 2.53437 147.603 2.65313C147.603 4.62922 147.603 6.61014 147.603 8.59106C147.603 9.01624 147.53 9.42208 147.009 9.28197C146.86 9.22723 146.728 9.13693 146.622 9.019C146.517 8.90107 146.442 8.75911 146.405 8.60556C146.342 7.3542 146.376 6.09317 146.366 4.83698C146.366 4.54709 146.327 4.2572 146.308 3.97214L146.047 3.93832C145.849 4.70169 145.646 5.46507 145.448 6.22362C145.25 6.98217 145.003 7.79386 144.844 8.59106C144.738 9.10803 144.515 9.46074 143.984 9.2868C143.814 9.23232 143.657 9.14382 143.523 9.0267C143.388 8.90958 143.279 8.76629 143.201 8.60556C142.742 7.05464 142.365 5.47957 141.96 3.91416H141.704C141.655 4.15166 141.623 4.39218 141.607 4.63405C141.607 5.95306 141.631 7.27689 141.568 8.59589C141.533 8.75017 141.46 8.89342 141.357 9.01305C141.253 9.13267 141.122 9.22502 140.974 9.28197C140.467 9.42691 140.365 9.04039 140.37 8.60556C140.37 6.67295 140.37 4.70653 140.37 2.75943C140.37 2.47437 140.713 1.9429 140.824 1.96223C141.457 2.05886 142.361 1.41627 142.67 2.49853C143.076 3.90933 143.453 5.32496 143.839 6.74059L144.153 6.75992Z" fill="#375D99"/>
<path d="M17.3259 28.448C15.7895 29.9796 14.2965 31.4773 12.8181 32.9268C11.0304 34.6999 9.19447 36.4296 7.46962 38.2414C7.16037 38.6323 6.75403 38.9352 6.29115 39.1201C5.82828 39.3049 5.32503 39.3651 4.83162 39.2947C4.43582 39.2699 4.03886 39.2699 3.64307 39.2947C3.9088 38.9903 4.06824 38.7826 4.25667 38.599L13.3689 29.5447C14.7797 28.1726 15.1276 28.0663 17.3259 28.448Z" fill="#375D99"/>
<path d="M19.3841 28.8398L20.6355 30.1443C20.4035 30.3956 20.1861 30.6275 19.9494 30.8836C17.6641 33.1785 15.2918 35.3962 13.1273 37.7975C11.9049 39.1503 10.6004 39.6189 9.02051 39.2469L19.3841 28.8398Z" fill="#375D99"/>
<path d="M179.423 6.69174C180.273 5.31959 181.095 3.92812 181.993 2.58496C182.246 2.2648 182.598 2.03719 182.993 1.93754C183.515 1.78776 183.786 2.039 183.781 2.64294C183.752 4.61903 183.781 6.59995 183.781 8.58087C183.781 8.99154 183.752 9.31042 183.196 9.32009C182.641 9.32975 182.539 8.98188 182.544 8.53255C182.544 7.56625 182.544 6.59994 182.544 5.63364C182.544 5.34375 182.481 5.05386 182.447 4.75914L182.201 4.70116C181.355 6.03949 180.486 7.36815 179.674 8.73547C179.574 8.96683 179.392 9.15322 179.163 9.25921C178.934 9.36521 178.674 9.38343 178.432 9.31042C178.215 9.25244 177.906 8.95289 177.901 8.7548C177.862 6.68208 177.857 4.60937 177.901 2.53665C177.901 2.33373 178.287 2.14046 178.495 1.94237C178.698 2.15495 179.051 2.35788 179.065 2.58013C179.128 3.61407 179.089 4.65285 179.104 5.68679C179.104 6.0105 179.152 6.33421 179.181 6.65309L179.423 6.69174Z" fill="#375D99"/>
<path d="M191.202 4.69671C190.376 6.01571 189.564 7.34437 188.704 8.63922C188.514 8.94005 188.228 9.16811 187.893 9.28665C187.289 9.44609 186.902 9.28664 186.926 8.47978C186.98 6.54717 186.926 4.65323 186.926 2.73995C186.926 2.32444 186.868 1.90892 187.511 1.90409C188.154 1.89926 188.125 2.29062 188.125 2.71579C188.087 4.03678 188.158 5.3586 188.337 6.66796C188.544 6.4419 188.736 6.20307 188.912 5.9529C189.627 4.80783 190.362 3.6676 191.024 2.49837C191.12 2.26633 191.303 2.08103 191.534 1.98181C191.765 1.88259 192.026 1.87724 192.26 1.9669C192.502 2.06836 192.676 2.58534 192.681 2.93321C192.719 4.78851 192.705 6.63897 192.681 8.48944C192.681 8.89529 192.729 9.31563 192.091 9.33496C191.454 9.35428 191.454 8.90496 191.454 8.45563V4.80783L191.202 4.69671Z" fill="#375D99"/>
<path d="M16.949 36.072C17.3239 35.7875 17.6746 35.4723 17.9974 35.1299C18.2084 34.8367 18.4988 34.61 18.8343 34.4765C19.1699 34.3429 19.5367 34.3081 19.8914 34.3761C21.2828 34.5936 22.3071 34.0863 23.2734 33.033C24.6987 31.4482 26.2979 30.0181 27.8247 28.5252C27.8934 28.4783 27.9682 28.4409 28.047 28.4141C28.2161 28.5542 28.3997 28.7136 28.5929 28.8586C29.2355 29.3417 29.2645 29.7427 28.6412 30.3515C26.8246 32.1295 25.0804 33.9848 23.2879 35.7821C23.0418 36.0454 22.7125 36.216 22.3554 36.2653C20.6016 36.3136 18.8429 36.2653 17.0891 36.2653L16.949 36.072Z" fill="#375D99"/>
<path d="M137.63 5.65269C137.63 8.06845 136.331 9.38744 134.016 9.36329C131.702 9.33913 130.514 8.0008 130.523 5.49808C130.523 3.14513 131.818 1.83097 134.094 1.84063C136.369 1.85029 137.645 3.20311 137.63 5.65269ZM136.205 5.65269C136.224 5.36957 136.224 5.08546 136.205 4.80234C136.172 4.4396 136.045 4.09181 135.836 3.79321C135.627 3.49462 135.344 3.25552 135.015 3.09948C134.686 2.94344 134.322 2.87583 133.959 2.90332C133.596 2.93082 133.246 3.05245 132.944 3.25626C131.915 3.90368 131.866 4.95212 131.924 6.01022C131.916 6.43739 132.029 6.85822 132.25 7.22354C132.472 7.58885 132.793 7.88357 133.176 8.07327C134.751 8.86081 136.215 7.69159 136.205 5.65752V5.65269Z" fill="#375D99"/>
<path d="M168.774 5.6092C168.774 4.60425 168.774 3.59929 168.774 2.59434C168.774 2.11119 168.919 1.90826 169.422 1.90343C169.924 1.8986 170.205 2.06288 170.147 2.604C170.147 2.66681 170.147 2.72962 170.147 2.79243C170.19 5.01493 170.528 5.29515 172.785 4.87964C172.911 4.82979 173.024 4.75019 173.113 4.64758C173.202 4.54497 173.265 4.42238 173.297 4.2902C173.351 3.72811 173.359 3.16256 173.321 2.59917C173.321 2.11602 173.451 1.90826 173.959 1.90343C174.466 1.8986 174.703 2.05321 174.698 2.59917C174.698 4.60908 174.698 6.62382 174.698 8.63373C174.698 9.11688 174.558 9.3198 174.05 9.3198C173.543 9.3198 173.292 9.16519 173.321 8.61923C173.35 8.07327 173.321 7.48866 173.321 6.92337C173.321 6.73494 173.388 6.49337 173.297 6.36775C172.644 5.44976 171.688 6.11651 170.881 5.95224C170.398 5.85078 170.122 6.11168 170.142 6.64798C170.142 7.30989 170.142 7.96698 170.142 8.6289C170.166 9.17969 169.915 9.32463 169.402 9.3198C168.89 9.31497 168.755 9.08789 168.76 8.62406C168.789 7.61911 168.774 6.61416 168.774 5.6092Z" fill="#375D99"/>
<path d="M92.8761 5.61896C92.8761 4.65266 92.8761 3.68636 92.8761 2.72005C92.8761 2.18376 93.0017 1.91319 93.6105 1.92286C95.0599 1.95668 96.5094 1.95185 97.9588 1.92286C98.5096 1.92286 98.6739 2.1596 98.6691 2.65725C98.6691 4.63817 98.6691 6.61426 98.6401 8.59034C98.6064 8.7455 98.5362 8.89041 98.4354 9.01307C98.3346 9.13573 98.206 9.23263 98.0603 9.29574C97.4902 9.45518 97.4129 9.02518 97.4129 8.56136C97.4129 6.99111 97.4129 5.42087 97.4129 3.85546C97.4129 3.19838 97.1568 2.98579 96.5239 2.9568C94.2434 2.86017 94.2434 2.84568 94.2434 5.05851C94.2434 6.25189 94.2434 7.44527 94.2434 8.63865C94.2434 9.18461 94.026 9.33922 93.5138 9.33439C93.0017 9.32956 92.8568 9.11214 92.8664 8.64832C92.8857 7.62887 92.8761 6.62391 92.8761 5.61896Z" fill="#375D99"/>
<path d="M159 9.33436L161.174 3.81194C161.373 3.32879 161.542 2.81182 161.769 2.32867C161.996 1.84551 163.271 1.68608 163.498 2.22721C164.465 4.52217 165.378 6.84613 166.32 9.18941C165.354 9.48413 164.74 9.31986 164.542 8.34873C164.526 8.22336 164.484 8.10281 164.418 7.99521C164.351 7.88761 164.263 7.79546 164.158 7.72495C164.053 7.65445 163.934 7.60723 163.81 7.58648C163.685 7.56573 163.558 7.57193 163.436 7.60467C163.092 7.64579 162.745 7.64579 162.402 7.60467C161.474 7.48872 160.841 7.71097 160.633 8.75458C160.455 9.57593 159.768 9.25222 159 9.33436ZM162.764 3.7443H162.474C162.17 4.58982 161.87 5.43533 161.537 6.35331H163.745C163.387 5.42083 163.078 4.58015 162.764 3.7443Z" fill="#375D99"/>
<path d="M117.483 9.19932C116.425 9.49888 115.86 9.23314 115.666 8.291C115.55 7.72571 115.183 7.55661 114.623 7.60492C114.215 7.65084 113.803 7.65084 113.396 7.60492C112.55 7.48897 112.028 7.7547 111.835 8.63887C111.642 9.52303 110.994 9.35876 110.245 9.19932C110.593 8.27651 110.912 7.40683 111.245 6.54199C111.782 5.17468 112.308 3.7977 112.893 2.4497C112.972 2.31808 113.081 2.2062 113.209 2.1225C113.338 2.0388 113.485 1.98548 113.637 1.96655C113.985 1.96655 114.56 2.08734 114.661 2.31442C115.637 4.56107 116.536 6.83672 117.483 9.19932ZM114.922 6.39222L113.922 3.73489L113.632 3.78803L112.666 6.39222H114.922Z" fill="#375D99"/>
<path d="M150.777 5.6142C150.777 4.6479 150.777 3.68159 150.777 2.69113C150.777 2.14034 150.932 1.89393 151.531 1.90359C152.946 1.93741 154.367 1.93741 155.782 1.90359C156.372 1.90359 156.551 2.12101 156.546 2.68147C156.546 4.66239 156.546 6.63848 156.546 8.6194C156.546 9.06873 156.415 9.43109 155.923 9.28131C155.775 9.22242 155.643 9.12896 155.539 9.00874C155.435 8.88853 155.361 8.74508 155.324 8.59041C155.27 7.08781 155.27 5.57555 155.324 4.06812C155.324 3.28541 155.116 2.92304 154.261 2.93754C151.748 2.99068 152.086 2.73462 152.062 5.09239C152.062 6.16499 152.062 7.23275 152.062 8.30052C152.062 8.72569 152.251 9.29581 151.458 9.31997C150.666 9.34412 150.83 8.79333 150.821 8.35366C150.767 7.43568 150.777 6.52252 150.777 5.6142Z" fill="#375D99"/>
<path d="M107.699 5.59057C107.699 6.59552 107.699 7.60531 107.699 8.61026C107.699 9.04993 107.588 9.43162 107.086 9.28184C106.936 9.22776 106.803 9.13776 106.697 9.01978C106.59 8.90181 106.515 8.7595 106.477 8.60543C106.419 7.06901 106.419 5.52776 106.477 3.98651C106.477 3.20864 106.197 2.92841 105.424 2.9429C102.897 2.98155 103.235 2.73514 103.211 5.08326C103.211 6.24282 103.245 7.41205 103.182 8.57161C103.15 8.72731 103.081 8.87304 102.981 8.99661C102.881 9.12017 102.752 9.21798 102.607 9.28184C102.037 9.44128 101.955 9.01127 101.955 8.54745C101.955 6.61484 101.979 4.64842 101.955 2.70133C101.955 2.0684 102.191 1.88963 102.795 1.90412C104.184 1.93955 105.57 1.93955 106.955 1.90412C107.525 1.90412 107.743 2.09738 107.728 2.6675C107.68 3.64347 107.699 4.61943 107.699 5.59057Z" fill="#375D99"/>
<path d="M124.677 5.16513C124.952 4.91251 125.199 4.63243 125.416 4.32928C125.697 3.84613 125.837 3.26152 126.156 2.80736C126.425 2.43634 126.796 2.1511 127.223 1.986C127.523 1.88937 127.934 2.12128 128.291 2.20342C128.064 2.44016 127.832 2.68657 127.61 2.91365C127.32 3.18178 127.059 3.47976 126.832 3.80265C126.508 4.33411 126.267 4.90906 126.064 5.31008C126.822 6.60492 127.547 7.85145 128.301 9.15113C126.808 9.47484 126.755 9.44585 126.204 8.27179C125.974 7.72206 125.703 7.19065 125.392 6.68222C125.151 6.4151 124.871 6.1855 124.561 6.00099L124.334 6.16526C124.334 6.94313 124.334 7.72583 124.334 8.5037C124.334 9.01584 124.267 9.3299 123.629 9.3299C122.991 9.3299 122.957 8.94338 122.962 8.46989C122.962 6.58077 122.962 4.69648 122.962 2.80736C122.962 2.32421 122.962 1.88454 123.682 1.89903C124.402 1.91352 124.344 2.30488 124.339 2.7687C124.339 3.51759 124.339 4.26647 124.339 5.01052L124.677 5.16513Z" fill="#375D99"/>
<path d="M76.5503 5.57545C76.5503 4.63331 76.5503 3.69116 76.5503 2.74902C76.5503 2.17407 76.7001 1.86485 77.3524 1.90834C78.4153 1.98081 79.4927 1.90833 80.5412 2.07744C81.5896 2.24654 82.1259 3.04374 82.1452 4.09701C82.1904 4.58869 82.0557 5.08008 81.766 5.47994C81.4764 5.87979 81.0514 6.16094 80.5702 6.27119C79.9594 6.41551 79.3324 6.47886 78.7052 6.45962C77.9756 6.43546 77.7389 6.72052 77.8017 7.39693C77.8355 7.80278 77.8017 8.21346 77.8017 8.62413C77.8017 9.03481 77.6664 9.431 77.1784 9.28122C77.0302 9.22383 76.8984 9.13075 76.7947 9.01023C76.6911 8.88971 76.6187 8.74548 76.5842 8.59032C76.5117 7.5902 76.5503 6.58041 76.5503 5.57545ZM78.8453 5.46916L78.9274 5.30972H79.1159C79.7778 5.30972 80.4542 5.23241 80.5653 4.4787C80.6281 4.11633 80.3721 3.40611 80.1257 3.3433C79.4245 3.14185 78.6846 3.1153 77.9708 3.26599C77.792 3.30948 77.7485 4.36274 77.8597 4.9087C77.9177 5.15028 78.5071 5.28556 78.8453 5.46916Z" fill="#375D99"/>
<path d="M84.1843 2.02919C85.1216 1.76346 85.7063 1.88908 86.0445 2.81189C86.4192 3.81925 86.9278 4.77156 87.5567 5.64316C87.9239 4.73484 88.3539 3.84101 88.639 2.90369C88.8999 2.04852 89.3492 1.70548 90.2914 1.99537C90.2459 2.19215 90.1878 2.38581 90.1174 2.57515C89.3009 4.41112 88.4844 6.24227 87.6437 8.06858C87.262 8.88994 86.7015 9.51803 85.6773 9.31027C85.4695 9.27162 85.3004 9.02038 85.112 8.86578C85.2714 8.68701 85.4067 8.38263 85.5951 8.35364C86.8078 8.04442 87.0446 7.61442 86.4648 6.48867C85.7256 5.01506 84.9622 3.54629 84.1843 2.02919Z" fill="#375D99"/>
<path d="M69.168 5.60008C69.168 4.63378 69.168 3.66747 69.168 2.67701C69.168 2.11656 69.3661 1.88948 69.9458 1.90397C71.0764 1.93779 72.2166 1.90397 73.3279 1.94262C73.5646 1.94262 73.7821 2.276 74.0091 2.45476C73.7966 2.61903 73.5888 2.89926 73.3617 2.93791C72.7007 2.98625 72.037 2.98625 71.376 2.93791C70.6802 2.90892 70.4097 3.21331 70.4338 3.90422C70.458 5.41165 70.4338 6.91908 70.4338 8.43135C70.4338 8.87101 70.487 9.32034 69.7912 9.32034C69.0955 9.32034 69.1486 8.87101 69.1486 8.43135C69.1631 7.48437 69.168 6.54222 69.168 5.60008Z" fill="#375D99"/>
<path d="M188.579 0C189.545 0.758547 189.545 0.758541 191.207 0.0917925C191.219 0.271778 191.19 0.452077 191.124 0.619752C191.057 0.787428 190.955 0.93833 190.823 1.06163C190.691 1.18494 190.534 1.27759 190.362 1.33294C190.191 1.3883 190.009 1.40499 189.83 1.38181C189.651 1.39469 189.471 1.36662 189.304 1.29972C189.138 1.23283 188.988 1.12886 188.868 0.99571C188.747 0.862557 188.659 0.703703 188.608 0.531189C188.558 0.358674 188.548 0.177026 188.579 0V0Z" fill="#375D99"/>
</svg>
