<svg width="54" height="83" viewBox="0 0 54 83" fill="none" xmlns="http://www.w3.org/2000/svg">
<path d="M0.26001 71.5752H54V82.6558H0.26001V71.5752Z" fill="#375D99"/>
<path d="M52.9157 56.2681C49.2069 56.2681 45.6743 56.3064 42.1455 56.2183C41.7355 56.2183 41.1302 55.5938 40.9693 55.134C39.9731 52.2604 39.019 49.3676 38.18 46.4442C37.8428 45.2642 37.3217 44.8389 36.0765 44.8504C30.056 44.9117 24.0368 44.9117 18.0188 44.8504C16.8694 44.8504 16.31 45.1914 15.9614 46.2872C15.0456 49.1876 13.9882 52.0343 13.0686 54.9386C12.7506 55.9424 12.2832 56.3256 11.1912 56.2949C8.09537 56.2145 4.99189 56.2681 1.61255 56.2681C2.37884 53.9692 3.11065 51.8313 3.85012 49.7125C8.65221 36.0163 13.4594 22.3227 18.2717 8.63162C18.5438 7.86533 18.8579 7.09904 19.1951 6.33275C21.1108 2.06067 23.5898 0.551078 28.291 0.612381C32.4826 0.666022 35.0458 2.91126 36.337 6.67375C39.1685 14.8118 41.885 22.9881 44.6283 31.1567C47.1673 38.7251 49.6948 46.2987 52.2107 53.8773C52.4445 54.6052 52.636 55.3332 52.9157 56.2681ZM27.5783 13.2715L27.0841 13.3137C24.6396 20.5934 22.1913 27.9 19.7123 35.3024H34.5707C32.1952 27.8234 29.8887 20.5474 27.5783 13.2715Z" fill="#375D99"/>
</svg>
