<svg width="158" height="106" viewBox="0 0 158 106" fill="none" xmlns="http://www.w3.org/2000/svg">
<path d="M155.344 22.0436C152.949 20.7036 150.584 19.3136 148.209 17.9436C138.145 12.1436 128.084 6.3419 118.024 0.538569C117.53 0.200943 116.95 0.0140821 116.352 0.000764986C115.755 -0.0125521 115.166 0.148253 114.659 0.463572C102.889 7.26357 91.1169 14.0619 79.3436 20.8586C79.0977 21.0341 78.8032 21.1285 78.5011 21.1285C78.199 21.1285 77.9045 21.0341 77.6586 20.8586C65.9719 14.0986 54.2836 7.34857 42.5936 0.608568C42.0486 0.24567 41.4084 0.0520498 40.7536 0.0520498C40.0988 0.0520498 39.4586 0.24567 38.9136 0.608568C26.6069 7.72524 14.2903 14.8202 1.96361 21.8936C1.33715 22.1996 0.816372 22.6858 0.468054 23.2898C0.119737 23.8938 -0.0402501 24.5881 0.00860462 25.2836C0.0352713 46.0036 0.0352713 66.7219 0.00860462 87.4386C0.00860462 89.7536 0.633604 90.4986 2.8986 90.9386L40.8986 98.2036L79.0086 105.464C81.4186 105.929 82.6936 104.854 82.6986 102.374V93.0036C82.6986 91.9636 82.6986 91.9586 83.7686 91.9586H154.009C156.009 91.9586 157.009 90.9586 157.009 88.9586C157.009 67.5986 157.009 46.2369 157.009 24.8736C157.036 24.2911 156.893 23.7132 156.598 23.2106C156.302 22.708 155.866 22.3024 155.344 22.0436V22.0436ZM151.879 72.9586V85.6936C151.879 86.7636 151.879 86.7736 150.804 86.7736H81.0936C80.6177 86.7602 80.1418 86.7971 79.6736 86.8836C79.075 86.9609 78.5277 87.2614 78.1411 87.7249C77.7545 88.1884 77.5572 88.7808 77.5886 89.3836C77.5886 92.5086 77.5886 95.6336 77.5886 98.7536C77.5886 99.8986 77.5436 99.9286 76.4036 99.7086L48.7886 94.4186L23.2886 89.5486C17.5719 88.4586 11.8553 87.3786 6.13861 86.3086C5.42361 86.1736 5.13861 85.9086 5.13861 85.1486C5.13861 65.7119 5.13861 46.2786 5.13861 26.8486C5.11243 26.5922 5.16612 26.3341 5.29232 26.1094C5.41852 25.8848 5.61107 25.7046 5.8436 25.5936C12.2136 21.9469 18.5753 18.2802 24.9286 14.5936C30.0019 11.6636 35.0803 8.7319 40.1636 5.79857C40.3258 5.68362 40.5198 5.62188 40.7186 5.62188C40.9174 5.62188 41.1114 5.68362 41.2736 5.79857C45.7903 8.41857 50.3119 11.0269 54.8386 13.6236L70.3886 22.5836C72.6436 23.8836 74.8886 25.1886 77.1436 26.4736C77.5545 26.725 78.0269 26.8581 78.5086 26.8581C78.9903 26.8581 79.4627 26.725 79.8736 26.4736C85.3869 23.3036 90.9003 20.1252 96.4136 16.9386C102.484 13.4386 108.584 9.98357 114.609 6.40357C115.874 5.64857 116.739 5.66857 117.979 6.40357C123.259 9.55857 128.609 12.5986 133.934 15.6736C139.589 18.9386 145.239 22.2186 150.934 25.4536C151.243 25.5954 151.502 25.8285 151.675 26.1217C151.849 26.4148 151.928 26.7539 151.904 27.0936C151.877 42.3836 151.869 57.6719 151.879 72.9586Z" fill="#375D99"/>
<path d="M39.5586 54.1682C39.9886 54.1682 40.4236 54.1682 40.8486 54.1682C41.4936 54.2382 41.6536 53.9532 41.6486 53.3432C41.6236 50.5332 41.6486 47.7182 41.6486 44.9082C41.6486 43.0032 41.6486 41.0932 41.6486 39.1882C41.6486 37.5882 40.8236 36.7732 39.2286 36.6882C38.8036 36.6882 38.3686 36.6882 37.9436 36.6882C37.7339 36.6665 37.5221 36.7015 37.3304 36.7894C37.1387 36.8773 36.9741 37.015 36.8536 37.1882C35.0886 39.3482 33.3036 41.4882 31.5236 43.6382C30.9786 44.2932 30.9786 44.2882 30.4136 43.6032C28.637 41.4532 26.8586 39.3049 25.0786 37.1582C24.8986 36.9382 24.7436 36.6582 24.4086 36.6582C23.6462 36.6097 22.8808 36.6365 22.1236 36.7382C21.0186 36.9732 20.3686 37.6482 20.3586 38.7682C20.3586 43.7032 20.3586 48.6332 20.3586 53.5682C20.3586 53.5932 20.3586 53.6182 20.3586 53.6382C20.3586 53.9682 20.5036 54.1382 20.8336 54.1382C21.4986 54.1382 22.1736 54.1382 22.8336 54.0832C23.303 54.0465 23.7444 53.8453 24.0801 53.5151C24.4158 53.1849 24.6242 52.7469 24.6686 52.2782C24.7253 51.9009 24.7521 51.5197 24.7486 51.1382C24.7486 48.7082 24.7486 46.2782 24.7486 43.8482C24.7486 43.6132 24.6636 43.3482 24.9086 43.0932C25.1236 43.3432 25.3086 43.5532 25.4886 43.7732C26.7036 45.2432 27.9136 46.7182 29.1336 48.1832C30.2586 49.5282 31.7236 49.5282 32.8336 48.1832C33.3336 47.5782 33.8336 46.9682 34.3336 46.3632C35.2386 45.2682 36.1536 44.1732 37.0636 43.0782L37.2436 43.1432V43.9132C37.2436 46.5132 37.2436 49.1082 37.2436 51.7082C37.2486 53.2832 38.0336 54.0932 39.5586 54.1682Z" fill="#375D99"/>
<path d="M45.0085 51.3627C45.0085 53.4277 45.7785 54.1677 47.8285 54.1827C49.6385 54.1827 51.4535 54.1827 53.2635 54.1827C54.5985 54.1827 55.9385 54.1827 57.2635 54.1527C58.5885 54.1227 59.3035 53.3977 59.4535 52.0727C59.4835 51.7877 59.4535 51.4977 59.5035 51.2177C59.6035 50.5027 59.3235 50.2727 58.5885 50.2877C55.8485 50.3277 53.0885 50.2877 50.3635 50.2877C49.4035 50.2877 49.3985 50.2877 49.3985 49.2877C49.4211 48.8597 49.4211 48.4308 49.3985 48.0027C49.3335 47.3277 49.5535 47.0577 50.2685 47.0977C51.2685 47.1527 52.2685 47.0977 53.2685 47.0977C53.7007 47.1156 54.1294 47.0128 54.5064 46.8009C54.8835 46.5889 55.1941 46.2762 55.4035 45.8977C55.7285 45.3427 56.0135 44.7677 56.3135 44.1977C56.7135 43.4327 56.7085 43.4277 55.8685 43.4227C53.9385 43.4227 52.0035 43.4227 50.0735 43.4227C49.5735 43.4227 49.3685 43.2727 49.3985 42.7677C49.4335 42.3151 49.4335 41.8604 49.3985 41.4077C49.3385 40.7677 49.5585 40.5177 50.2335 40.5427C51.4935 40.5877 52.7635 40.5427 54.0235 40.5427C55.5535 40.5427 57.0785 40.5427 58.6035 40.5427C58.8735 40.5427 59.1785 40.6177 59.2935 40.2177C59.8685 38.2627 58.7935 36.7177 56.7485 36.6777C55.5085 36.6777 54.2485 36.6777 53.0285 36.6777C51.1935 36.6777 49.3585 36.6777 47.5285 36.6777C45.9585 36.6777 45.2135 37.3927 45.0585 38.9477C45.0277 39.2801 45.0143 39.6139 45.0185 39.9477C45.0185 41.7844 45.0185 43.6177 45.0185 45.4477C45.0085 47.4527 45.0085 49.4077 45.0085 51.3627Z" fill="#375D99"/>
<path d="M106.459 61.1086C106.459 59.9686 106.459 58.8237 106.459 57.6787C106.459 57.1787 106.319 56.9786 105.804 57.0036C105.184 57.0386 104.564 57.0036 103.944 57.0036C103.369 56.9839 102.799 57.121 102.296 57.4003C101.793 57.6795 101.376 58.0903 101.089 58.5886C99.7186 60.7936 98.3236 62.9837 96.9286 65.1787C96.7836 65.4037 96.7036 65.6786 96.4036 65.8236C96.3 65.6075 96.2701 65.3634 96.3186 65.1286C96.3186 63.4853 96.3186 61.8403 96.3186 60.1937C96.3186 57.4237 95.8186 56.9486 93.0636 57.0036H93.0086C92.5086 56.9486 92.3286 57.1286 92.3286 57.6386C92.3286 62.5486 92.3286 67.4587 92.3286 72.3687C92.3286 72.8437 92.5086 72.9986 92.9586 72.9886C93.7936 72.9886 94.6286 72.9536 95.4586 72.9886C95.7045 73.0133 95.9521 72.9623 96.1682 72.8426C96.3844 72.7229 96.559 72.5401 96.6686 72.3187C98.3486 69.6037 100.064 66.9086 101.769 64.2086C101.896 63.9109 102.12 63.6645 102.404 63.5087V69.7986C102.404 72.4486 102.949 72.9736 105.584 72.9886C106.269 72.9886 106.484 72.7886 106.479 72.0986C106.444 68.4486 106.464 64.7836 106.459 61.1086Z" fill="#375D99"/>
<path d="M129.199 54.1687C129.629 54.1687 130.059 54.1687 130.484 54.1687C131.139 54.2387 131.289 53.9487 131.284 53.3437C131.254 50.9837 131.284 48.6237 131.284 46.2637C131.284 43.9037 131.284 41.5937 131.284 39.2637C131.284 37.5387 130.489 36.7387 128.744 36.7037C127.669 36.7037 126.589 36.7687 125.524 36.7037C123.139 36.5137 121.639 37.4487 120.574 39.6787C118.354 44.3187 115.884 48.8387 113.519 53.4087C113.114 54.1837 113.114 54.1837 114.019 54.1887C114.614 54.1887 115.209 54.1637 115.809 54.1887C116.43 54.238 117.051 54.0869 117.58 53.7576C118.109 53.4282 118.519 52.9379 118.749 52.3587C120.524 48.7687 122.394 45.2237 124.149 41.6287C124.266 41.2745 124.507 40.9744 124.827 40.7827C125.148 40.5909 125.526 40.5203 125.894 40.5837C126.939 40.6587 126.944 40.5837 126.944 41.6637C126.944 45.0487 126.944 48.4287 126.944 51.8137C126.939 53.3287 127.689 54.0937 129.199 54.1687Z" fill="#375D99"/>
<path d="M109.799 54.1734C110.204 54.1734 110.609 54.1734 111.014 54.1734C111.634 54.2334 111.844 54.0034 111.834 53.3684C111.804 50.9834 111.834 48.6034 111.834 46.2184C111.834 43.8334 111.834 41.5484 111.834 39.2184C111.834 37.5834 111.079 36.7634 109.464 36.7184C107.939 36.6734 106.409 36.6784 104.884 36.7184C104.2 36.7063 103.529 36.8945 102.951 37.2596C102.374 37.6248 101.916 38.151 101.634 38.7734C100.134 41.7734 98.5535 44.7734 97.0035 47.7284C96.0035 49.6334 95.0285 51.5384 94.0485 53.4434C93.6985 54.1184 93.7285 54.1634 94.4535 54.1684C95.0985 54.1684 95.7435 54.1434 96.3885 54.1684C97.7935 54.2134 98.6885 53.5634 99.3135 52.3084C101.134 48.6384 103.029 45.0034 104.859 41.3084C104.949 41.0544 105.124 40.8393 105.354 40.6991C105.585 40.5589 105.856 40.5021 106.124 40.5384C107.654 40.5984 107.484 40.4034 107.489 41.9434C107.489 45.2084 107.489 48.4734 107.489 51.7384C107.509 53.3334 108.244 54.0984 109.799 54.1734Z" fill="#375D99"/>
<path d="M34.4685 65.7829C34.4685 63.6129 34.4685 61.4429 34.4685 59.2829C34.4685 57.8079 33.7085 57.0279 32.2885 57.0179C29.0219 56.9979 25.7535 56.9979 22.4835 57.0179C22.2007 56.9927 21.9158 57.0291 21.6484 57.1246C21.3809 57.22 21.1374 57.3723 20.9345 57.571C20.7315 57.7696 20.5741 58.0099 20.473 58.2752C20.3718 58.5405 20.3294 58.8246 20.3485 59.1079C20.3185 63.5429 20.3485 67.9779 20.3485 72.4129C20.3485 72.8479 20.5235 73.0029 20.9435 72.9979C21.8035 72.9979 22.6635 72.9579 23.5185 72.9979C24.1785 73.0279 24.3735 72.7929 24.3685 72.1379C24.3385 68.5829 24.3685 65.0329 24.3385 61.4779C24.3385 60.7779 24.4985 60.5079 25.2485 60.5379C26.6785 60.5979 28.1135 60.5929 29.5435 60.5379C30.2535 60.5079 30.4935 60.7129 30.4835 61.4479C30.4435 64.2379 30.4835 67.0279 30.4835 69.8179C30.4835 72.4829 31.0135 72.9929 33.6635 72.9929C34.3035 72.9929 34.5385 72.8179 34.5285 72.1429C34.4435 70.0379 34.4685 67.9179 34.4685 65.7829Z" fill="#375D99"/>
<path d="M124.054 65.7829C124.054 63.6379 124.054 61.4929 124.054 59.3479C124.054 57.7429 123.304 57.0329 121.719 57.0229C120.384 57.0229 119.044 57.0229 117.719 57.0229C117.094 56.9898 116.473 57.1457 115.938 57.4703C115.403 57.795 114.978 58.2733 114.719 58.8429C113.219 61.8179 111.654 64.7679 110.119 67.7329L107.849 72.1129C107.394 73.0029 107.394 73.0029 108.429 73.0029C108.784 73.0029 109.144 73.0029 109.499 73.0029C111.039 73.0979 111.999 72.4529 112.704 71.0279C114.284 67.7429 115.984 64.5279 117.639 61.2679C117.774 61.0029 117.844 60.6829 118.209 60.5879C119.579 60.2329 120.049 60.5879 120.054 61.9979C120.054 64.9079 120.054 67.8129 120.054 70.7229C120.054 72.2229 120.744 72.9029 122.229 72.9879C122.584 72.9879 122.944 72.9879 123.299 72.9879C123.914 73.0479 124.074 72.7679 124.064 72.1979C124.044 70.0629 124.059 67.9179 124.054 65.7829Z" fill="#375D99"/>
<path d="M72.3737 40.5829C73.4237 40.6229 74.4737 40.5829 75.5237 40.5829C75.9563 40.5998 76.384 40.4864 76.7513 40.2572C77.1186 40.0281 77.4086 39.6939 77.5837 39.2979C77.8787 38.6979 78.2037 38.1129 78.5137 37.5229C78.9337 36.7229 78.9287 36.7129 78.0537 36.7129H70.8237C68.3937 36.7129 65.9587 36.7129 63.5237 36.7129C61.9487 36.7129 61.1587 37.4779 61.0237 39.0479C61.0237 39.2629 61.0237 39.4779 61.0237 39.6929C60.9387 40.3579 61.1737 40.6229 61.8887 40.5979C63.3437 40.5479 64.7987 40.5979 66.2537 40.5679C66.9587 40.5679 67.1987 40.7379 67.1937 41.4829C67.1537 45.4179 67.1937 49.3529 67.1637 53.2829C67.1637 53.9529 67.3237 54.2329 68.0337 54.1879C68.916 54.1279 69.8013 54.1279 70.6837 54.1879C71.4287 54.2379 71.6037 53.9529 71.5987 53.2479C71.5637 49.2929 71.5987 45.3329 71.5687 41.3779C71.5487 40.7529 71.7537 40.5579 72.3737 40.5829Z" fill="#375D99"/>
<path d="M86.4235 58.7533C85.4931 58.2572 84.4733 57.9513 83.4235 57.8533C83.0135 57.8083 82.7935 57.6633 82.7785 57.1933C82.7135 55.7183 82.6935 55.7183 81.1935 55.7383C81.0235 55.7383 80.8585 55.7383 80.6935 55.7633C79.7585 55.8783 79.0585 56.2983 78.8485 57.2633C78.8238 57.4289 78.7386 57.5794 78.6092 57.6857C78.4799 57.7919 78.3157 57.8463 78.1485 57.8383C77.3158 57.9197 76.501 58.1306 75.7335 58.4633C73.1035 59.5833 71.6485 61.5683 71.6135 64.4333C71.5785 67.2983 72.9135 69.2983 75.4635 70.5283C76.2337 70.9121 77.0672 71.1527 77.9235 71.2383C78.5985 71.2983 78.8635 71.5633 78.7635 72.2383C78.7635 72.3783 78.7635 72.5233 78.7635 72.6683C78.6885 73.2833 78.9785 73.4683 79.5585 73.3983C79.9382 73.3783 80.3187 73.3783 80.6985 73.3983V73.3983H81.4135C82.9635 73.3983 82.7985 73.4683 82.7835 72.0733C82.7835 71.5733 82.9385 71.3633 83.4635 71.3083C84.6068 71.1905 85.7116 70.829 86.7035 70.2483C87.7439 69.6725 88.5989 68.8123 89.1682 67.7684C89.7376 66.7244 89.9978 65.5398 89.9185 64.3533C89.9303 63.1839 89.6076 62.0354 88.9883 61.0432C88.3691 60.051 87.4792 59.2565 86.4235 58.7533V58.7533ZM78.7735 62.0283C78.7435 62.8833 78.7735 63.7383 78.7735 64.5933C78.7735 65.4733 78.7735 66.3533 78.7735 67.2333C78.7735 67.6483 78.6135 67.7733 78.2035 67.6883C77.4675 67.5589 76.8028 67.1688 76.3308 66.5895C75.8589 66.0101 75.6114 65.2802 75.6335 64.5333C75.6168 63.8079 75.8594 63.1002 76.3176 62.5376C76.7758 61.9749 77.4197 61.594 78.1335 61.4633C78.6285 61.3483 78.7885 61.5133 78.7735 62.0283V62.0283ZM83.3135 67.7083C82.8385 67.7833 82.7885 67.5383 82.7885 67.2083C82.7885 66.3233 82.7885 65.4433 82.7885 64.5633C82.7885 63.6833 82.7885 62.8033 82.7885 61.9233C82.7885 61.4933 82.9635 61.3983 83.3635 61.4683C84.1027 61.5805 84.7733 61.9646 85.2441 62.5454C85.7149 63.1262 85.9518 63.8619 85.9085 64.6083C85.9246 65.3517 85.6705 66.0756 85.1933 66.6458C84.716 67.2159 84.0481 67.5935 83.3135 67.7083V67.7083Z" fill="#375D99"/>
<path d="M92.4385 46.2828C92.4385 43.9478 92.4385 41.6128 92.4385 39.2828C92.4385 37.6428 91.6635 36.7829 90.0835 36.7379C88.5035 36.6929 86.9335 36.6929 85.3635 36.7379C84.6908 36.7333 84.0317 36.9266 83.4681 37.2938C82.9044 37.6609 82.4612 38.1857 82.1935 38.8028C81.1935 40.8028 80.1485 42.8028 79.1185 44.7728C77.6052 47.6928 76.0885 50.6112 74.5685 53.5279C74.3135 54.0279 74.3635 54.2078 74.9535 54.1878C75.7135 54.1578 76.4785 54.1878 77.2385 54.1878C77.7674 54.2082 78.29 54.0669 78.7366 53.7829C79.1832 53.4988 79.5327 53.0855 79.7385 52.5979C80.1635 51.7429 80.6035 50.8979 81.0235 50.0429C81.0718 49.8949 81.1664 49.7664 81.2934 49.6763C81.4203 49.5863 81.5729 49.5395 81.7285 49.5429C83.6385 49.5429 85.5435 49.5429 87.4535 49.5429C87.8785 49.5429 88.0585 49.6978 88.0435 50.1328C88.0435 50.7278 88.0435 51.3229 88.0435 51.9179C88.0985 53.3079 88.8435 54.0728 90.2185 54.1628C90.5985 54.1928 90.9835 54.1878 91.3635 54.1878C92.4335 54.1878 92.4335 54.1878 92.4335 53.1478L92.4385 46.2828ZM88.0385 45.3128C88.0385 45.6978 87.8985 45.8728 87.4935 45.8728C86.2068 45.8728 84.9218 45.8728 83.6385 45.8728C83.2585 45.8728 83.1785 45.7178 83.3435 45.3728C84.0935 43.8728 84.8435 42.3979 85.5835 40.9029C85.7585 40.5479 86.0835 40.5729 86.3785 40.5729C88.3785 40.5729 87.9985 40.3428 88.0335 42.1578C88.0335 42.5128 88.0335 42.8678 88.0335 43.2278C88.0335 43.9378 88.0085 44.6279 88.0385 45.3179V45.3128Z" fill="#375D99"/>
<path d="M60.9585 56.6084C56.1335 56.6084 52.3635 60.2584 52.3635 64.9034C52.3635 69.6734 56.1035 73.3434 60.9635 73.3484C65.8235 73.3534 69.5785 69.6884 69.5935 64.9284C69.6085 60.2834 65.8085 56.5984 60.9585 56.6084ZM61.0085 69.7834C58.4185 69.7834 56.4035 67.6834 56.3885 64.9634C56.3753 63.7421 56.8477 62.5655 57.7019 61.6926C58.5562 60.8196 59.7222 60.3217 60.9435 60.3084C62.1648 60.2952 63.3414 60.7676 64.2144 61.6218C65.0874 62.4761 65.5853 63.6421 65.5985 64.8634C65.6035 67.6084 63.5985 69.7534 61.0085 69.7834Z" fill="#375D99"/>
<path d="M45.3637 57.0332C43.6037 56.9482 41.8387 57.0082 40.0737 57.0332C38.2187 57.0332 37.5087 57.7232 37.4937 59.5632C37.4937 61.6132 37.4937 63.6632 37.4937 65.7132C37.4937 67.9032 37.4937 70.0982 37.4937 72.2882C37.4937 72.8582 37.6887 73.0432 38.2387 73.0232C39.0737 72.9932 39.9087 72.9882 40.7387 73.0232C41.3137 73.0482 41.5486 72.8632 41.5286 72.2532C41.4936 70.9682 41.5286 69.6832 41.5286 68.3932C41.5286 67.9382 41.6787 67.7582 42.1487 67.7632C43.1937 67.7632 44.2437 67.7982 45.2937 67.7632C46.0609 67.7663 46.82 67.6056 47.5202 67.2917C48.2204 66.9778 48.8455 66.5181 49.3537 65.9432C50.0483 65.1755 50.5001 64.2193 50.6523 63.1952C50.8044 62.171 50.6501 61.1248 50.2086 60.1882C49.3086 58.0682 47.5437 57.1382 45.3637 57.0332ZM45.1737 64.1382C44.6026 64.1758 44.0297 64.1758 43.4586 64.1382C41.5086 64.1832 41.5087 64.1832 41.5087 62.2482C41.5087 60.5582 41.5087 60.5532 43.2037 60.5582C43.8237 60.5582 44.4487 60.5332 45.0637 60.5882C45.2742 60.5907 45.482 60.6355 45.6749 60.7199C45.8677 60.8044 46.0416 60.9267 46.1862 61.0797C46.3308 61.2327 46.4432 61.4132 46.5166 61.6105C46.5901 61.8078 46.6231 62.0179 46.6137 62.2282C46.6587 63.2832 46.1337 64.0082 45.1737 64.1382Z" fill="#375D99"/>
<path d="M136.048 62.028C135.014 61.85 133.962 61.7913 132.913 61.8531C131.253 61.8531 131.253 61.853 131.253 60.188C131.253 57.453 130.753 56.998 128.043 56.998C127.423 56.998 127.213 57.1681 127.223 57.8031C127.253 59.9481 127.223 62.0931 127.223 64.2381C127.223 66.3831 127.223 68.5781 127.223 70.7381C127.223 72.1381 127.903 72.9181 129.298 72.9581C131.346 73.0756 133.399 73.0505 135.443 72.8831C136.753 72.7569 137.975 72.1652 138.886 71.2155C139.797 70.2657 140.337 69.0208 140.408 67.7067C140.48 66.3927 140.077 65.0966 139.275 64.0537C138.472 63.0109 137.322 62.2904 136.033 62.0231L136.048 62.028ZM134.873 69.343C133.81 69.4638 132.737 69.4923 131.668 69.4281C131.363 69.4281 131.253 69.243 131.258 68.963V67.3931C131.258 65.3931 131.258 65.3931 133.233 65.3931C133.734 65.3779 134.235 65.3929 134.733 65.438C135.733 65.568 136.328 66.2731 136.358 67.3681C136.391 67.5953 136.378 67.8267 136.321 68.049C136.264 68.2713 136.164 68.4802 136.026 68.6637C135.888 68.8471 135.715 69.0016 135.517 69.1181C135.32 69.2347 135.101 69.3112 134.873 69.343V69.343Z" fill="#375D99"/>
</svg>
