<svg width="168" height="82" viewBox="0 0 168 82" fill="none" xmlns="http://www.w3.org/2000/svg">
<path d="M72.58 24.3089C75.1424 24.266 77.6945 24.6454 80.1335 25.4321C81.1855 25.7643 81.5296 26.223 81.1183 27.366C80.0979 30.249 80.1612 30.249 77.2545 29.6913C74.4269 29.1535 71.5795 28.9004 68.7637 29.6913C67.3371 30.0381 66.0269 30.7542 64.9648 31.7677C63.9027 32.7812 63.1261 34.0565 62.7129 35.4652C61.7193 38.3668 61.7725 41.5246 62.8632 44.3911C64.54 48.8006 68.1467 50.426 72.5523 50.7186C74.6956 50.8649 76.8482 50.6483 78.9194 50.078C80.1059 49.7379 80.5567 50.1373 80.877 51.2644C81.7668 54.448 81.8183 54.448 78.4646 55.1361C74.9614 55.8896 71.3426 55.9326 67.8225 55.2626C59.6283 53.6412 55.1673 47.2108 56.0611 38.3799C57.0102 28.8806 62.4045 24.2813 72.58 24.3089Z" fill="#375D99"/>
<path d="M28.4368 61.0894C28.4368 55.8572 28.5239 50.6212 28.3973 45.393C28.3459 43.2693 29.825 42.2609 30.9362 40.9321C30.9783 40.8695 31.0332 40.8166 31.0972 40.7768C31.1613 40.737 31.233 40.7112 31.3077 40.7011C31.3825 40.691 31.4585 40.6969 31.5308 40.7183C31.6031 40.7397 31.67 40.7762 31.7272 40.8253C32.7791 42.0552 34.3848 42.945 34.3769 44.8631C34.3479 55.8625 34.3189 66.8593 34.2899 77.8535C34.2899 78.854 33.8944 79.2416 32.9096 79.2416C27.6024 79.2416 28.4804 79.6726 28.4408 75.1761C28.4092 70.4858 28.4368 65.7876 28.4368 61.0894Z" fill="#375D99"/>
<path d="M28.4409 18.8092C28.4409 13.4663 28.4884 8.13138 28.4093 2.77668C28.3856 1.22642 28.8522 0.660894 30.4341 0.736034C34.46 0.921906 34.3889 -0.0549106 34.3889 4.64331C34.3889 14.2612 34.3493 23.8831 34.4244 33.5129C34.4244 35.6445 33.8233 37.3252 32.2177 38.6777C31.8618 38.9822 31.4505 39.5201 31.0313 39.0732C29.8963 37.8551 28.3816 36.9258 28.4133 34.8733C28.4923 29.5028 28.4409 24.156 28.4409 18.8092Z" fill="#375D99"/>
<path d="M50.2197 55.1223C48.4914 55.5178 47.1271 54.6398 45.818 53.0658C42.4328 49.0004 38.8933 45.0615 35.3736 41.1107C34.6301 40.2762 34.6182 39.687 35.3736 38.8446C39.2018 34.5261 42.997 30.1759 46.7593 25.794C47.0654 25.3937 47.47 25.0795 47.9337 24.882C48.3973 24.6845 48.9042 24.6104 49.405 24.6669C50.1129 24.7262 50.8326 24.6392 51.5445 24.6669C52.2563 24.6946 53.1659 24.3229 53.5219 25.0308C53.9727 25.8929 52.988 26.3556 52.5174 26.9013C49.1361 30.8165 45.7508 34.7317 42.3102 38.5955C41.4362 39.5723 41.3611 40.2327 42.3102 41.2649C45.7073 45.0061 49.0095 48.8382 52.3236 52.6506C52.8496 53.2557 53.9055 53.8172 53.5495 54.6477C53.1936 55.4782 52.0547 54.9641 51.2677 55.0828C50.9194 55.1166 50.5695 55.1298 50.2197 55.1223V55.1223Z" fill="#375D99"/>
<path d="M134.839 72.249C134.107 74.1869 133.364 76.1207 132.648 78.0664C132.379 78.7862 132.063 79.2766 131.137 79.2529C130.212 79.2291 130.081 78.6517 129.868 78.0308C129.294 76.1712 128.528 74.3766 127.582 72.6761C127.582 74.3292 127.61 75.9823 127.582 77.6314C127.582 78.2088 127.902 79.158 126.89 79.15C125.877 79.1421 126.269 78.1772 126.257 77.6275C126.206 75.3693 126.21 73.1112 126.257 70.853C126.257 70.2914 125.917 69.4807 126.981 69.3423C127.954 69.2118 128.333 69.6982 128.614 70.5485C129.405 72.9213 130.247 75.2467 131.137 77.7738C132.023 76.88 132.173 75.7964 132.569 74.8789C133.245 73.297 133.874 71.6875 134.447 70.066C134.76 69.1881 135.42 69.3344 136.053 69.37C136.769 69.4095 136.646 70.0027 136.646 70.4457C136.646 73.0004 136.646 75.5552 136.646 78.1139C136.646 78.6557 136.682 79.2489 135.855 79.1935C135.132 79.1461 135.254 78.5726 135.25 78.1297C135.25 76.184 135.25 74.2383 135.25 72.2925L134.839 72.249Z" fill="#375D99"/>
<path d="M157.717 74.3774C157.717 75.6825 157.717 76.9875 157.717 78.2926C157.717 78.8186 157.618 79.2378 156.926 79.1982C156.341 79.1627 156.29 78.7751 156.282 78.3361C156.282 78.2768 156.282 78.2175 156.282 78.1581C155.977 74.761 155.981 74.8045 152.643 74.8797C151.583 74.9034 151.061 75.2119 151.224 76.3073C151.249 76.4232 151.249 76.5434 151.224 76.6593C150.959 77.5017 151.892 79.0875 150.433 79.0756C149.171 79.0756 149.859 77.5491 149.82 76.7265C149.713 74.6582 149.776 72.578 149.796 70.5057C149.796 70.0114 149.654 69.347 150.508 69.3707C151.362 69.3945 151.184 70.0312 151.22 70.5374C151.433 73.6577 151.437 73.5667 154.474 73.6735C156.009 73.7249 156.377 73.2108 156.333 71.7673C156.309 70.9764 155.574 69.4854 156.97 69.4577C158.445 69.4261 157.523 70.9249 157.674 71.7198C157.836 72.578 157.709 73.4916 157.709 74.3774H157.717Z" fill="#375D99"/>
<path d="M122.813 74.3257C122.813 75.4528 122.86 76.5838 122.813 77.7109C122.781 78.2646 123.173 79.2177 122.081 79.1583C121.073 79.103 121.417 78.1934 121.405 77.616C121.365 75.7731 121.338 73.9302 121.405 72.0794C121.448 70.9444 121.096 70.4975 119.902 70.4975C115.837 70.5845 116.612 70.1376 116.533 73.7522C116.505 75.1799 116.533 76.6036 116.533 78.0312C116.533 78.573 116.533 79.1702 115.742 79.1544C114.951 79.1386 115.117 78.5454 115.113 78.1024C115.093 75.5477 115.113 72.9929 115.093 70.4382C115.093 69.5919 115.437 69.2834 116.279 69.2992C118.063 69.3308 119.839 69.3427 121.626 69.2992C122.579 69.2715 122.88 69.667 122.852 70.5608C122.781 71.8263 122.813 73.076 122.813 74.3257Z" fill="#375D99"/>
<path d="M100.856 74.3143C100.856 75.4414 100.884 76.5725 100.856 77.6996C100.832 78.2888 101.125 79.1905 100.085 79.1628C99.1436 79.1391 99.4798 78.2888 99.4679 77.7787C99.4244 75.8804 99.4165 73.9782 99.4679 72.0799C99.4877 71.1189 99.3651 70.4703 98.1549 70.5257C97.1188 70.5692 96.1776 70.411 96.1024 71.9533C96.0797 73.5636 95.824 75.1621 95.3431 76.699C95.1863 77.2419 94.9178 77.7461 94.5548 78.1792C94.1918 78.6124 93.7424 78.9649 93.2353 79.2142C92.8991 79.3764 92.5471 79.4357 92.3415 78.9967C92.2189 78.7318 92.037 78.4233 92.3692 78.2058C95.0742 76.4341 94.5917 73.5313 94.8132 70.9607C94.9279 69.5924 95.355 69.3116 96.6165 69.3195C100.872 69.3472 100.872 69.3195 100.872 73.6143L100.856 74.3143Z" fill="#375D99"/>
<path d="M163.23 75.0259C163.23 74.4327 163.183 73.8395 163.23 73.2463C163.412 71.4706 163.151 70.1576 160.857 70.5768C160.391 70.6638 159.857 70.5531 159.912 69.8571C159.96 69.2322 160.474 69.339 160.861 69.339C162.939 69.3232 165.015 69.3232 167.09 69.339C167.485 69.339 167.98 69.2876 168 69.9006C168.023 70.6204 167.446 70.6639 167.011 70.5848C164.658 70.1418 164.559 71.5418 164.638 73.27C164.725 74.927 164.662 76.592 164.638 78.253C164.638 78.7315 164.638 79.2496 163.93 79.2298C163.222 79.21 163.214 78.7236 163.206 78.2332C163.206 77.1654 163.206 76.0977 163.206 75.0299L163.23 75.0259Z" fill="#375D99"/>
<path d="M22.6669 33.7167C22.1567 28.9711 19.163 25.7638 14.2156 24.9728C10.2055 24.3361 6.14404 24.87 2.11021 24.6802C0.82888 24.6209 0.52832 25.0757 0.52832 26.2977C0.591596 30.814 0.552049 35.3303 0.552049 39.8466V50.9198C0.552049 55.3966 0.552049 55.3649 4.9853 55.2265C6.04517 55.1909 6.47228 54.8746 6.44064 53.7831C6.38528 51.6435 6.50392 49.5001 6.39714 47.3645C6.32991 45.9922 6.82821 45.6284 8.13327 45.6917C10.9318 45.8963 13.7401 45.458 16.3433 44.4103C20.8121 42.5002 23.181 38.4901 22.6669 33.7167ZM13.2744 40.4398C11.3406 41.2307 9.31969 41.0646 7.29487 41.0686C6.39319 41.0686 6.44064 40.42 6.43669 39.8308C6.43669 38.2884 6.43669 36.7461 6.43669 35.1998C6.43669 33.6535 6.43669 32.1151 6.43669 30.5688C6.43669 29.8174 6.59488 29.3072 7.51633 29.3468C9.05472 29.418 10.6168 29.2914 12.1355 29.4931C14.9038 29.853 16.3117 31.4309 16.6122 34.2111C16.9286 37.2483 15.758 39.4313 13.2744 40.4437V40.4398Z" fill="#375D99"/>
<path d="M61.1941 78.0354C59.7743 77.9602 60.0076 77.0151 60.0076 76.1529C60.0076 74.8479 60.0076 73.5428 60.0076 72.2338C60.0076 71.9965 60.0076 71.7592 60.0076 71.5219C59.8574 69.8926 60.7472 67.761 59.6122 66.7525C58.4772 65.7441 56.4246 66.6062 54.7834 66.4361C53.5614 66.3096 53.2609 66.8909 53.2015 67.9429C53.1288 69.961 52.8546 71.9668 52.3829 73.9304C52.0428 75.2631 51.762 77.0348 50.7377 77.5648C49.1044 78.415 49.6937 79.5738 49.579 80.6811C49.5276 81.1794 49.4604 81.8201 50.2632 81.8675C51.066 81.915 51.0541 81.2585 50.9908 80.7641C50.8406 79.4433 51.4931 79.1625 52.6597 79.2099C54.5053 79.2811 56.3508 79.2811 58.1964 79.2099C59.541 79.1585 60.5692 79.2416 60.2805 81.041C60.1421 81.9071 60.8104 82.0573 61.4353 81.7686C61.9573 81.5195 61.7319 78.0631 61.1941 78.0354ZM58.1608 77.6399C56.8834 78.5416 54.9535 77.8614 53.3044 77.9325C52.5332 77.9681 52.5886 77.4778 52.81 76.9913C53.9964 74.4089 54.293 71.6366 54.5343 68.8564C54.7043 66.9028 56.1913 67.8559 57.1325 67.67C58.2399 67.4525 58.5721 68.0655 58.5167 69.1095C58.4534 70.3513 58.5167 71.601 58.5167 72.8468C58.5167 73.1434 58.5365 73.4439 58.5167 73.7366C58.3822 75.0733 59.1376 76.9478 58.1608 77.632V77.6399Z" fill="#375D99"/>
<path d="M80.3111 74.6148C79.6626 73.9543 79.8445 73.6696 80.2281 73.0329C80.9004 71.9453 80.7976 70.7866 79.714 70.0352C78.0214 68.8488 75.9649 69.0584 74.2129 69.5092C73.1847 69.7702 73.8926 71.5063 73.7542 72.5702C73.7193 73.0969 73.7193 73.6253 73.7542 74.152V78.0949C73.7542 78.6525 73.7819 79.2101 74.5451 79.2062C76.0796 79.2062 77.6377 79.4158 79.1405 78.9412C81.1931 78.2966 81.8219 76.1531 80.3111 74.6148ZM76.5502 70.5058C77.6101 70.6561 79.0417 70.3476 79.1247 71.9532C79.2078 73.5588 77.9383 73.5944 76.5502 73.6182C75.518 73.8554 75.083 73.3532 75.1384 72.0916C75.2016 71.0753 75.257 70.3199 76.5502 70.5058ZM76.9457 77.9881C75.6881 78.1898 75.0395 77.83 75.17 76.4062C75.261 75.4492 75.0355 74.4645 76.5581 74.6503C77.7999 74.8046 79.4292 74.4052 79.5716 76.256C79.714 78.1068 78.0965 77.8655 76.9259 77.9881H76.9457Z" fill="#375D99"/>
<path d="M143.389 69.1138C140.656 69.2641 139.154 71.3087 139.288 74.69C139.415 77.9922 140.803 79.3724 143.99 79.3605C144.227 79.3863 144.466 79.3863 144.702 79.3605C145.493 79.1707 146.937 79.6175 146.846 78.4904C146.743 77.2526 145.497 78.1701 144.793 78.2097C142.748 78.3244 141.341 77.6125 140.953 76.1057C140.704 75.121 140.842 74.5238 142.092 74.5792C143.342 74.6346 144.698 74.6029 146.003 74.5792C146.521 74.5792 147.055 74.6583 147.257 73.9188C147.902 71.5301 145.869 68.9754 143.389 69.1138ZM145.631 72.6295C145.418 74.3182 143.99 73.0883 143.259 73.6103C142.519 73.1278 141.194 74.2945 140.949 72.7363C140.763 71.5499 142.175 70.2013 143.417 70.1776C143.727 70.1824 144.032 70.251 144.315 70.379C144.597 70.5071 144.85 70.6919 145.057 70.9219C145.265 71.1519 145.423 71.4222 145.522 71.716C145.621 72.0098 145.658 72.3207 145.631 72.6295V72.6295Z" fill="#375D99"/>
<path d="M69.028 69.3497C67.2444 68.6537 64.8795 69.3497 64.049 70.9791C62.914 73.2174 62.7518 75.618 64.0964 77.7733C65.441 79.9286 67.711 79.4026 69.7675 79.2445C70.2381 79.2089 70.9974 79.201 70.859 78.4179C70.7206 77.6349 70.0364 77.9236 69.5579 78.0224C68.4605 78.3277 67.2915 78.2453 66.2478 77.7891C65.7448 77.58 65.3301 77.2025 65.0747 76.7213C64.8193 76.2401 64.7391 75.6851 64.8478 75.1513C65.0574 74.0677 66.1331 74.7558 66.8252 74.5858C67.1788 74.5481 67.5354 74.5481 67.889 74.5858H70.1986C70.7008 74.5858 71.0963 74.5067 71.2268 73.8739C71.5392 72.2802 70.42 69.8955 69.028 69.3497ZM67.4105 73.6999C66.5365 73.079 65.1009 74.3248 64.8874 72.6717C64.7252 71.4418 66.1647 70.1209 67.4184 70.1842C68.8856 70.2553 69.5539 71.2282 69.5698 72.557C69.5935 74.4909 67.9444 72.9129 67.4105 73.6999V73.6999Z" fill="#375D99"/>
<path d="M86.7807 69.1765C84.1587 69.5483 82.8655 71.6522 83.1186 75.1284C83.3361 78.0984 84.7796 79.3837 88.3665 79.3758C88.6592 79.3362 89.4264 79.2611 90.1817 79.1148C90.51 79.0515 90.8817 78.8973 90.7314 78.395C90.7151 78.3098 90.6807 78.2291 90.6306 78.1583C90.5805 78.0874 90.5158 78.0281 90.4409 77.9843C90.366 77.9405 90.2826 77.9132 90.1963 77.9042C90.11 77.8953 90.0228 77.9048 89.9405 77.9323C89.1374 78.1511 88.3028 78.2313 87.4728 78.1696C86.1202 78.0075 85.1474 77.4222 84.7598 76.0024C84.5027 75.0493 84.5858 74.5313 85.7485 74.5748C87.1089 74.6262 88.4772 74.5748 89.8416 74.5748C90.3637 74.5748 90.8699 74.6222 91.0281 73.8589C91.1884 73.2516 91.1944 72.6138 91.0456 72.0035C90.8967 71.3933 90.5976 70.8299 90.1756 70.3646C89.7535 69.8994 89.2219 69.547 88.629 69.3395C88.0361 69.132 87.4007 69.076 86.7807 69.1765V69.1765ZM89.4738 72.6211C89.2603 74.4522 87.7377 73.0166 86.9507 73.6256C86.2626 73.0759 84.8745 74.3652 84.7282 72.72C84.6174 71.4822 86.0016 70.1929 87.2197 70.1692C87.5313 70.1738 87.8388 70.2419 88.1232 70.3693C88.4077 70.4967 88.6632 70.6808 88.8742 70.9103C89.0851 71.1397 89.2471 71.4098 89.3502 71.7039C89.4533 71.9981 89.4954 72.3102 89.4738 72.6211Z" fill="#375D99"/>
<path d="M107.994 69.107C105.226 69.1425 103.462 71.2227 103.47 74.4102C103.47 77.5108 105.095 79.3497 107.82 79.3734C110.711 79.3972 112.368 77.5147 112.36 74.2125C112.352 70.9103 110.794 69.0714 107.994 69.107ZM110.335 76.9611C110.065 77.3685 109.695 77.6993 109.26 77.9214C108.824 78.1435 108.339 78.2493 107.851 78.2286C107.363 78.2079 106.888 78.0614 106.473 77.8033C106.058 77.5452 105.717 77.1842 105.483 76.7554C105.099 75.9786 104.902 75.1231 104.907 74.2567C104.911 73.3903 105.118 72.537 105.51 71.7645C106.028 70.6888 106.966 70.2736 108.156 70.325C108.665 70.3279 109.161 70.4847 109.579 70.7748C109.997 71.0649 110.317 71.4748 110.497 71.9504C110.83 72.6949 110.976 73.5096 110.92 74.3232C110.977 75.24 110.774 76.1541 110.335 76.9611V76.9611Z" fill="#375D99"/>
</svg>
