<svg width="164" height="55" viewBox="0 0 164 55" fill="none" xmlns="http://www.w3.org/2000/svg">
<path d="M163.271 41.659C163.099 41.671 162.926 41.671 162.754 41.659H2.11543C2.0245 41.659 2.07714 41.659 2.18244 41.659C1.90006 41.6877 1.95271 41.5968 0 41.659V42.9034H1.48367H162.912C163.233 42.9034 163.558 42.9034 163.869 42.8794C164.018 42.7071 163.932 42.5013 163.96 42.3099C164.066 41.7739 163.817 41.5776 163.271 41.659Z" fill="#375D99"/>
<path d="M37.5083 16.2634C37.9247 16.2634 38.3459 16.3113 38.7623 16.3113H73.0447C73.5856 16.3113 74.1312 16.3113 74.672 16.34C75.0357 16.1773 75.7488 16.6415 75.7106 15.7609C75.7106 13.3678 75.7106 11.0227 75.7536 8.65838C75.7536 7.91654 75.5526 7.70117 74.7964 7.70117C71.8387 7.72989 68.8761 7.70117 65.9183 7.70117C65.5211 7.70117 65.1286 7.73946 64.7314 7.73946C58.1888 7.73946 51.6415 7.76339 45.1086 7.73946C43.2364 7.71123 41.4256 8.4074 40.0545 9.68259C38.3527 11.2173 37.18 13.2511 36.7043 15.4929C36.5128 16.2921 36.5942 16.3639 37.5083 16.2634Z" fill="#375D99"/>
<path d="M78.8308 38.9344C81.8939 38.8913 84.9617 38.9009 88.0296 38.9344C88.7283 38.9344 88.9054 38.6998 88.9054 38.0394C88.8863 31.859 88.8863 25.6786 88.9054 19.4982C88.9054 18.7851 88.6709 18.5649 87.9482 18.5745C84.9043 18.6032 81.8604 18.6128 78.8212 18.5745C78.0411 18.5745 77.864 18.8377 77.864 19.5604C77.8975 22.6235 77.864 25.6914 77.864 28.7544C77.864 31.8175 77.864 34.8854 77.864 37.9532C77.8832 38.6616 78.0411 38.9487 78.8308 38.9344Z" fill="#375D99"/>
<path d="M0.5742 16.2915H10.4957C10.6593 16.3195 10.8276 16.2926 10.9743 16.2149C10.9998 13.7931 11.0205 11.3698 11.0365 8.94488C10.8738 8.49499 11.3524 7.71008 10.3425 7.71487C6.93964 7.71487 3.54155 7.73879 0.138672 7.74836C0.138672 10.5785 0.138672 13.4103 0.138672 16.2436C0.278196 16.293 0.427276 16.3094 0.5742 16.2915Z" fill="#375D99"/>
<path d="M77.9792 16.1957C78.2768 16.3383 78.6122 16.3819 78.9364 16.3202H101.871C102.165 16.3761 102.469 16.3359 102.737 16.2053C102.737 13.7134 102.75 11.2198 102.776 8.7247C102.776 7.71963 102.776 7.71484 101.752 7.71484H78.9364C78.7641 7.71484 78.5918 7.71484 78.4195 7.71484C78.0366 7.71484 77.8931 7.90628 77.8931 8.26524C77.9122 10.9071 77.9282 13.549 77.9409 16.1909L77.9792 16.1957Z" fill="#375D99"/>
<path d="M162.831 50.273C163.884 48.7367 163.41 47.3774 161.606 47.0185C159.606 46.6493 157.558 46.6266 155.551 46.9515C154.513 47.1094 154.058 47.6742 153.881 48.6792C153.824 49.0143 153.761 49.3588 154.24 49.3923C154.623 49.4211 155.082 49.5168 155.145 48.9137C155.221 48.1336 155.738 47.8752 156.418 47.8464C157.806 47.7842 159.189 47.7555 160.572 47.8464C160.92 47.8614 161.261 47.9495 161.572 48.1049C161.74 48.1831 161.881 48.3108 161.974 48.471C162.068 48.6312 162.11 48.8161 162.095 49.001C162.081 49.1859 162.01 49.3619 161.893 49.5054C161.775 49.6489 161.617 49.7531 161.438 49.8039C161.152 49.878 160.858 49.9166 160.562 49.9188C159.524 49.9188 158.485 49.9188 157.447 49.9188C157.073 49.9188 156.753 49.9188 156.762 50.4549C156.772 50.9909 157.088 50.9335 157.423 50.9335H160.242C160.638 50.9086 161.036 50.9589 161.414 51.0818C161.605 51.1381 161.773 51.2522 161.895 51.4083C162.018 51.5643 162.089 51.7547 162.099 51.9529C162.118 52.1531 162.067 52.3537 161.955 52.5211C161.844 52.6884 161.678 52.8122 161.486 52.8718C161.146 53.0198 160.784 53.1088 160.414 53.135C159.179 53.1638 157.94 53.1638 156.705 53.135C155.891 53.135 155.192 52.934 155.101 51.8907C155.049 51.3498 154.527 51.5461 154.192 51.5556C153.857 51.5652 153.814 51.862 153.848 52.1491C153.982 53.3648 154.699 53.963 156.154 54.0875H160.778H161.146C163.266 53.9343 163.984 52.4937 162.817 50.7372C162.785 50.707 162.76 50.6705 162.743 50.6299C162.726 50.5894 162.718 50.5457 162.72 50.5019C162.721 50.458 162.732 50.415 162.751 50.3755C162.77 50.3361 162.797 50.3011 162.831 50.273V50.273Z" fill="#375D99"/>
<path d="M116.062 47.5311C116.062 47.3157 116.09 46.995 115.827 46.9711C115.176 46.9041 114.463 46.6696 113.913 47.1482C111.582 49.1344 109.28 51.1541 106.968 53.1643C106.916 53.1342 106.873 53.0909 106.842 53.0388C106.812 52.9868 106.796 52.9277 106.796 52.8675C106.829 52.9784 106.888 53.08 106.968 53.1643C106.968 52.8675 106.911 52.5756 106.911 52.2836C106.911 50.7042 106.911 49.1296 106.911 47.5502C106.911 47.0716 106.733 46.9041 106.26 46.9041C105.786 46.9041 105.676 47.1386 105.676 47.5454C105.695 49.6672 105.708 51.7859 105.714 53.9013C106.59 54.1597 107.399 54.2172 108.174 53.5328C110.117 51.8146 112.099 50.1442 114.071 48.4596C114.233 48.316 114.391 48.0384 114.607 48.1198C114.822 48.2011 114.755 48.5553 114.755 48.7802C114.755 50.3373 114.755 51.8944 114.755 53.4514C114.755 53.8965 114.922 54.0592 115.368 54.064C115.813 54.0688 116.071 53.9683 116.071 53.4562C116.057 51.4843 116.066 49.5077 116.062 47.5311Z" fill="#375D99"/>
<path d="M72.9249 51.5459C72.5085 51.4932 72.0155 51.3832 71.9389 52.0819C71.9217 52.357 71.7982 52.6146 71.5946 52.8003C71.391 52.9861 71.1232 53.0854 70.8477 53.0774C69.3936 53.197 67.9322 53.197 66.4781 53.0774C65.4778 53.0008 65.0422 52.4744 65.0422 51.4454C65.0422 50.7562 65.0135 50.0622 65.0422 49.3682C65.0901 48.2818 65.5208 47.8893 66.5977 47.7936C67.8076 47.7242 69.0204 47.7242 70.2303 47.7936C71.1492 47.7936 71.8815 47.9516 72.0251 49.0906C72.0873 49.6219 72.6329 49.3587 72.9584 49.3682C73.2838 49.3778 73.2503 49.0571 73.2312 48.8083C73.2434 48.3262 73.0691 47.858 72.7445 47.5013C72.4199 47.1446 71.9702 46.927 71.489 46.8938C69.527 46.6082 67.5322 46.634 65.5783 46.9704C65.1201 47.042 64.699 47.2646 64.3817 47.6027C64.0644 47.9408 63.869 48.3752 63.8266 48.837C63.688 49.617 63.6495 50.4115 63.7117 51.2013C63.8744 53.2593 64.578 53.9389 66.6456 54.0729H70.8381C72.3027 53.9772 73.0589 53.4268 73.1977 52.3021C73.2264 52.0436 73.4513 51.6081 72.9249 51.5459Z" fill="#375D99"/>
<path d="M126.667 51.5514C126.261 51.5083 125.758 51.3647 125.686 52.0826C125.676 52.3331 125.572 52.5705 125.394 52.7478C125.217 52.925 124.98 53.0293 124.729 53.0398C123.182 53.2105 121.621 53.2185 120.072 53.0638C119.891 53.0591 119.713 53.0177 119.549 52.9421C119.385 52.8665 119.237 52.7583 119.116 52.624C118.995 52.4897 118.902 52.3322 118.843 52.161C118.785 51.9897 118.762 51.8084 118.775 51.628C118.74 50.8622 118.74 50.0964 118.775 49.3307C118.818 48.3352 119.254 47.8948 120.245 47.8326C121.478 47.7449 122.715 47.7337 123.949 47.7991C124.854 47.847 125.605 47.9475 125.753 49.0914C125.82 49.6226 126.371 49.3019 126.711 49.3498C127.05 49.3977 126.993 49.0961 126.988 48.8712C126.95 47.6938 126.232 46.9568 124.787 46.8323C123.012 46.6631 121.224 46.7049 119.46 46.9568C118.975 47.0134 118.524 47.2341 118.182 47.5824C117.84 47.9306 117.627 48.3854 117.579 48.8712C117.404 49.9201 117.404 50.9907 117.579 52.0396C117.621 52.5142 117.821 52.961 118.147 53.3082C118.474 53.6554 118.907 53.8828 119.378 53.954C119.761 54.0353 120.158 54.0497 120.551 54.0928H124.748C126.107 53.9588 126.825 53.4036 126.959 52.3267C126.969 52.0443 127.204 51.6088 126.667 51.5514Z" fill="#375D99"/>
<path d="M82.0665 53.0536H81.4731C79.7644 53.0536 78.0606 53.0536 76.3568 53.0536C75.8782 53.0536 75.7059 52.91 75.7154 52.4218C75.7585 50.7084 75.5479 50.9381 77.1513 50.9238C78.6349 50.9238 80.1186 50.9238 81.6023 50.9238C81.9517 50.9238 82.3298 50.9525 82.3441 50.4452C82.3585 49.9379 81.9517 49.9187 81.5736 49.9139H81.2768C79.6735 49.9139 78.0654 49.9139 76.4573 49.9139C76.1558 49.9139 75.7442 50.0049 75.7442 49.5119C75.7442 49.0189 75.6006 48.3776 75.8638 47.832C77.8644 47.832 79.8649 47.832 81.8655 47.832C82.1814 47.832 82.5356 47.8846 82.5451 47.3821C82.5547 46.8796 82.2293 46.9035 81.899 46.9035C79.6496 46.9035 77.4001 46.9035 75.1507 46.9035C74.6194 46.9035 74.4759 47.1332 74.4806 47.6214C74.4806 49.4736 74.5046 51.3258 74.5094 53.178C74.5437 53.1252 74.5725 53.0691 74.5955 53.0105C74.5765 53.0708 74.5473 53.1274 74.5094 53.178C74.5094 53.537 74.2557 54.0443 74.9305 54.0491C77.3236 54.0491 79.6783 54.0491 82.0522 54.0491C82.3824 54.0491 82.5547 53.9151 82.5547 53.5705C82.5547 53.2259 82.3968 53.0631 82.0665 53.0536Z" fill="#375D99"/>
<path d="M9.77769 47.0857C8.82048 46.9277 7.90635 46.7937 7.03529 47.3537C5.87706 48.1051 4.64227 48.7273 3.44097 49.4261C3.03585 49.6644 2.57051 49.7808 2.10087 49.7611C1.69406 49.7611 1.51698 49.5888 1.52176 49.182C1.52176 48.5885 1.52176 47.9998 1.52176 47.4063C1.52176 46.9277 1.22503 46.9277 0.875646 46.9277C0.526265 46.9277 0.291748 46.99 0.291748 47.4063C0.291748 49.4548 0.291748 51.5048 0.291748 53.5564C0.291748 54.0015 0.535837 54.0781 0.909149 54.0733C1.28246 54.0685 1.53133 53.9824 1.52176 53.542C1.52176 52.9725 1.52176 52.403 1.52176 51.8382C1.52176 50.8092 1.89029 50.546 2.88578 50.8571C3.07022 50.9296 3.24664 51.021 3.41225 51.1299C4.81935 51.9483 6.25516 52.7332 7.61918 53.6186C8.44239 54.1499 9.27994 54.0972 10.1989 53.8771L4.18759 50.2732L9.77769 47.0857Z" fill="#375D99"/>
<path d="M33.4114 47.5927C33.4114 47.0854 33.2247 46.8892 32.7126 46.8988C31.5017 46.9227 30.2909 46.8988 29.08 46.8988C27.8691 46.8988 26.687 46.9227 25.5192 46.8988C24.9305 46.8988 24.7343 47.095 24.7439 47.6741C24.8131 48.9515 24.773 50.2324 24.6242 51.5029C24.5237 52.1682 24.5189 52.9387 23.5761 53.0632C23.2362 53.111 23.2937 53.4221 23.3032 53.6614C23.3128 53.9007 23.5043 54.0108 23.7531 54.0395C24.7582 54.1736 25.2895 53.8577 25.5958 52.867C25.9602 51.4784 26.0928 50.0392 25.9882 48.6074C25.9882 48.0378 26.1462 47.8129 26.7444 47.8225C28.2536 47.8544 29.7612 47.8544 31.2672 47.8225C31.8703 47.8225 32.1048 47.9948 32.0904 48.6217C32.0569 50.2011 32.0904 51.7853 32.0904 53.3695C32.0904 53.8098 32.2053 54.0539 32.7174 54.0539C33.2295 54.0539 33.4257 53.8864 33.421 53.3647C33.3954 51.4439 33.3922 49.5199 33.4114 47.5927Z" fill="#375D99"/>
<path d="M22.4608 46.9855C22.2672 46.8738 22.0434 46.8258 21.821 46.8481C21.5986 46.8704 21.3888 46.962 21.2212 47.11C21.1003 47.235 20.9958 47.3749 20.9102 47.5263C20.1205 48.6894 19.3116 49.8476 18.5458 51.0297C18.2395 51.5083 18.005 51.5466 17.5886 51.1446C16.3203 49.9337 14.9898 48.7851 13.7598 47.5503C13.1185 46.9089 12.4293 46.8036 11.4912 47.1578C11.7353 47.3588 11.9698 47.5551 12.2187 47.7657C13.8124 49.2015 15.3918 50.6612 17.0047 52.097C17.4833 52.5182 17.3015 52.7623 16.8181 52.9202C16.5582 52.9949 16.2892 53.0335 16.0188 53.0351C15.277 53.0351 14.5351 53.0351 13.7933 53.0351C13.4583 53.0351 13.2238 53.1404 13.2238 53.5424C13.2238 53.9444 13.4391 54.0449 13.7885 54.0449C14.6548 54.0449 15.5211 54.0784 16.3826 54.0162C16.9035 53.9984 17.4122 53.8534 17.8643 53.594C18.3165 53.3346 18.6983 52.9685 18.9766 52.5278C20.0295 50.9149 21.1495 49.345 22.2167 47.7417C22.3412 47.5263 22.8102 47.2153 22.4608 46.9855Z" fill="#375D99"/>
<path d="M140.853 46.9236C139.815 46.9236 138.776 46.9236 137.738 46.9236C136.699 46.9236 135.608 46.9523 134.55 46.9236C133.952 46.9236 133.775 47.139 133.784 47.7037C133.784 49.5799 133.784 51.4608 133.784 53.3369C133.784 53.8442 133.899 54.1075 134.488 54.0979C135.077 54.0883 135.11 53.782 135.11 53.3369C135.11 51.7815 135.11 50.2212 135.11 48.6657C135.11 48.0388 135.325 47.8569 135.928 47.8665C137.584 47.8952 139.24 47.8665 140.896 47.8665C141.241 47.8665 141.633 47.9191 141.624 47.3879C141.614 46.8566 141.179 46.9236 140.853 46.9236Z" fill="#375D99"/>
<path d="M132.033 49.9238H128.778C128.462 49.9238 128.271 50.0339 128.266 50.4024C128.261 50.771 128.419 50.9433 128.792 50.9385C129.309 50.9385 129.826 50.9385 130.343 50.9385H132.061C132.382 50.9385 132.569 50.8188 132.578 50.4599C132.588 50.1009 132.401 49.9238 132.033 49.9238Z" fill="#375D99"/>
<path d="M61.9506 49.928H58.6865C58.3659 49.928 58.1792 50.0476 58.1792 50.4066C58.1792 50.7655 58.3419 50.9426 58.7105 50.9378C59.2561 50.9378 59.7969 50.9378 60.3425 50.9378C60.8594 50.9378 61.3811 50.9378 61.898 50.9378C62.2569 50.9378 62.4627 50.8086 62.4531 50.4209C62.4611 50.3534 62.4535 50.285 62.4309 50.2209C62.4083 50.1568 62.3713 50.0988 62.3228 50.0512C62.2743 50.0036 62.2155 49.9677 62.151 49.9464C62.0865 49.925 62.0179 49.9187 61.9506 49.928Z" fill="#375D99"/>
<path d="M56.734 47.5837C56.734 47.1482 56.6622 46.8323 56.1214 46.9328C55.6428 46.8515 55.4848 47.0477 55.4992 47.4976C55.4992 48.091 55.4992 48.6845 55.4992 49.278C55.4992 49.7135 55.346 49.9002 54.8914 49.9002C52.8908 49.9002 50.8886 49.9002 48.8849 49.9002C48.4063 49.9002 48.2005 49.7374 48.2148 49.254C48.2148 48.6845 48.2148 48.115 48.2148 47.5454C48.2148 47.0668 48.0282 46.8945 47.5544 46.8945C47.0805 46.8945 46.8891 47.0572 46.8939 47.5454C46.8939 49.4981 46.8939 51.4509 46.8939 53.4036C46.8939 53.8822 47.047 54.0736 47.5352 54.0688C48.0234 54.064 48.234 53.93 48.2196 53.4323C48.2196 52.8149 48.2196 52.1975 48.2196 51.5801C48.2196 51.1015 48.3919 50.9052 48.8705 50.91C50.8743 50.91 52.878 50.91 54.8818 50.91C55.3221 50.91 55.504 51.0871 55.4992 51.5274C55.4992 52.2693 55.4992 53.0111 55.5279 53.7529C55.7385 54.2315 56.1549 54.0497 56.4851 53.9922C56.8154 53.9348 56.7244 53.5998 56.7244 53.3653C56.734 51.4413 56.7244 49.5125 56.734 47.5837Z" fill="#375D99"/>
<path d="M11.008 19.6425C11.008 18.58 11.008 18.58 9.94545 18.5752H1.48372L0.301567 18.6231C0.184036 18.8689 0.131315 19.1408 0.148413 19.4128C0.148413 25.909 0.148413 32.4053 0.148413 38.9015C3.46514 38.9015 6.78188 38.9015 10.0938 38.9446C10.8117 38.9446 11.0223 38.7292 11.0127 38.0209C10.984 34.0628 11.0127 30.1048 11.0127 26.1467C10.9497 25.8445 10.9991 25.5297 11.1515 25.2613C11.3573 25.4575 11.5392 25.6155 11.7115 25.7878C15.9519 29.9803 20.186 34.1777 24.4137 38.3799C24.5881 38.5664 24.8006 38.7134 25.0368 38.8108C25.2729 38.9083 25.5272 38.9539 25.7825 38.9446C29.9128 38.9207 34.048 38.9446 38.1783 38.9446C38.4272 38.9446 38.7192 39.0595 39.035 38.6862C37.9008 37.5854 36.7617 36.4989 35.6417 35.3886C31.7618 31.5374 27.8852 27.683 24.0116 23.8255C23.6335 23.457 23.6431 23.2272 24.0116 22.8683C24.8588 22.0738 25.6676 21.2362 26.486 20.413C27.0173 19.877 27.5437 19.3362 28.0702 18.8001C27.9904 18.7197 27.8912 18.6612 27.7823 18.6302C27.6733 18.5992 27.5582 18.5967 27.448 18.6231C23.1645 18.6231 18.8858 18.6231 14.6071 18.6231C14.3991 18.618 14.1925 18.6582 14.0016 18.7408C13.8108 18.8234 13.6401 18.9466 13.5015 19.1017C12.7357 19.8866 11.946 20.6523 10.9984 21.5952L11.008 19.6425Z" fill="#375D99"/>
<path d="M36.4123 28.6638C36.3949 30.7136 36.9502 32.7276 38.0157 34.4788C39.7769 37.3504 42.1891 39.0016 45.7355 38.9681C54.2691 38.8868 62.8074 38.9442 71.3409 38.9394C72.748 38.9394 74.1599 38.9394 75.567 38.9394C75.6256 38.8937 75.6711 38.8334 75.6988 38.7644C75.7265 38.6955 75.7355 38.6205 75.7249 38.5469C75.7249 35.9864 75.7249 33.4259 75.7249 30.8893C75.7249 30.449 75.5095 30.3293 75.1219 30.3867H48.7029C48.1286 30.2097 48.0951 29.755 48.0951 29.2572C48.0951 26.0219 48.0951 22.7817 48.0951 19.5415C48.0951 18.8667 47.9036 18.6418 47.2144 18.6466C43.8961 18.6753 40.581 18.6753 37.269 18.6466C36.5846 18.6466 36.374 18.8667 36.3836 19.5415C36.4267 22.5137 36.398 25.5959 36.4123 28.6638Z" fill="#375D99"/>
<path d="M137.934 38.7345C138.231 38.7345 138.527 38.7728 138.824 38.7728H150.985C154.891 38.7728 158.796 38.7728 162.702 38.7728C163.003 38.7728 163.419 38.9786 163.577 38.4809V26.1664C162.922 25.2092 161.984 24.5008 161.132 23.7255C161.033 23.6677 160.949 23.5877 160.886 23.4917C160.824 23.3958 160.784 23.2866 160.771 23.1727C160.758 23.0589 160.772 22.9436 160.811 22.8361C160.851 22.7285 160.914 22.6315 160.998 22.5529C161.783 21.476 162.51 20.3561 163.257 19.2505C163.477 18.9299 163.63 18.6427 163.003 18.7384H150.689C150.555 18.7182 150.418 18.7337 150.292 18.7833C150.166 18.8329 150.055 18.9148 149.971 19.0208C148.631 20.2317 147.305 21.4569 145.941 22.6343C145.462 23.0459 145.462 23.3139 145.941 23.7351C147.477 25.1326 148.985 26.5588 150.492 27.9899C150.674 28.1574 150.971 28.2722 150.933 28.703H137.805C137.805 31.7309 137.805 34.7621 137.805 37.7965C137.747 38.1149 137.793 38.4433 137.934 38.7345Z" fill="#375D99"/>
<path d="M137.795 28.7073H137.8V28.7021L137.795 28.7073Z" fill="#375D99"/>
<path d="M18.0624 16.2543H18.3257C18.4696 16.2813 18.615 16.2988 18.7612 16.3069C22.5183 16.3069 26.2753 16.3069 30.0324 16.3069C30.2319 16.307 30.429 16.2628 30.6094 16.1776C30.7898 16.0924 30.949 15.9682 31.0757 15.814C33.5676 13.3157 36.0644 10.8173 38.5659 8.31903C38.7142 8.17066 38.9344 8.06059 38.9344 7.81171C38.8482 7.66813 38.7142 7.70163 38.5946 7.70163C34.2489 7.70163 29.8983 7.70163 25.5478 7.70163C25.3278 7.70525 25.1111 7.75579 24.9122 7.84988C24.7133 7.94398 24.5367 8.07945 24.3944 8.24724C22.0923 10.5541 19.7758 12.8514 17.4785 15.1631C17.1627 15.479 16.4878 15.7948 16.6984 16.1825C16.909 16.5702 17.5791 16.3261 18.0624 16.2543Z" fill="#375D99"/>
<path d="M137.92 16.2055C138.24 16.3386 138.592 16.3784 138.934 16.3204H162.52C163.64 16.3204 163.64 16.3204 163.578 15.1526C163.578 12.9079 163.578 10.6585 163.616 8.40904C163.616 7.75335 163.42 7.57148 162.774 7.57626C154.714 7.59541 146.657 7.59541 138.604 7.57626C137.977 7.57626 137.795 7.77249 137.805 8.37075C137.834 10.5675 137.805 12.7691 137.834 14.9659C137.761 15.38 137.791 15.8054 137.92 16.2055V16.2055Z" fill="#375D99"/>
<path d="M103.723 49.407C103.795 49.34 103.776 49.1724 103.785 49.0528C103.872 47.8036 102.986 46.9469 101.498 46.9182C99.4253 46.8847 97.3482 46.9182 95.2758 46.9182C94.7733 46.9182 94.5627 47.0762 94.5675 47.5978C94.5675 49.5123 94.5675 51.4267 94.5675 53.3698C94.5675 53.9346 94.7924 54.0973 95.3189 54.0829C96.3574 54.059 97.396 54.0829 98.6691 54.0829C99.7986 54.0063 101.163 54.2265 102.498 53.9441C103.833 53.6618 104.57 52.3025 103.881 51.1874C103.484 50.5365 103.024 50.0722 103.723 49.407ZM97.1854 47.8467H100.67C100.892 47.8402 101.114 47.8482 101.335 47.8706C102.129 47.9712 102.575 48.3492 102.522 48.9331C102.455 49.6654 101.9 49.8425 101.301 49.8664C100.488 49.8999 99.6742 49.8664 98.8605 49.8664C98.1187 49.8664 97.3769 49.8425 96.635 49.8664C96.1134 49.8903 95.8836 49.7276 95.8788 49.1629C95.8645 47.8467 95.8406 47.8467 97.1854 47.8467ZM101.239 53.0396H99.0376C98.2001 53.0396 97.3625 53.0396 96.525 53.0396C96.099 53.0396 95.898 52.9343 95.9028 52.4652C95.9363 50.5508 95.7209 50.8476 97.487 50.8236C98.5447 50.8236 99.6072 50.8236 100.665 50.8236C100.861 50.8236 101.062 50.8236 101.258 50.8236C102.311 50.8811 102.871 51.3022 102.847 51.9914C102.823 52.6806 102.307 53.0204 101.239 53.0396V53.0396Z" fill="#375D99"/>
<path d="M43.3232 46.9226C41.4838 46.6761 39.6214 46.652 37.7762 46.8508C37.2323 46.8873 36.6983 47.0151 36.1968 47.2289C35.9182 47.3353 35.6741 47.5161 35.491 47.7515C35.3079 47.9869 35.1928 48.268 35.1582 48.5642C35.0021 49.6421 34.9796 50.7352 35.0912 51.8187C35.23 53.1827 35.6081 53.5943 36.9674 53.915C37.3062 53.9786 37.648 54.0249 37.9916 54.0538H42.4761C42.969 54.0111 43.4583 53.9343 43.9406 53.8241C44.7495 53.5895 45.3765 53.1157 45.4291 52.1872C45.5002 51.203 45.521 50.2158 45.4913 49.2294C45.4339 47.8798 44.9553 47.1954 43.3232 46.9226ZM44.2039 51.5315C44.2093 51.7473 44.1704 51.9618 44.0894 52.1619C44.0085 52.3619 43.8873 52.5432 43.7333 52.6945C43.5794 52.8457 43.396 52.9637 43.1945 53.0411C42.9931 53.1185 42.7779 53.1537 42.5623 53.1444H40.3367C39.5949 53.1444 38.8483 53.1779 38.1112 53.1444C36.9482 53.0918 36.4026 52.5366 36.3548 51.3784C36.3188 50.6865 36.3188 49.9931 36.3548 49.3012C36.3485 49.1085 36.3824 48.9167 36.4542 48.7377C36.5259 48.5588 36.6341 48.3967 36.7718 48.2617C36.9094 48.1268 37.0736 48.0219 37.2539 47.9537C37.4342 47.8854 37.6268 47.8554 37.8193 47.8654C39.4 47.7578 40.9863 47.7578 42.567 47.8654C43.7683 47.9611 44.0746 48.2818 44.1656 49.4783C44.2284 50.1673 44.2411 50.8599 44.2039 51.5507V51.5315Z" fill="#375D99"/>
<path d="M90.7436 46.9229C89.7864 46.9229 88.8627 46.9229 87.9246 46.9229C86.8334 46.9229 85.747 46.9516 84.6605 46.9229C84.0671 46.9229 83.8852 47.1334 83.89 47.703C83.89 49.5791 83.89 51.46 83.89 53.3362C83.89 53.8435 84.0048 54.1067 84.5935 54.0971C85.1822 54.0876 85.2349 53.7813 85.2205 53.3362C85.2205 52.9676 85.2444 52.5943 85.2205 52.2258C85.1535 51.594 85.4407 51.417 86.0341 51.4313C87.5944 51.46 89.1499 51.4313 90.7101 51.4313C92.4427 51.4313 93.2563 50.6847 93.2467 49.1532C93.2371 47.6216 92.4762 46.9229 90.7436 46.9229ZM91.964 49.2393C91.9305 50.0816 91.5429 50.4741 90.6479 50.4837C89.0685 50.4837 87.4939 50.4837 85.9145 50.4837C85.4359 50.4837 85.1966 50.3401 85.2061 49.8136C85.254 47.4589 84.9046 47.8992 87.0631 47.8513H88.2453C89.0589 47.8513 89.8725 47.8226 90.6814 47.8513C91.6003 47.904 91.9928 48.3587 91.964 49.2249V49.2393Z" fill="#375D99"/>
<path d="M148.856 47.4405C148.334 46.622 146.673 46.6508 146.161 47.4692C144.971 49.3836 143.784 51.298 142.6 53.2124C142.452 53.4517 142.069 53.758 142.284 53.9638C142.5 54.1696 143.041 54.1266 143.414 54.0021C143.572 53.9495 143.692 53.7389 143.806 53.581C144.079 53.2029 144.338 52.8152 144.606 52.4275L149.755 52.4514C150.072 52.4013 150.396 52.4498 150.684 52.5902C150.904 52.9731 151.115 53.3608 151.349 53.7389C151.491 53.9472 151.709 54.0911 151.957 54.1395C152.204 54.1879 152.46 54.1368 152.67 53.9973C153.058 53.7915 152.574 53.4278 152.421 53.1789C151.247 51.2422 150.059 49.3293 148.856 47.4405ZM149.411 51.5086H145.716C145.328 51.5086 145.137 51.3937 145.391 50.9869C145.984 50.0297 146.568 49.0725 147.161 48.0914C147.353 47.7755 147.592 47.6367 147.832 48.0148C148.478 49.0294 149.109 50.0584 149.746 51.0922C149.952 51.456 149.698 51.5086 149.411 51.5086Z" fill="#375D99"/>
<path d="M100.474 29.1574L99.0378 31.5887C98.7315 32.12 98.4157 32.6465 98.1093 33.1825C97.6307 34.0201 97.1521 34.8624 96.6735 35.7L95.1324 38.3514C95.0223 38.5333 94.9314 38.72 94.8118 38.9449H136.173C132.856 33.1729 129.539 27.4584 126.218 21.7151C126.156 21.7726 126.136 21.7821 126.127 21.8013C125.648 22.4618 125.17 23.127 124.691 23.7779C124.212 24.4288 123.547 25.1754 123.002 25.8886C122.26 26.8458 121.527 27.8317 120.824 28.8224C120.422 29.3872 120.077 29.9902 119.723 30.5837C119.474 30.9953 119.245 31.4164 119.034 31.8424C118.823 32.2684 118.579 32.7996 118.378 33.3117C118.177 33.8238 118.038 34.2354 117.9 34.7045C117.761 35.1735 117.627 35.6042 117.526 36.0637C117.426 36.5232 117.383 36.9539 117.301 37.399C117.301 37.4756 117.21 37.5426 117.163 37.6144C117.105 37.5569 117.024 37.5091 116.995 37.4421C116.812 37.0074 116.652 36.5632 116.516 36.1116C116.328 35.4861 116.194 34.8456 116.114 34.1971C116.01 32.9287 116.192 31.653 116.646 30.464C116.908 29.6982 117.253 28.9632 117.675 28.272C118.268 27.3148 118.881 26.4102 119.541 25.5248C120.422 24.3331 121.365 23.1892 122.274 22.0167C122.714 21.4519 123.145 20.8808 123.566 20.3033C123.877 19.8725 124.165 19.4274 124.461 18.9871C124.567 18.8292 124.696 18.8148 124.777 18.9584C125.031 19.3939 125.256 19.8294 125.529 20.265C125.725 20.6048 125.931 20.9446 126.132 21.2796C126.213 21.4136 126.294 21.4328 126.381 21.2796C126.467 21.1264 126.519 21.0642 126.586 20.9589C127.214 20.0238 127.711 19.0079 128.065 17.9389C128.249 17.3727 128.364 16.786 128.405 16.192C128.468 14.8517 128.168 13.5193 127.539 12.3345C127.467 12.2114 127.387 12.0931 127.299 11.9803C127.165 12.9382 126.937 13.8807 126.62 14.7945C126.395 15.3976 126.189 16.0102 125.911 16.5845C125.572 17.288 125.174 17.9581 124.792 18.6425C124.758 18.7095 124.658 18.8052 124.629 18.7909C124.551 18.7487 124.486 18.6857 124.442 18.609C124.303 18.3745 124.184 18.1304 124.035 17.9007C123.887 17.6709 123.868 17.7092 123.729 17.9007C123.361 18.3793 123.002 18.8579 122.623 19.3365C121.772 20.4277 120.886 21.4902 120.063 22.6005C119.24 23.7109 118.57 24.7208 117.852 25.7976C117.514 26.3297 117.204 26.8793 116.923 27.444C116.679 27.9226 116.478 28.4012 116.268 28.9086C116.129 29.2436 115.985 29.5786 115.87 29.9232C115.727 30.3635 115.607 30.8086 115.483 31.2537C115.411 31.5026 115.334 31.7323 115.286 32.0004C115.215 32.3976 115.172 32.7948 115.109 33.1921C115.081 33.2847 115.047 33.3758 115.009 33.4649C114.9 33.3282 114.805 33.1807 114.727 33.0246C114.564 32.546 114.439 32.0674 114.248 31.6223C113.986 30.838 113.871 30.0122 113.908 29.1862C113.908 28.4101 114.019 27.6381 114.238 26.8936C114.412 26.2315 114.656 25.5897 114.966 24.9792C115.444 24.1177 115.923 23.2706 116.469 22.4618C117.014 21.6529 117.608 20.8967 118.201 20.131C119.158 18.8627 120.178 17.6039 121.154 16.3308C121.508 15.8522 121.834 15.3736 122.159 14.895C122.18 14.8501 122.191 14.801 122.191 14.7514C122.191 14.7018 122.18 14.6528 122.159 14.6079C122.049 14.3925 121.906 14.1963 121.781 13.9857C121.657 13.7751 121.638 13.7942 121.513 13.9569C121.097 14.4834 120.69 15.0195 120.274 15.5459C119.517 16.5031 118.747 17.4603 118 18.4175C117.474 19.1067 116.962 19.8055 116.473 20.5234C115.985 21.2413 115.607 21.8539 115.215 22.5431C114.822 23.2323 114.535 23.8354 114.229 24.4958C114.037 24.9074 113.899 25.3477 113.75 25.7737C113.604 26.13 113.477 26.4943 113.372 26.8649C113.233 27.3962 113.142 27.9418 113.032 28.4826C112.98 28.7458 112.937 29.0139 112.884 29.2819C112.884 29.3297 112.826 29.3728 112.803 29.4207C112.752 29.3901 112.706 29.3513 112.669 29.3058C112.587 29.1632 112.516 29.0144 112.458 28.8607C112.263 28.3503 112.097 27.8294 111.96 27.3005C111.832 26.7559 111.763 26.1991 111.754 25.6397C111.758 24.9732 111.809 24.3078 111.908 23.6487C111.986 23.2205 112.1 22.7995 112.247 22.39C112.351 22.0431 112.479 21.704 112.63 21.3753C112.884 20.8632 113.147 20.3559 113.439 19.8677C113.784 19.2886 114.143 18.7191 114.535 18.1735C115.042 17.4651 115.588 16.7807 116.119 16.0963C116.765 15.2683 117.416 14.4499 118.058 13.6267C118.464 13.0955 118.862 12.5594 119.254 12.0234C119.508 11.6836 119.733 11.3438 119.991 10.9944C120.004 10.9675 120.011 10.938 120.011 10.9082C120.011 10.8784 120.004 10.849 119.991 10.8221C119.848 10.5876 119.69 10.3435 119.541 10.1233C119.465 10.0037 119.388 10.0085 119.307 10.1233L119.201 10.2621L117.569 12.3919C116.952 13.1816 116.32 13.9569 115.712 14.7562C115.105 15.5555 114.631 16.2208 114.119 16.9722C113.698 17.5848 113.295 18.2117 112.932 18.8579C112.568 19.504 112.243 20.1932 111.946 20.8776C111.649 21.562 111.467 22.1746 111.242 22.8255C111.17 23.0361 111.108 23.2467 111.056 23.462C110.974 23.7636 110.883 24.0699 110.826 24.3762C110.754 24.7543 110.711 25.1419 110.654 25.5248C110.634 25.5879 110.609 25.6488 110.577 25.7067H110.51C110.429 25.5948 110.36 25.4745 110.304 25.3477C110.127 24.8691 109.955 24.357 109.826 23.8497C109.716 23.4941 109.633 23.131 109.577 22.7633C109.467 22.0303 109.467 21.2851 109.577 20.5521C109.657 19.9636 109.778 19.3814 109.94 18.81C110.124 18.2544 110.353 17.7149 110.625 17.1971C110.93 16.574 111.272 15.9699 111.649 15.388C112.128 14.6653 112.64 13.9522 113.166 13.2821C113.975 12.2196 114.808 11.181 115.626 10.1281C116.105 9.48678 116.607 8.83588 117.062 8.18019C117.225 7.96004 117.163 7.8691 116.88 7.86431H115.263C114.53 7.86431 113.798 7.86431 113.066 7.86431C112.984 7.85851 112.901 7.87725 112.83 7.91814C112.758 7.95904 112.7 8.02026 112.664 8.09404C112.496 8.37642 112.338 8.66359 112.185 8.95075C111.707 9.76438 111.261 10.5828 110.788 11.3964C110.161 12.4781 109.524 13.5597 108.897 14.6414C108.418 15.455 107.969 16.2686 107.5 17.0822C107.074 17.8193 106.638 18.5516 106.212 19.2886C105.786 20.0257 105.298 20.8967 104.834 21.6816C104.369 22.4665 103.963 23.1605 103.532 23.9024C103.053 24.716 102.608 25.5344 102.139 26.348C101.56 27.3004 101.014 28.2289 100.474 29.1574Z" fill="#375D99"/>
<path d="M120.273 10.6249C120.211 10.7078 120.178 10.8085 120.178 10.9121C120.178 11.0156 120.211 11.1164 120.273 11.1992C120.513 11.5821 120.752 11.9698 120.963 12.3622C121.173 12.7547 121.341 13.0179 121.532 13.3482C121.599 13.463 121.685 13.5492 121.786 13.3817C122.231 12.659 122.7 11.9459 123.102 11.1992C123.489 10.463 123.762 9.67226 123.911 8.85407C124.078 8.00717 124.078 7.13565 123.911 6.28875C123.817 5.83518 123.691 5.38892 123.533 4.95344C123.38 4.54184 123.164 4.15896 122.973 3.76172H122.911C122.867 3.97709 122.82 4.18768 122.772 4.40305C122.643 4.99652 122.542 5.59956 122.384 6.18346C122.156 7.03287 121.835 7.85461 121.427 8.63391C121.047 9.30715 120.663 9.97081 120.273 10.6249Z" fill="#375D99"/>
<path d="M118.182 7.59545C118.512 8.16021 118.833 8.72496 119.163 9.28971C119.244 9.42372 119.345 9.54816 119.465 9.71089C119.56 9.58166 119.613 9.51944 119.661 9.44765C120.194 8.66811 120.659 7.84336 121.049 6.98284C121.488 6.02251 121.734 4.98482 121.771 3.92934C121.787 3.13865 121.67 2.35091 121.427 1.59854C121.251 1.123 121.048 0.657981 120.819 0.205797C120.772 0.131756 120.717 0.0627902 120.656 0C120.628 0.138795 120.604 0.220156 120.589 0.296733C120.541 0.574323 120.517 0.856698 120.446 1.12472C120.283 1.75169 120.111 2.37866 119.91 2.99606C119.773 3.46959 119.597 3.93071 119.383 4.37445C118.952 5.23115 118.464 6.05913 118.01 6.90148C117.963 7.01047 117.955 7.13175 117.986 7.24607C118.036 7.37037 118.102 7.48777 118.182 7.59545V7.59545Z" fill="#375D99"/>
<path d="M122.489 14.5883C122.443 14.655 122.418 14.7343 122.418 14.8156C122.418 14.8969 122.443 14.9763 122.489 15.043C122.829 15.6125 123.155 16.182 123.49 16.7468C123.619 16.967 123.763 17.1775 123.92 17.4216C124.007 17.3259 124.059 17.2828 124.093 17.235C124.633 16.4592 125.103 15.6376 125.5 14.7797C126.059 13.6323 126.308 12.3585 126.223 11.0849C126.169 10.4921 126.06 9.90562 125.897 9.33322C125.737 8.86003 125.541 8.39932 125.313 7.95483C125.265 7.86423 125.207 7.77917 125.141 7.70117C125.112 7.78732 125.088 7.83039 125.079 7.87825C124.945 8.55309 124.83 9.23271 124.662 9.89797C124.419 10.8331 124.069 11.7371 123.619 12.5925C123.26 13.2673 122.882 13.9326 122.489 14.5883Z" fill="#375D99"/>
</svg>
