<svg width="177" height="57" viewBox="0 0 177 57" fill="none" xmlns="http://www.w3.org/2000/svg">
<path d="M49.9779 41.9521L51.3596 44.6647L51.0464 44.8352L42.176 49.2657L28.8567 55.9024C28.1935 56.234 27.5257 56.5564 26.8717 56.8972C26.7778 56.9536 26.6703 56.9835 26.5608 56.9835C26.4513 56.9835 26.3438 56.9536 26.2499 56.8972C22.983 55.2576 19.7131 53.6226 16.44 51.9922L2.5035 45.0332C1.76661 44.6648 1.02971 44.2917 0.288213 43.9371C0.192449 43.9091 0.110579 43.8463 0.0586201 43.7612C0.00666109 43.676 -0.0116492 43.5745 0.0072714 43.4765C0.0118832 43.4014 0.0118832 43.326 0.0072714 43.2508V13.7014C0.0072714 13.0658 -0.0295733 13.1948 0.46783 12.9369C2.88576 11.721 5.3083 10.5189 7.73084 9.30765C13.887 6.23725 20.0431 3.16686 26.1993 0.0964675C26.3068 0.033301 26.4292 0 26.5539 0C26.6786 0 26.801 0.033301 26.9085 0.0964675C30.5285 1.91107 34.1516 3.72107 37.7777 5.52646L50.9082 12.071L51.3135 12.2782L49.9319 15.0048L28.1981 4.16781C28.1599 4.24035 28.132 4.31785 28.1152 4.39809C28.1083 4.52695 28.1083 4.6561 28.1152 4.78496V52.1903C28.086 52.3948 28.1131 52.6033 28.1935 52.7936L28.5988 52.6048L37.704 48.0637L49.6095 42.1271L49.9779 41.9521ZM24.9419 52.789C25.0939 52.6048 25.0386 52.416 25.0386 52.2409C25.0386 36.4039 25.0386 20.5683 25.0386 4.7343C25.0386 4.62837 25.0386 4.51783 25.0386 4.4119C25.0195 4.33049 24.9949 4.25048 24.965 4.17242L24.4537 4.41651L11.7239 10.7584C8.96054 12.1309 6.20793 13.5033 3.46607 14.8758C3.35353 14.9172 3.258 14.9949 3.1946 15.0967C3.1312 15.1984 3.10356 15.3184 3.11604 15.4377C3.11604 24.1361 3.11604 32.8361 3.11604 41.5376C3.10386 41.6574 3.13217 41.7778 3.19645 41.8797C3.26073 41.9815 3.35727 42.0589 3.47067 42.0994C4.83086 42.7626 6.1849 43.432 7.5328 44.1075L14.28 47.4788L24.5366 52.6002L24.9419 52.789Z" fill="#375D99"/>
<path d="M114.29 36.9773C114.143 36.9773 114.046 37.0003 113.954 37.0003H111.476C111.154 37.0003 111.149 37.0003 111.048 36.6917C110.67 35.5311 110.288 34.389 109.911 33.2145C109.8 32.8737 109.8 32.8691 109.45 32.8691H102.348C101.994 32.8691 101.989 32.8691 101.888 33.2191C101.519 34.3705 101.146 35.5219 100.778 36.6687C100.672 37.0003 100.672 37.0003 100.317 37.0049H97.7794C97.6827 37.0049 97.5906 37.0049 97.457 37.0049C97.5031 36.8345 97.5399 36.6918 97.586 36.5444C99.1212 31.9971 100.647 27.4529 102.164 22.9118L103.145 19.9919C103.246 19.6833 103.251 19.6833 103.573 19.6787H108.137C108.478 19.6787 108.478 19.6787 108.598 20.0057L111.601 28.9175L114.157 36.4891C114.203 36.6273 114.249 36.7793 114.29 36.9773ZM102.818 30.2255C102.988 30.2255 103.09 30.267 103.191 30.267H108.593C108.709 30.2578 108.825 30.2409 108.939 30.2163C108.087 27.6049 107.253 25.035 106.415 22.4651H105.305C104.499 25.0396 103.698 27.6003 102.836 30.2255H102.818Z" fill="#375D99"/>
<path d="M154.041 19.666C154.041 19.8364 154.069 19.9746 154.069 20.1266C154.069 21.8644 154.069 23.5992 154.069 25.3309V25.7915C154.23 25.7915 154.354 25.7915 154.479 25.7915C155.593 25.7915 156.713 25.7915 157.827 25.7915C158.998 25.8035 160.132 26.2036 161.051 26.929C161.941 27.6354 162.562 28.6253 162.81 29.7338C163.178 31.1071 163.086 32.563 162.548 33.8789C162.237 34.6667 161.726 35.3597 161.065 35.8896C160.404 36.4194 159.617 36.7678 158.78 36.9001C158.286 36.9876 157.785 37.0292 157.284 37.0245C155.308 37.0245 153.337 37.0245 151.361 37.0245H151.135C151.114 37.0251 151.093 37.0214 151.073 37.0135C151.053 37.0056 151.035 36.9938 151.02 36.9787C151.005 36.9636 150.993 36.9456 150.985 36.9257C150.977 36.9059 150.973 36.8846 150.974 36.8633C150.974 36.7758 150.974 36.6929 150.974 36.6054V20.0989C150.974 19.6706 150.974 19.666 151.393 19.666H154.055H154.041ZM154.087 34.3717C154.253 34.3717 154.382 34.3717 154.506 34.3717C155.211 34.3717 155.92 34.3717 156.625 34.3717C156.956 34.3725 157.287 34.3525 157.615 34.3118C158.077 34.2659 158.515 34.0883 158.879 33.8C159.242 33.5117 159.515 33.125 159.665 32.686C159.934 31.9462 159.962 31.1397 159.743 30.3832C159.599 29.8114 159.266 29.3052 158.798 28.9472C158.329 28.5892 157.753 28.4005 157.164 28.412C156.243 28.412 155.322 28.412 154.401 28.412C154.299 28.412 154.198 28.412 154.087 28.412V34.3717Z" fill="#375D99"/>
<path d="M169.792 22.3187V25.7361C169.963 25.7361 170.105 25.7683 170.253 25.7683H175.545C176.097 25.7683 176.042 25.7453 176.042 26.2795C176.042 26.8138 176.042 27.4171 176.042 27.9836C176.042 28.0987 176.042 28.2139 176.042 28.3566L175.609 28.3797H170.202C169.774 28.3797 169.774 28.3797 169.774 28.808V34.3623C169.953 34.3623 170.101 34.39 170.234 34.39H176.539C177 34.39 177 34.39 177 34.8229C177 35.4446 177 36.0664 177 36.6651C177 37.0151 177 37.0198 176.636 37.0198H167.043C166.66 37.0198 166.66 37.0198 166.66 36.6191V20.1311C166.66 19.5922 166.66 19.6429 167.153 19.6429H176.954C176.971 19.7435 176.984 19.845 176.991 19.9468C176.991 20.61 176.991 21.2733 176.991 21.9411C176.991 22.2404 176.991 22.2588 176.65 22.2588H170.202C170.082 22.2865 169.944 22.3049 169.792 22.3187Z" fill="#375D99"/>
<path d="M90.3412 30.466C90.2462 30.4887 90.1524 30.5164 90.0603 30.5489C89.1004 31.0062 88.0773 31.3167 87.0252 31.47C85.7414 31.6838 84.424 31.56 83.2026 31.1107C82.6027 30.8857 82.0651 30.521 81.6343 30.0468C81.2034 29.5727 80.8916 29.0028 80.7248 28.3842C80.5439 27.7665 80.454 27.1258 80.4576 26.4821C80.4576 24.3728 80.4576 22.2634 80.4576 20.1495C80.4576 20.0896 80.4576 20.0251 80.4576 19.9606C80.4576 19.7396 80.4853 19.7119 80.6971 19.7119H83.4006C83.5664 19.7119 83.6309 19.7902 83.6217 19.9468C83.6217 20.0343 83.6217 20.1218 83.6217 20.2047C83.6217 22.047 83.6217 23.8892 83.6217 25.6992C83.6172 26.1498 83.6809 26.5986 83.8105 27.0302C83.9264 27.4345 84.1507 27.7993 84.4593 28.0851C84.7678 28.3709 85.1487 28.5667 85.5606 28.6514C86.4542 28.8391 87.3799 28.8091 88.2595 28.5639C88.8727 28.4105 89.4651 28.1831 90.0234 27.8868C90.1136 27.8501 90.1898 27.7857 90.2411 27.703C90.2924 27.6203 90.3162 27.5234 90.309 27.4263C90.309 25.0037 90.309 22.5858 90.309 20.1633V19.7994C91.349 19.7101 92.3943 19.6978 93.4362 19.7626C93.4362 19.8271 93.4684 19.8961 93.4776 19.9652C93.4868 20.0343 93.4776 20.1356 93.4776 20.2231V36.6098C93.4776 37.1533 93.4776 37.1026 92.994 37.1026H90.6452C90.3136 37.1026 90.309 37.1026 90.309 36.7572V31.2996C90.309 31.1522 90.3366 31.0002 90.3412 30.839C90.3458 30.6778 90.3412 30.6041 90.3412 30.466Z" fill="#375D99"/>
<path d="M76.1423 24.1008C76.064 24.0501 76.0041 24.0179 75.9581 23.981C74.9205 23.1762 73.7011 22.6384 72.4071 22.4151C71.048 22.1585 69.6422 22.3542 68.4049 22.9724C67.7857 23.2754 67.2338 23.6998 66.7821 24.2204C66.3303 24.741 65.9878 25.3472 65.7751 26.0029C65.3925 27.0207 65.2601 28.1155 65.3892 29.1952C65.5182 30.2748 65.9049 31.3076 66.5166 32.2066C66.9193 32.816 67.444 33.3353 68.0575 33.7317C68.6711 34.1281 69.3602 34.3929 70.0813 34.5094C72.1861 34.9147 74.0329 34.3067 75.7232 33.0817C75.9765 32.902 76.2068 32.6948 76.4877 32.4691L77.7634 34.9792C77.6115 35.1127 77.4825 35.2417 77.3443 35.3522C76.0962 36.3601 74.6103 37.0308 73.0289 37.3004C72.0979 37.4581 71.1502 37.4922 70.2103 37.4017C68.4579 37.2827 66.7814 36.641 65.3974 35.5595C63.9378 34.4045 62.9093 32.792 62.4775 30.9815C61.9222 28.9502 62.0517 26.7926 62.8459 24.8423C63.315 23.6667 64.0464 22.6137 64.9842 21.7637C65.922 20.9136 67.0416 20.289 68.2575 19.9373C69.0049 19.7054 69.7787 19.5692 70.5603 19.532C72.4383 19.3934 74.3172 19.7877 75.9811 20.6696C76.4097 20.9144 76.822 21.1867 77.2154 21.4848C77.418 21.6276 77.418 21.6552 77.3029 21.8855C76.9467 22.5794 76.5905 23.2748 76.2344 23.9718C76.2114 24.0179 76.1837 24.0179 76.1423 24.1008Z" fill="#375D99"/>
<path d="M131.331 21.6552C130.907 22.4796 130.502 23.281 130.088 24.0962C130.034 24.0761 129.981 24.0514 129.931 24.0225C128.896 23.1965 127.668 22.6466 126.362 22.4244C125.493 22.2438 124.596 22.2559 123.732 22.4596C122.869 22.6633 122.061 23.0537 121.365 23.6034C120.434 24.36 119.785 25.4081 119.522 26.5786C119.261 27.5268 119.207 28.5206 119.366 29.4914C119.525 30.4622 119.893 31.3869 120.444 32.202C120.848 32.8091 121.372 33.3267 121.985 33.7228C122.597 34.1189 123.284 34.3851 124.004 34.5048C126.122 34.9147 127.983 34.3022 129.678 33.0633C129.922 32.8883 130.138 32.6902 130.41 32.4738C130.871 33.2982 131.258 34.1318 131.727 35.0207C131.64 35.0759 131.543 35.1312 131.46 35.1957C130.189 36.2761 128.654 36.9993 127.011 37.2912C126.059 37.4575 125.089 37.4931 124.128 37.3971C121.888 37.2474 119.795 36.2276 118.297 34.5555C117.232 33.3396 116.524 31.8522 116.253 30.2585C116.079 29.3309 116.039 28.3834 116.133 27.4445C116.266 25.6953 116.935 24.0297 118.05 22.6748C119.164 21.3198 120.669 20.3414 122.36 19.8729C123.049 19.6798 123.758 19.564 124.473 19.5275C126.331 19.3954 128.189 19.7779 129.844 20.6328C130.381 20.9083 130.881 21.2519 131.331 21.6552V21.6552Z" fill="#375D99"/>
<path d="M139.055 29.6456V22.7971C139.055 22.2859 139.055 22.2813 138.539 22.2813H133.841C133.754 22.2813 133.666 22.2813 133.583 22.2813C133.293 22.2813 133.261 22.2491 133.261 21.9727C133.261 21.2957 133.261 20.6233 133.261 19.9463C133.261 19.6976 133.288 19.6791 133.542 19.6699H147.451C147.911 19.6699 147.911 19.6699 147.911 20.1305C147.911 20.7338 147.911 21.3325 147.911 21.9313C147.911 22.2537 147.911 22.2767 147.561 22.2767H142.675C142.122 22.2767 142.122 22.2767 142.122 22.8201V36.5448C142.122 37.0975 142.122 37.033 141.638 37.0376H139.451C139.059 37.0376 139.055 37.0376 139.055 36.6461V29.6456Z" fill="#375D99"/>
<path d="M137.222 50.4682L137.341 50.155C137.848 48.8685 138.353 47.5835 138.857 46.3001C138.877 46.2276 138.922 46.1646 138.985 46.1224C139.047 46.0802 139.122 46.0616 139.197 46.0698C139.451 46.0698 139.709 46.0698 139.967 46.0698C140.224 46.0698 140.229 46.0929 140.247 46.3185C140.317 47.0831 140.376 47.8522 140.441 48.6213C140.524 49.5425 140.607 50.4636 140.68 51.3847C140.722 51.8729 140.754 52.3657 140.791 52.8953C140.432 52.8953 140.105 52.8953 139.778 52.8953C139.603 52.8953 139.603 52.7249 139.593 52.6006C139.566 52.2367 139.547 51.8729 139.52 51.5137C139.46 50.7445 139.395 49.9754 139.345 49.2109C139.345 48.9345 139.345 48.6536 139.345 48.3772V48.0687C139.184 48.0364 139.188 48.147 139.161 48.216C138.746 49.2293 138.336 50.2379 137.926 51.2511C137.894 51.3294 137.848 51.4031 137.82 51.486C137.803 51.5595 137.758 51.6235 137.694 51.6646C137.631 51.7058 137.554 51.721 137.48 51.7071C137.226 51.7071 136.968 51.7071 136.71 51.6794C136.6 51.4492 136.471 51.2189 136.374 50.9932C135.99 50.0721 135.611 49.1402 135.237 48.1976C135.204 48.128 135.167 48.0604 135.126 47.995C135.054 48.2588 135.031 48.5334 135.057 48.8056C135.029 49.0819 135.016 49.3582 134.992 49.6346C134.969 49.9109 134.951 50.1688 134.933 50.4359C134.914 50.7031 134.891 50.9702 134.873 51.2373C134.854 51.5044 134.831 51.79 134.808 52.0663C134.785 52.3426 134.771 52.596 134.753 52.8815H133.606C133.606 52.794 133.606 52.7111 133.606 52.6282C133.694 51.5919 133.781 50.5603 133.864 49.524C133.915 48.8608 133.961 48.2022 134.011 47.539C134.048 47.1245 134.094 46.71 134.127 46.2955C134.127 46.1159 134.223 46.0514 134.394 46.0514H135.195C135.264 46.0442 135.334 46.0614 135.392 46.1001C135.45 46.1388 135.493 46.1965 135.513 46.2633C136.02 47.5574 136.535 48.8516 137.047 50.1458C137.083 50.2425 137.116 50.3438 137.153 50.4405L137.222 50.4682Z" fill="#375D99"/>
<path d="M108.731 50.4631C108.768 50.3756 108.805 50.2926 108.837 50.2051C109.347 48.9094 109.857 47.6153 110.366 46.3226C110.384 46.2442 110.43 46.175 110.495 46.1283C110.561 46.0816 110.641 46.0606 110.721 46.0693C110.974 46.0693 111.232 46.0693 111.49 46.0693C111.66 46.0693 111.753 46.1292 111.766 46.3042C111.799 46.6773 111.835 47.0503 111.868 47.4234C111.928 48.1372 111.983 48.8511 112.043 49.565C112.089 50.1407 112.139 50.7164 112.19 51.2921C112.227 51.7526 112.268 52.2132 112.305 52.6737C112.311 52.7519 112.311 52.8304 112.305 52.9086H111.168C111.03 51.2921 110.905 49.6847 110.818 48.0083C110.744 48.1234 110.698 48.1741 110.67 48.2339C110.237 49.2932 109.8 50.3525 109.381 51.4164C109.349 51.5167 109.283 51.6029 109.195 51.6607C109.107 51.7186 109.002 51.7445 108.897 51.7342C108.188 51.7342 108.179 51.7342 107.907 51.0756C107.515 50.1268 107.138 49.1735 106.751 48.2201L106.645 47.9853C106.609 48.065 106.581 48.1484 106.562 48.2339C106.511 49.1551 106.465 50.113 106.41 51.0526C106.378 51.6099 106.327 52.1625 106.29 52.7152C106.29 52.8672 106.217 52.9316 106.069 52.927H105.18C105.101 52.754 105.083 52.559 105.13 52.3744C105.185 51.6375 105.245 50.9052 105.309 50.1683L105.475 48.28C105.53 47.6536 105.581 47.0227 105.627 46.3963C105.65 46.097 105.655 46.0831 105.94 46.0785C106.226 46.0739 106.456 46.0785 106.714 46.0785C106.783 46.0727 106.852 46.0911 106.91 46.1306C106.967 46.1701 107.008 46.2282 107.027 46.295C107.528 47.5784 108.033 48.8619 108.542 50.1453C108.589 50.2604 108.639 50.3709 108.685 50.4815L108.731 50.4631Z" fill="#375D99"/>
<path d="M89.6643 52.9637C89.6643 53.3137 89.6643 53.6361 89.6643 53.9539C89.6643 54.2717 89.6643 54.2901 89.3143 54.2947H88.8538C88.6143 54.2947 88.582 54.2625 88.582 54.0368C88.582 53.415 88.582 52.7933 88.582 52.1946C88.582 52.0334 88.6465 51.932 88.8077 51.9643C89.236 52.0472 89.4203 51.7847 89.5815 51.4577C89.9619 50.6989 90.1889 49.8726 90.2493 49.0259C90.3045 48.2061 90.2999 47.3817 90.323 46.5573V46.2994C90.3188 46.2728 90.3206 46.2456 90.3283 46.2199C90.336 46.1941 90.3495 46.1703 90.3676 46.1504C90.3857 46.1305 90.4081 46.115 90.4331 46.1049C90.458 46.0948 90.4849 46.0904 90.5118 46.0922H94.4035C94.428 46.0908 94.4526 46.0947 94.4755 46.1035C94.4985 46.1123 94.5193 46.1258 94.5367 46.1432C94.5541 46.1605 94.5676 46.1814 94.5764 46.2043C94.5852 46.2273 94.5891 46.2518 94.5877 46.2764C94.5877 46.3731 94.5877 46.4698 94.5877 46.5619V51.5129C94.5877 51.9505 94.5877 51.9505 95.0483 51.9735C95.3707 51.9735 95.3845 51.9735 95.3845 52.2959C95.3845 52.8624 95.3845 53.4335 95.3845 54C95.3845 54.2993 95.3522 54.3223 95.0437 54.327H94.6614C94.3989 54.327 94.3713 54.2947 94.3666 54.023C94.362 53.7513 94.3666 53.5302 94.3666 53.2815C94.3666 53.0328 94.3298 52.9591 94.0581 52.9591H90.0052C89.8916 52.9533 89.7777 52.9548 89.6643 52.9637V52.9637ZM93.3488 47.0732H91.723C91.4375 47.0732 91.4237 47.0962 91.4099 47.3863C91.4099 47.9206 91.3868 48.4594 91.3454 48.9891C91.2911 49.9216 91.0483 50.8335 90.6315 51.6695C90.5993 51.7386 90.5855 51.8169 90.5486 51.9182C90.673 51.9182 90.7605 51.9413 90.8434 51.9413H93.1462C93.3074 51.9413 93.3857 51.8722 93.3765 51.7064V47.437C93.3857 47.3357 93.3765 47.2297 93.3672 47.0732H93.3488Z" fill="#375D99"/>
<path d="M96.5264 49.454C96.5291 48.745 96.7422 48.0527 97.1386 47.4647C97.535 46.8768 98.0969 46.4198 98.7533 46.1514C99.4096 45.883 100.131 45.8153 100.826 45.957C101.52 46.0987 102.157 46.4434 102.656 46.9473C103.155 47.4513 103.493 48.0919 103.628 48.7881C103.762 49.4843 103.687 50.2047 103.412 50.8582C103.137 51.5118 102.674 52.0689 102.082 52.4593C101.49 52.8496 100.796 53.0555 100.087 53.051C99.6134 53.0599 99.1434 52.9727 98.705 52.7946C98.2666 52.6165 97.8689 52.3513 97.5361 52.015C97.2032 51.6787 96.9421 51.2783 96.7685 50.8381C96.595 50.3979 96.5126 49.927 96.5264 49.454V49.454ZM102.458 49.454C102.461 49.4111 102.461 49.368 102.458 49.3251C102.461 48.8996 102.344 48.4821 102.121 48.1198C101.898 47.7575 101.577 47.465 101.196 47.2756C100.826 47.064 100.402 46.9633 99.9762 46.9853C99.55 47.0074 99.1391 47.1513 98.7923 47.3999C98.3066 47.7422 97.9578 48.2455 97.8077 48.8204C97.6576 49.3954 97.716 50.0049 97.9726 50.5409C98.1944 51.0757 98.6096 51.5072 99.1353 51.7496C99.6611 51.992 100.259 52.0274 100.81 51.8489C101.301 51.679 101.726 51.3572 102.022 50.9299C102.318 50.5027 102.471 49.9923 102.458 49.4724V49.454Z" fill="#375D99"/>
<path d="M142.136 49.4637C142.136 48.7549 142.346 48.062 142.739 47.4724C143.133 46.8828 143.692 46.4229 144.346 46.1508C145.001 45.8788 145.721 45.8066 146.417 45.9436C147.112 46.0805 147.752 46.4204 148.254 46.9203C148.757 47.4202 149.1 48.0578 149.24 48.7525C149.381 49.4473 149.312 50.1681 149.044 50.8239C148.775 51.4798 148.318 52.0414 147.73 52.4379C147.143 52.8343 146.451 53.0478 145.742 53.0514C145.266 53.066 144.792 52.9833 144.349 52.8084C143.906 52.6335 143.504 52.37 143.166 52.0342C142.829 51.6984 142.563 51.2972 142.386 50.8552C142.209 50.4132 142.124 49.9397 142.136 49.4637V49.4637ZM148.086 49.3854C148.073 49.1947 148.045 49.0054 148.003 48.8189C147.91 48.4327 147.72 48.0765 147.451 47.7836C147.183 47.4906 146.844 47.2704 146.468 47.1435C146.091 47.0166 145.689 46.9871 145.298 47.0578C144.907 47.1285 144.54 47.297 144.231 47.5478C143.964 47.7797 143.748 48.0642 143.596 48.3834C143.444 48.7027 143.359 49.0499 143.347 49.4034C143.335 49.7569 143.395 50.109 143.526 50.438C143.656 50.7669 143.852 51.0655 144.102 51.3151C144.527 51.7305 145.096 51.9657 145.69 51.9717C146.283 51.9777 146.857 51.754 147.29 51.3474C147.551 51.0934 147.757 50.7879 147.894 50.4501C148.031 50.1124 148.097 49.7498 148.086 49.3854V49.3854Z" fill="#375D99"/>
<path d="M127.923 49.3114C127.969 49.3466 128.019 49.3774 128.07 49.4035C128.366 49.523 128.617 49.7302 128.791 49.997C128.964 50.2638 129.052 50.5775 129.042 50.8958C129.071 51.2367 128.999 51.5785 128.835 51.8789C128.671 52.1793 128.423 52.4251 128.121 52.586C127.79 52.7868 127.412 52.8993 127.025 52.913C126.104 52.936 125.206 52.913 124.294 52.913C124.251 52.9067 124.21 52.8959 124.169 52.8808C124.154 52.7831 124.143 52.6847 124.137 52.586V46.4237C124.137 46.0921 124.137 46.0691 124.473 46.0737C125.321 46.0737 126.168 46.0737 127.011 46.0967C127.476 46.1131 127.919 46.2963 128.259 46.6126C128.417 46.7791 128.541 46.9753 128.622 47.1898C128.704 47.4042 128.743 47.6328 128.736 47.8622C128.729 48.0916 128.677 48.3174 128.582 48.5266C128.488 48.7358 128.353 48.9243 128.186 49.0812L127.923 49.3114ZM125.404 49.8687C125.3 50.5418 125.3 51.2267 125.404 51.8998C125.963 51.9735 126.53 51.9735 127.089 51.8998C127.182 51.8741 127.272 51.8386 127.357 51.7938C127.548 51.6718 127.694 51.4904 127.772 51.2774C127.85 51.0644 127.856 50.8316 127.789 50.6148C127.745 50.4026 127.63 50.212 127.462 50.0746C127.295 49.9372 127.085 49.8613 126.868 49.8595C126.408 49.8595 125.97 49.8595 125.523 49.8595C125.483 49.8578 125.443 49.8609 125.404 49.8687V49.8687ZM125.404 47.0823C125.383 47.1162 125.364 47.1516 125.348 47.1883C125.348 47.6995 125.348 48.2153 125.348 48.7265C125.346 48.7512 125.35 48.7761 125.358 48.7994C125.367 48.8227 125.38 48.8439 125.398 48.8615C125.415 48.879 125.436 48.8925 125.46 48.901C125.483 48.9095 125.508 48.9128 125.533 48.9107C125.994 48.9165 126.455 48.8966 126.914 48.8509C127.119 48.8075 127.3 48.6886 127.421 48.518C127.542 48.3473 127.595 48.1374 127.568 47.9298C127.574 47.7286 127.505 47.5325 127.374 47.3799C127.242 47.2274 127.059 47.1294 126.859 47.1054C126.366 47.0455 125.883 47.0823 125.413 47.0823H125.404Z" fill="#375D99"/>
<path d="M169.479 49.316L169.769 49.4818C169.994 49.5981 170.184 49.7702 170.323 49.9815C170.462 50.1928 170.544 50.4363 170.561 50.6885C170.618 50.9956 170.594 51.3122 170.492 51.6075C170.391 51.9028 170.215 52.1668 169.981 52.3741C169.597 52.7075 169.108 52.8964 168.599 52.9084C167.678 52.9406 166.78 52.9084 165.868 52.9084C165.825 52.9021 165.782 52.8929 165.739 52.8807C165.725 52.7938 165.716 52.7062 165.712 52.6182C165.712 50.5426 165.712 48.4655 165.712 46.3868C165.712 46.0875 165.712 46.0645 166.006 46.0645C166.831 46.0645 167.66 46.0645 168.48 46.0645C168.715 46.078 168.948 46.1245 169.17 46.2026C169.462 46.2835 169.724 46.4492 169.921 46.6788C170.119 46.9084 170.244 47.1915 170.28 47.4922C170.34 47.7938 170.314 48.1062 170.205 48.3936C170.096 48.6811 169.908 48.9321 169.663 49.118C169.608 49.1917 169.557 49.2423 169.479 49.316ZM166.886 50.8865V51.7201C166.881 51.7496 166.884 51.7798 166.893 51.8083C166.902 51.8367 166.918 51.8625 166.939 51.8837C166.96 51.9048 166.986 51.9206 167.014 51.9298C167.043 51.939 167.073 51.9413 167.103 51.9366C167.54 51.9366 167.982 51.9642 168.42 51.9366C168.557 51.9323 168.692 51.8997 168.816 51.8407C168.94 51.7817 169.051 51.6976 169.141 51.5938C169.231 51.4899 169.298 51.3685 169.339 51.2373C169.38 51.1061 169.393 50.9678 169.378 50.8312C169.375 50.6966 169.346 50.5637 169.291 50.4407C169.237 50.3176 169.158 50.2068 169.059 50.1148C168.961 50.0228 168.845 49.9516 168.719 49.9054C168.592 49.8591 168.458 49.8388 168.323 49.8456C167.927 49.8456 167.531 49.8456 167.135 49.8456C166.923 49.8456 166.895 49.8779 166.891 50.0897C166.886 50.3016 166.886 50.6194 166.886 50.8865V50.8865ZM166.951 47.0777C166.918 47.156 166.895 47.1836 166.895 47.2112C166.895 47.704 166.895 48.1968 166.895 48.6896C166.895 48.8554 166.987 48.9153 167.139 48.9153C167.384 48.9153 167.632 48.9153 167.876 48.9153C168.09 48.9156 168.303 48.8925 168.512 48.8462C168.707 48.78 168.873 48.6484 168.982 48.4739C169.091 48.2993 169.136 48.0925 169.111 47.8883C169.107 47.6877 169.03 47.4953 168.894 47.3476C168.759 47.1999 168.573 47.1072 168.374 47.0869C167.895 47.0454 167.425 47.0777 166.951 47.0777V47.0777Z" fill="#375D99"/>
<path d="M163.902 52.9231H162.723C162.58 52.9231 162.52 52.8309 162.46 52.725C162.216 52.2967 161.972 51.8684 161.733 51.4401C161.493 51.0117 161.272 50.6433 161.06 50.2334C161.02 50.1168 160.939 50.0186 160.833 49.9568C160.726 49.8951 160.601 49.8739 160.48 49.8972C160.287 49.9089 160.093 49.9089 159.9 49.8972C159.9 50.0446 159.872 50.1689 159.872 50.2887C159.872 51.0394 159.872 51.7901 159.872 52.5408C159.886 52.6138 159.886 52.6888 159.872 52.7619C159.872 52.8217 159.789 52.9046 159.743 52.9092C159.411 52.9092 159.084 52.9092 158.73 52.9092C158.73 52.7665 158.73 52.6651 158.73 52.5592V46.4338C158.73 46.0838 158.73 46.0745 159.094 46.0699H159.554C159.872 46.0699 159.886 46.0699 159.886 46.3969C159.886 47.0924 159.886 47.7786 159.886 48.4879V48.8517C160.186 48.9346 160.502 48.9441 160.807 48.8794C160.894 48.8794 160.973 48.7274 161.033 48.6307C161.493 47.8845 161.921 47.1384 162.345 46.3831C162.391 46.2761 162.471 46.1871 162.573 46.1298C162.674 46.0724 162.792 46.0498 162.907 46.0653C163.183 46.0653 163.46 46.0653 163.8 46.0653C163.713 46.2265 163.653 46.3371 163.589 46.443C163.077 47.295 162.575 48.1563 162.046 48.9991C161.968 49.0985 161.926 49.2209 161.926 49.3468C161.926 49.4728 161.968 49.5951 162.046 49.6945C162.603 50.6157 163.142 51.5598 163.685 52.4947C163.736 52.6191 163.8 52.7388 163.902 52.9231Z" fill="#375D99"/>
<path d="M119.725 52.9228H118.698C118.551 52.9228 118.505 52.8261 118.463 52.7064L118.035 51.4628C117.92 51.1405 117.92 51.1358 117.574 51.1358H115.709C115.41 51.1358 115.387 51.1358 115.294 51.4306C115.152 51.8359 115.023 52.2458 114.885 52.6511C114.792 52.9228 114.792 52.9228 114.498 52.9228H113.632C113.641 52.834 113.658 52.7462 113.682 52.6603L115.921 46.3414C116.013 46.0881 116.031 46.0789 116.289 46.0743C116.547 46.0697 116.782 46.0743 117.031 46.0743C117.279 46.0743 117.307 46.0743 117.399 46.3414C117.597 46.8941 117.795 47.4514 117.989 48.004C118.526 49.5147 119.062 51.0268 119.596 52.5405C119.642 52.6419 119.67 52.7524 119.725 52.9228ZM116.69 47.2625H116.639L115.718 50.1825C116.353 50.217 116.99 50.217 117.625 50.1825C117.302 49.1831 116.999 48.2251 116.69 47.2625V47.2625Z" fill="#375D99"/>
<path d="M173.956 47.0736C173.956 47.1934 173.914 47.2855 173.91 47.3776C173.91 47.8059 173.91 48.2342 173.91 48.6626C173.91 48.9435 173.951 48.9757 174.232 48.9803H176.245C176.291 49.3011 176.291 49.6268 176.245 49.9475C176.107 49.9475 175.996 49.9475 175.881 49.9475H174.274C173.924 49.9475 173.901 49.9475 173.896 50.3021C173.896 50.7289 173.896 51.1572 173.896 51.5871C173.896 51.8911 173.928 51.9187 174.232 51.9187H176.581C176.696 51.9187 176.811 51.9187 176.931 51.9187C176.985 52.187 176.996 52.4622 176.963 52.7339C176.963 52.7846 176.88 52.8444 176.82 52.8767C176.769 52.8856 176.716 52.8856 176.664 52.8767H172.979C172.906 52.8767 172.832 52.8767 172.726 52.8767C172.726 52.78 172.694 52.6878 172.694 52.5957V46.392C172.694 46.0926 172.694 46.0742 172.998 46.0742H176.503C176.811 46.0742 176.82 46.0742 176.825 46.4104C176.825 46.5716 176.825 46.7328 176.825 46.871C176.829 46.895 176.827 46.9196 176.82 46.9428C176.812 46.966 176.8 46.9872 176.783 47.0046C176.766 47.022 176.745 47.0353 176.722 47.0433C176.699 47.0512 176.674 47.0538 176.65 47.0506H173.928L173.956 47.0736Z" fill="#375D99"/>
<path d="M156.371 51.1408L157.007 52.0021C156.919 52.054 156.835 52.1109 156.754 52.1725C156.042 52.7606 155.142 53.0743 154.219 53.0565C153.295 53.0388 152.409 52.6908 151.72 52.0758C151.123 51.4938 150.763 50.7109 150.711 49.8789C150.612 49.0636 150.792 48.2388 151.222 47.5392C151.52 47.0648 151.932 46.6723 152.42 46.3972C152.909 46.1222 153.458 45.9733 154.018 45.9641C154.77 45.9051 155.524 46.0651 156.187 46.4247C156.385 46.5352 156.569 46.6826 156.8 46.8392L156.242 47.7097L155.952 47.53C155.457 47.2056 154.881 47.0268 154.29 47.0142C153.941 47.0061 153.596 47.0755 153.277 47.2173C152.959 47.3591 152.676 47.5698 152.449 47.8342C152.222 48.0986 152.057 48.4101 151.965 48.7461C151.873 49.0822 151.857 49.4345 151.918 49.7776C151.968 50.2263 152.126 50.6562 152.378 51.0303C152.562 51.2862 152.798 51.5004 153.07 51.6591C153.342 51.8179 153.645 51.9174 153.958 51.9514C154.7 52.0388 155.446 51.8339 156.04 51.3803C156.146 51.3158 156.233 51.2421 156.371 51.1408Z" fill="#375D99"/>
</svg>
